SplineFontDB: 3.2
FontName: Inconsolata-CondensedLight
FullName: Inconsolata Condensed Light
FamilyName: Inconsolata Condensed Light
Weight: Light
Copyright: Copyright 2006 The Inconsolata Project Authors (https://github.com/cyrealtype/Inconsolata)
Version: 3.001; ttfautohint (v1.8.2.53-6de2)
ItalicAngle: 0
UnderlinePosition: -230.4
UnderlineWidth: 51.2
Ascent: 819
Descent: 205
InvalidEm: 0
sfntRevision: 0x00030042
LayerCount: 2
Layer: 0 1 "Back" 1
Layer: 1 1 "Fore" 0
XUID: [1021 616 -1222138473 3462943]
StyleMap: 0x0040
FSType: 0
OS2Version: 4
OS2_WeightWidthSlopeOnly: 0
OS2_UseTypoMetrics: 1
CreationTime: 1576097233
ModificationTime: 1621268544
PfmFamily: 81
TTFWeight: 300
TTFWidth: 3
LineGap: 0
VLineGap: 0
Panose: 0 0 0 0 0 0 0 0 0 0
OS2TypoAscent: 880
OS2TypoAOffset: 0
OS2TypoDescent: -195
OS2TypoDOffset: 0
OS2TypoLinegap: 0
OS2WinAscent: 1028
OS2WinAOffset: 0
OS2WinDescent: 465
OS2WinDOffset: 0
HheadAscent: 880
HheadAOffset: 0
HheadDescent: -195
HheadDOffset: 0
OS2SubXSize: 666
OS2SubYSize: 614
OS2SubXOff: 0
OS2SubYOff: 77
OS2SupXSize: 666
OS2SupYSize: 614
OS2SupXOff: 0
OS2SupYOff: 358
OS2StrikeYSize: 51
OS2StrikeYPos: 279
OS2CapHeight: 638
OS2XHeight: 464
OS2Vendor: 'CYRE'
OS2CodePages: 60000193.cdd40000
OS2UnicodeRanges: a00000ff.0000f9eb.00000020.00000000
Lookup: 1 0 0 "'aalt' Access All Alternates in Latin lookup 0" { "'aalt' Access All Alternates in Latin lookup 0 subtable"  } ['aalt' ('DFLT' <'dflt' > 'latn' <'AZE ' 'CAT ' 'CRT ' 'KAZ ' 'MOL ' 'ROM ' 'TAT ' 'TRK ' 'dflt' > ) ]
Lookup: 3 0 0 "'aalt' Access All Alternates in Latin lookup 1" { "'aalt' Access All Alternates in Latin lookup 1 subtable"  } ['aalt' ('DFLT' <'dflt' > 'latn' <'AZE ' 'CAT ' 'CRT ' 'KAZ ' 'MOL ' 'ROM ' 'TAT ' 'TRK ' 'dflt' > ) ]

StartChar: A
Encoding: 65 65 1
Width: 409
GlyphClass: 2
Flags: W
AnchorPoint: "Anchor-3" 350 0 basechar 0
AnchorPoint: "Anchor-2" 205 0 basechar 0
AnchorPoint: "Anchor-0" 205 638 basechar 0
LayerCount: 2
Fore
SplineSet
344 0 m 1,0,-1
 291 199 l 1,1,-1
 118 199 l 1,2,-1
 63 0 l 1,3,-1
 19 0 l 1,4,-1
 199 649 l 1,5,-1
 211 649 l 1,6,-1
 390 0 l 1,7,-1
 344 0 l 1,0,-1
205 520 m 1,8,-1
 128 238 l 1,9,-1
 281 238 l 1,10,-1
 205 520 l 1,8,-1
EndSplineSet
Validated: 1048577
Substitution2: "Single Substitution lookup 29 subtable" ordfeminine
Substitution2: "'aalt' Access All Alternates in Latin lookup 0 subtable" ordfeminine
EndChar

StartChar: AE
Encoding: 198 198 26
Width: 409
Flags: W
LayerCount: 2
Fore
SplineSet
15 0 m 1,0,-1
 177 640 l 1,1,-1
 404 640 l 1,2,-1
 404 598 l 1,3,-1
 264 598 l 1,4,-1
 264 354 l 1,5,-1
 383 354 l 1,6,-1
 383 311 l 1,7,-1
 264 311 l 1,8,-1
 264 42 l 1,9,-1
 402 42 l 1,10,-1
 402 0 l 1,11,-1
 221 0 l 1,12,-1
 221 180 l 1,13,-1
 105 180 l 1,14,-1
 59 0 l 1,15,-1
 15 0 l 1,0,-1
114 220 m 1,16,-1
 221 220 l 1,17,-1
 225 597 l 1,18,-1
 207 597 l 1,19,-1
 114 220 l 1,16,-1
EndSplineSet
Validated: 1
EndChar

StartChar: B
Encoding: 66 66 28
Width: 409
GlyphClass: 2
Flags: W
AnchorPoint: "Anchor-2" 205 0 basechar 0
AnchorPoint: "Anchor-0" 205 638 basechar 0
LayerCount: 2
Fore
SplineSet
48 0 m 1,0,-1
 48 638 l 1,1,-1
 186 638 l 2,2,3
 351 638 351 638 351 484 c 0,4,5
 351 426 351 426 328 389.5 c 128,-1,6
 305 353 305 353 263 340 c 1,7,8
 308 327 308 327 340.5 283 c 128,-1,9
 373 239 373 239 373 179 c 0,10,11
 373 94 373 94 328.5 47 c 128,-1,12
 284 0 284 0 185 0 c 2,13,-1
 48 0 l 1,0,-1
92 360 m 1,14,-1
 178 360 l 2,15,16
 251 360 251 360 279.5 394 c 128,-1,17
 308 428 308 428 308 477 c 0,18,19
 308 533 308 533 279.5 565 c 128,-1,20
 251 597 251 597 186 597 c 2,21,-1
 92 597 l 1,22,-1
 92 360 l 1,14,-1
92 42 m 1,23,-1
 195 42 l 2,24,25
 257 42 257 42 291.5 75 c 128,-1,26
 326 108 326 108 327 181 c 0,27,28
 327 217 327 217 312.5 249 c 128,-1,29
 298 281 298 281 265.5 300 c 128,-1,30
 233 319 233 319 181 319 c 2,31,-1
 92 319 l 1,32,-1
 92 42 l 1,23,-1
EndSplineSet
Validated: 1048577
EndChar

StartChar: C
Encoding: 67 67 29
Width: 409
GlyphClass: 2
Flags: W
AnchorPoint: "Anchor-2" 229 0 basechar 0
AnchorPoint: "Anchor-0" 221 638 basechar 0
LayerCount: 2
Fore
SplineSet
233 -10 m 0,0,1
 178 -10 178 -10 134.5 22.5 c 128,-1,2
 91 55 91 55 65.5 127 c 128,-1,3
 40 199 40 199 39 315 c 0,4,5
 39 412 39 412 56 476 c 128,-1,6
 73 540 73 540 101 576.5 c 128,-1,7
 129 613 129 613 163.5 628 c 128,-1,8
 198 643 198 643 231 643 c 0,9,10
 286 643 286 643 324 613 c 128,-1,11
 362 583 362 583 381 528 c 1,12,-1
 347 508 l 1,13,-1
 340 504 l 1,14,-1
 336 510 l 1,15,16
 339 516 339 516 337 523 c 128,-1,17
 335 530 335 530 328 546 c 0,18,19
 308 578 308 578 283 590.5 c 128,-1,20
 258 603 258 603 230 602 c 0,21,22
 189 602 189 602 156 574.5 c 128,-1,23
 123 547 123 547 103 485.5 c 128,-1,24
 83 424 83 424 83 321 c 0,25,26
 83 177 83 177 125 104.5 c 128,-1,27
 167 32 167 32 232 32 c 0,28,29
 268 32 268 32 296 52 c 128,-1,30
 324 72 324 72 342 109 c 1,31,-1
 374 83 l 1,32,33
 349 36 349 36 316 13 c 128,-1,34
 283 -10 283 -10 233 -10 c 0,0,1
EndSplineSet
Validated: 1048609
EndChar

StartChar: D
Encoding: 68 68 36
Width: 409
GlyphClass: 2
Flags: W
AnchorPoint: "Anchor-4" 204 319 basechar 0
AnchorPoint: "Anchor-2" 204 0 basechar 0
AnchorPoint: "Anchor-0" 179 638 basechar 0
LayerCount: 2
Fore
SplineSet
50 -1 m 1,0,-1
 50 638 l 1,1,-1
 163 638 l 2,2,3
 228 638 228 638 264.5 616 c 128,-1,4
 301 594 301 594 327 552 c 0,5,6
 352 510 352 510 363 452 c 128,-1,7
 374 394 374 394 374 315 c 0,8,9
 372 216 372 216 350 145.5 c 128,-1,10
 328 75 328 75 280 37 c 128,-1,11
 232 -1 232 -1 153 -1 c 2,12,-1
 50 -1 l 1,0,-1
94 39 m 1,13,-1
 151 39 l 2,14,15
 243 39 243 39 286.5 107 c 128,-1,16
 330 175 330 175 330 311 c 0,17,18
 329 452 329 452 290 524.5 c 128,-1,19
 251 597 251 597 160 597 c 2,20,-1
 94 597 l 1,21,-1
 94 39 l 1,13,-1
EndSplineSet
Validated: 1048577
EndChar

StartChar: Eth
Encoding: 208 208 37
Width: 409
Flags: W
LayerCount: 2
Fore
SplineSet
75 -1 m 1,0,-1
 75 317 l 1,1,-1
 30 317 l 1,2,-1
 30 358 l 1,3,-1
 75 358 l 1,4,-1
 75 638 l 1,5,-1
 181 638 l 2,6,7
 230 638 230 638 262.5 619.5 c 128,-1,8
 295 601 295 601 315 573.5 c 128,-1,9
 335 546 335 546 346 518 c 0,10,11
 358 491 358 491 369.5 442.5 c 128,-1,12
 381 394 381 394 381 316 c 0,13,14
 381 156 381 156 324.5 77.5 c 128,-1,15
 268 -1 268 -1 170 -1 c 2,16,-1
 75 -1 l 1,0,-1
118 40 m 1,17,-1
 169 40 l 2,18,19
 252 40 252 40 294.5 112.5 c 128,-1,20
 337 185 337 185 337 313 c 0,21,22
 337 443 337 443 298 520 c 128,-1,23
 259 597 259 597 178 597 c 2,24,-1
 118 597 l 1,25,-1
 118 358 l 1,26,-1
 204 358 l 1,27,-1
 204 317 l 1,28,-1
 118 317 l 1,29,-1
 118 40 l 1,17,-1
EndSplineSet
Validated: 1
EndChar

StartChar: E
Encoding: 69 69 42
Width: 409
GlyphClass: 2
Flags: W
AnchorPoint: "Anchor-3" 350 10 basechar 0
AnchorPoint: "Anchor-2" 205 0 basechar 0
AnchorPoint: "Anchor-0" 211 638 basechar 0
LayerCount: 2
Fore
SplineSet
52 0 m 1,0,-1
 52 639 l 1,1,-1
 355 639 l 1,2,-1
 355 597 l 1,3,-1
 96 597 l 1,4,-1
 96 354 l 1,5,-1
 311 354 l 1,6,-1
 311 311 l 1,7,-1
 96 311 l 1,8,-1
 96 42 l 1,9,-1
 353 42 l 1,10,-1
 353 0 l 1,11,-1
 52 0 l 1,0,-1
EndSplineSet
Validated: 1048577
EndChar

StartChar: uni01B8
Encoding: 440 440 65
Width: 409
Flags: W
LayerCount: 2
Fore
SplineSet
220 -9 m 0,0,1
 142 -9 142 -9 103.5 43.5 c 128,-1,2
 65 96 65 96 65 176 c 0,3,4
 65 233 65 233 84.5 279 c 128,-1,5
 104 325 104 325 140.5 351.5 c 128,-1,6
 177 378 177 378 227 378 c 2,7,-1
 231 378 l 1,8,-1
 77 598 l 1,9,-1
 77 638 l 1,10,-1
 317 638 l 1,11,-1
 317 596 l 1,12,-1
 125 596 l 1,13,-1
 278 378 l 1,14,-1
 278 339 l 1,15,16
 202 347 202 347 156.5 310.5 c 128,-1,17
 111 274 111 274 111 181 c 0,18,19
 111 112 111 112 138 72 c 128,-1,20
 165 32 165 32 225 32 c 0,21,22
 248 32 248 32 264.5 39 c 128,-1,23
 281 46 281 46 294 59 c 0,24,25
 304 72 304 72 307 79 c 128,-1,26
 310 86 310 86 309 95 c 1,27,-1
 313 100 l 1,28,-1
 322 94 l 1,29,-1
 347 56 l 1,30,31
 320 21 320 21 288 6 c 128,-1,32
 256 -9 256 -9 220 -9 c 0,0,1
EndSplineSet
Validated: 33
EndChar

StartChar: F
Encoding: 70 70 66
Width: 409
GlyphClass: 2
Flags: W
AnchorPoint: "Anchor-2" 205 0 basechar 0
AnchorPoint: "Anchor-0" 205 638 basechar 0
LayerCount: 2
Fore
SplineSet
70 0 m 1,0,-1
 70 639 l 1,1,-1
 352 639 l 1,2,-1
 352 597 l 1,3,-1
 114 597 l 1,4,-1
 114 365 l 1,5,-1
 306 365 l 1,6,-1
 306 324 l 1,7,-1
 114 324 l 1,8,-1
 114 0 l 1,9,-1
 70 0 l 1,0,-1
EndSplineSet
Validated: 1048577
EndChar

StartChar: G
Encoding: 71 71 67
Width: 409
GlyphClass: 2
Flags: W
AnchorPoint: "Anchor-2" 218 0 basechar 0
AnchorPoint: "Anchor-0" 224 638 basechar 0
LayerCount: 2
Fore
SplineSet
226 -10 m 0,0,1
 135 -10 135 -10 86 74.5 c 128,-1,2
 37 159 37 159 37 311 c 0,3,4
 35 415 35 415 53 481.5 c 128,-1,5
 71 548 71 548 100 583 c 128,-1,6
 129 618 129 618 162 631.5 c 128,-1,7
 195 645 195 645 224 645 c 0,8,9
 273 645 273 645 310.5 616.5 c 128,-1,10
 348 588 348 588 369 543 c 1,11,-1
 341 517 l 1,12,-1
 334 511 l 1,13,-1
 329 516 l 1,14,15
 330 523 330 523 328 530.5 c 128,-1,16
 326 538 326 538 316 552 c 0,17,18
 297 577 297 577 274.5 590 c 128,-1,19
 252 603 252 603 223 603 c 0,20,21
 187 603 187 603 154.5 579 c 128,-1,22
 122 555 122 555 101.5 495 c 128,-1,23
 81 435 81 435 81 327 c 0,24,25
 81 184 81 184 119 108 c 128,-1,26
 157 32 157 32 226 32 c 0,27,28
 253 32 253 32 280.5 43.5 c 128,-1,29
 308 55 308 55 328 76 c 1,30,-1
 328 255 l 1,31,-1
 225 255 l 1,32,-1
 225 296 l 1,33,-1
 371 296 l 1,34,-1
 371 54 l 1,35,36
 301 -10 301 -10 226 -10 c 0,0,1
EndSplineSet
Validated: 1048609
EndChar

StartChar: H
Encoding: 72 72 74
Width: 409
GlyphClass: 2
Flags: W
AnchorPoint: "Anchor-4" 230 319 basechar 0
AnchorPoint: "Anchor-2" 230 0 basechar 0
AnchorPoint: "Anchor-0" 230 638 basechar 0
LayerCount: 2
Fore
SplineSet
45 638 m 1,0,-1
 97 638 l 1,1,-1
 97 631 l 1,2,3
 92 627 92 627 91 619.5 c 128,-1,4
 90 612 90 612 90 596 c 2,5,-1
 90 364 l 1,6,-1
 311 364 l 1,7,-1
 311 638 l 1,8,-1
 364 638 l 1,9,-1
 364 631 l 1,10,11
 360 627 360 627 358.5 619.5 c 128,-1,12
 357 612 357 612 357 596 c 2,13,-1
 357 0 l 1,14,-1
 311 0 l 1,15,-1
 311 323 l 1,16,-1
 90 323 l 1,17,-1
 90 0 l 1,18,-1
 45 0 l 1,19,-1
 45 638 l 1,0,-1
EndSplineSet
Validated: 1048577
EndChar

StartChar: Hbar
Encoding: 294 294 75
Width: 409
GlyphClass: 2
Flags: W
AnchorPoint: "Anchor-4" 230 319 basechar 0
AnchorPoint: "Anchor-2" 230 0 basechar 0
AnchorPoint: "Anchor-0" 230 638 basechar 0
LayerCount: 2
Fore
SplineSet
8 517 m 1,0,-1
 8 557 l 1,1,-1
 45 557 l 1,2,-1
 45 638 l 1,3,-1
 97 638 l 1,4,-1
 97 631 l 1,5,6
 92 627 92 627 91 619.5 c 128,-1,7
 90 612 90 612 90 596 c 2,8,-1
 90 557 l 1,9,-1
 311 557 l 1,10,-1
 311 638 l 1,11,-1
 364 638 l 1,12,-1
 364 631 l 1,13,14
 360 627 360 627 358.5 619.5 c 128,-1,15
 357 612 357 612 357 596 c 2,16,-1
 357 557 l 1,17,-1
 397 557 l 1,18,-1
 397 517 l 1,19,-1
 357 517 l 1,20,-1
 357 0 l 1,21,-1
 311 0 l 1,22,-1
 311 323 l 1,23,-1
 90 323 l 1,24,-1
 90 0 l 1,25,-1
 45 0 l 1,26,-1
 45 517 l 1,27,-1
 8 517 l 1,0,-1
90 364 m 1,28,-1
 311 364 l 1,29,-1
 311 517 l 1,30,-1
 90 517 l 1,31,-1
 90 364 l 1,28,-1
EndSplineSet
Validated: 1048577
EndChar

StartChar: I
Encoding: 73 73 79
Width: 409
GlyphClass: 2
Flags: W
AnchorPoint: "Anchor-3" 290 0 basechar 0
AnchorPoint: "Anchor-2" 205 0 basechar 0
AnchorPoint: "Anchor-0" 196 638 basechar 0
LayerCount: 2
Fore
SplineSet
73 0 m 1,0,-1
 73 41 l 1,1,-1
 174 41 l 1,2,-1
 174 597 l 1,3,-1
 78 597 l 1,4,-1
 78 638 l 1,5,-1
 319 638 l 1,6,-1
 319 597 l 1,7,-1
 218 597 l 1,8,-1
 218 40 l 1,9,-1
 325 40 l 1,10,-1
 325 0 l 1,11,-1
 73 0 l 1,0,-1
EndSplineSet
Validated: 1048577
EndChar

StartChar: J
Encoding: 74 74 94
Width: 409
GlyphClass: 2
Flags: W
AnchorPoint: "Anchor-2" 203 0 basechar 0
AnchorPoint: "Anchor-0" 268 638 basechar 0
LayerCount: 2
Fore
SplineSet
159 -11 m 0,0,1
 84 -11 84 -11 38 52 c 1,2,-1
 62 89 l 1,3,-1
 69 96 l 1,4,-1
 74 92 l 1,5,6
 74 85 74 85 77 78 c 128,-1,7
 80 71 80 71 91 58 c 0,8,9
 122 31 122 31 159 32 c 0,10,11
 202 32 202 32 222.5 73 c 128,-1,12
 243 114 243 114 243 213 c 2,13,-1
 243 597 l 1,14,-1
 142 597 l 1,15,-1
 142 638 l 1,16,-1
 368 638 l 1,17,-1
 368 597 l 1,18,-1
 288 597 l 1,19,-1
 288 214 l 2,20,21
 289 130 289 130 272.5 80.5 c 128,-1,22
 256 31 256 31 226.5 10 c 128,-1,23
 197 -11 197 -11 159 -11 c 0,0,1
EndSplineSet
Validated: 1048609
EndChar

StartChar: K
Encoding: 75 75 96
Width: 409
Flags: W
LayerCount: 2
Fore
SplineSet
130 326 m 1,0,-1
 88 269 l 1,1,-1
 88 0 l 1,2,-1
 42 0 l 1,3,-1
 42 638 l 1,4,-1
 96 638 l 1,5,-1
 96 631 l 1,6,7
 91 627 91 627 89.5 619.5 c 128,-1,8
 88 612 88 612 88 596 c 2,9,-1
 88 330 l 1,10,-1
 318 642 l 1,11,12
 331 638 331 638 352 638 c 2,13,-1
 368 638 l 1,14,-1
 163 358 l 1,15,-1
 380 0 l 1,16,-1
 326 -4 l 1,17,-1
 130 326 l 1,0,-1
EndSplineSet
Validated: 1
EndChar

StartChar: uni0198
Encoding: 408 408 98
Width: 409
Flags: W
LayerCount: 2
Fore
SplineSet
43 638 m 1,0,-1
 98 638 l 1,1,-1
 98 631 l 1,2,3
 92 627 92 627 90.5 619.5 c 128,-1,4
 89 612 89 612 90 596 c 2,5,-1
 90 327 l 1,6,7
 146 447 146 447 192 515.5 c 128,-1,8
 238 584 238 584 277 613 c 128,-1,9
 316 642 316 642 353 642 c 0,10,11
 365 642 365 642 378 639 c 1,12,-1
 378 588 l 1,13,-1
 378 579 l 1,14,-1
 373 579 l 1,15,16
 369 584 369 584 363.5 587 c 128,-1,17
 358 590 358 590 346 592 c 2,18,-1
 342 592 l 2,19,20
 327 592 327 592 303.5 576 c 128,-1,21
 280 560 280 560 245 515 c 128,-1,22
 210 470 210 470 161 380 c 1,23,-1
 380 0 l 1,24,-1
 326 -4 l 1,25,-1
 134 332 l 1,26,27
 112 290 112 290 90 243 c 1,28,-1
 90 0 l 1,29,-1
 43 0 l 1,30,-1
 43 638 l 1,0,-1
EndSplineSet
Validated: 1
EndChar

StartChar: L
Encoding: 76 76 99
Width: 409
GlyphClass: 2
Flags: W
AnchorPoint: "Anchor-4" 87 319 basechar 0
AnchorPoint: "Anchor-2" 205 0 basechar 0
AnchorPoint: "Anchor-1" 147 468 basechar 0
AnchorPoint: "Anchor-0" 164 638 basechar 0
LayerCount: 2
Fore
SplineSet
60 638 m 1,0,-1
 115 638 l 1,1,-1
 115 631 l 1,2,3
 109 627 109 627 107 619.5 c 128,-1,4
 105 612 105 612 106 596 c 2,5,-1
 106 43 l 1,6,-1
 355 43 l 1,7,-1
 355 0 l 1,8,-1
 60 0 l 1,9,-1
 60 638 l 1,0,-1
EndSplineSet
Validated: 1048577
EndChar

StartChar: uni01C7
Encoding: 455 455 100
Width: 409
Flags: W
LayerCount: 2
Fore
SplineSet
231 -146 m 0,0,1
 158 -146 158 -146 108 -87 c 1,2,-1
 142 -43 l 1,3,4
 149 -50 149 -50 148.5 -56 c 128,-1,5
 148 -62 148 -62 160 -74 c 0,6,7
 168 -83 168 -83 186 -92.5 c 128,-1,8
 204 -102 204 -102 230 -102 c 0,9,10
 270 -102 270 -102 294 -64 c 128,-1,11
 318 -26 318 -26 318 73 c 2,12,-1
 318 597 l 1,13,-1
 206 597 l 1,14,-1
 206 638 l 1,15,-1
 364 638 l 1,16,-1
 364 77 l 2,17,18
 366 -6 366 -6 348.5 -54.5 c 128,-1,19
 331 -103 331 -103 299.5 -124.5 c 128,-1,20
 268 -146 268 -146 231 -146 c 0,0,1
57 0 m 1,21,-1
 57 638 l 1,22,-1
 112 638 l 1,23,24
 112 631 112 631 110 629.5 c 128,-1,25
 108 628 108 628 105.5 623 c 128,-1,26
 103 618 103 618 103 603 c 2,27,-1
 103 43 l 1,28,-1
 251 43 l 1,29,-1
 251 0 l 1,30,-1
 57 0 l 1,21,-1
EndSplineSet
Validated: 33
EndChar

StartChar: Lcaron
Encoding: 317 317 102
Width: 409
GlyphClass: 2
Flags: W
AnchorPoint: "Anchor-4" 87 319 basechar 0
AnchorPoint: "Anchor-2" 205 0 basechar 0
AnchorPoint: "Anchor-1" 147 468 basechar 0
AnchorPoint: "Anchor-0" 164 638 basechar 0
LayerCount: 2
Fore
SplineSet
60 638 m 1,0,-1
 115 638 l 1,1,-1
 115 631 l 1,2,3
 109 627 109 627 107 619.5 c 128,-1,4
 105 612 105 612 106 596 c 2,5,-1
 106 43 l 1,6,-1
 355 43 l 1,7,-1
 355 0 l 1,8,-1
 60 0 l 1,9,-1
 60 638 l 1,0,-1
279 433 m 1,10,-1
 259 451 l 1,11,12
 282 478 282 478 291 500 c 128,-1,13
 300 522 300 522 300 540 c 0,14,15
 300 550 300 550 294 557 c 128,-1,16
 288 564 288 564 281 572 c 128,-1,17
 274 580 274 580 274 592 c 0,18,19
 274 607 274 607 283 617 c 128,-1,20
 292 627 292 627 305 627 c 256,21,22
 318 627 318 627 328.5 614 c 128,-1,23
 339 601 339 601 339 580 c 0,24,25
 339 548 339 548 326 511.5 c 128,-1,26
 313 475 313 475 279 433 c 1,10,-1
EndSplineSet
Validated: 1048577
EndChar

StartChar: uni01C8
Encoding: 456 456 106
Width: 409
Flags: W
LayerCount: 2
Fore
SplineSet
314 582 m 0,0,1
 301 582 301 582 291 592 c 128,-1,2
 281 602 281 602 281 617 c 256,3,4
 281 632 281 632 290.5 643 c 128,-1,5
 300 654 300 654 314 654 c 256,6,7
 328 654 328 654 338.5 643.5 c 128,-1,8
 349 633 349 633 349 617 c 256,9,10
 349 602 349 602 338.5 592 c 128,-1,11
 328 582 328 582 314 582 c 0,0,1
56 0 m 1,12,-1
 56 638 l 1,13,-1
 111 638 l 1,14,15
 111 628 111 628 106.5 619.5 c 128,-1,16
 102 611 102 611 102 604 c 2,17,-1
 102 43 l 1,18,-1
 251 43 l 1,19,-1
 250 0 l 1,20,-1
 56 0 l 1,12,-1
205 -178 m 0,21,22
 164 -178 164 -178 136.5 -162 c 128,-1,23
 109 -146 109 -146 87 -118 c 1,24,-1
 120 -71 l 1,25,26
 126 -78 126 -78 126 -85 c 128,-1,27
 126 -92 126 -92 131 -101 c 128,-1,28
 136 -110 136 -110 159 -124 c 0,29,30
 169 -130 169 -130 181.5 -132.5 c 128,-1,31
 194 -135 194 -135 207 -135 c 0,32,33
 252 -136 252 -136 278.5 -101.5 c 128,-1,34
 305 -67 305 -67 305 18 c 2,35,-1
 305 424 l 1,36,-1
 173 424 l 1,37,-1
 173 464 l 1,38,-1
 349 464 l 1,39,-1
 349 23 l 2,40,41
 349 -85 349 -85 309.5 -131 c 128,-1,42
 270 -177 270 -177 205 -178 c 0,21,22
EndSplineSet
Validated: 33
EndChar

StartChar: Lslash
Encoding: 321 321 108
Width: 409
Flags: W
LayerCount: 2
Fore
SplineSet
66 0 m 1,0,-1
 66 261 l 1,1,-1
 20 244 l 1,2,-1
 20 288 l 1,3,-1
 66 306 l 1,4,-1
 66 638 l 1,5,-1
 118 638 l 2,6,7
 120 638 120 638 120 636 c 0,8,9
 120 632 120 632 116 626.5 c 128,-1,10
 112 621 112 621 111 603 c 2,11,-1
 111 324 l 1,12,-1
 255 382 l 2,13,14
 266 387 266 387 272 391 c 1,15,-1
 272 344 l 1,16,-1
 111 280 l 1,17,-1
 111 43 l 1,18,-1
 362 43 l 1,19,-1
 362 0 l 1,20,-1
 66 0 l 1,0,-1
EndSplineSet
Validated: 1
EndChar

StartChar: M
Encoding: 77 77 109
Width: 409
GlyphClass: 2
Flags: W
AnchorPoint: "Anchor-2" 205 0 basechar 0
AnchorPoint: "Anchor-0" 205 638 basechar 0
LayerCount: 2
Fore
SplineSet
40 0 m 1,0,-1
 40 638 l 1,1,-1
 75 638 l 1,2,-1
 205 326 l 1,3,-1
 338 639 l 1,4,-1
 371 639 l 1,5,-1
 371 0 l 1,6,-1
 329 0 l 1,7,-1
 329 513 l 1,8,-1
 212 249 l 1,9,-1
 193 249 l 1,10,-1
 82 511 l 1,11,-1
 82 0 l 1,12,-1
 40 0 l 1,0,-1
EndSplineSet
Validated: 1048577
EndChar

StartChar: N
Encoding: 78 78 111
Width: 409
GlyphClass: 2
Flags: W
AnchorPoint: "Anchor-2" 205 0 basechar 0
AnchorPoint: "Anchor-0" 205 638 basechar 0
LayerCount: 2
Fore
SplineSet
47 638 m 1,0,-1
 90 638 l 1,1,-1
 317 128 l 1,2,-1
 317 638 l 1,3,-1
 369 638 l 1,4,-1
 369 631 l 1,5,6
 363 627 363 627 361 619.5 c 128,-1,7
 359 612 359 612 360 596 c 2,8,-1
 360 0 l 1,9,-1
 326 0 l 1,10,-1
 90 531 l 1,11,-1
 90 0 l 1,12,-1
 47 0 l 1,13,-1
 47 638 l 1,0,-1
EndSplineSet
Validated: 1048577
EndChar

StartChar: Eng
Encoding: 330 330 117
Width: 409
GlyphClass: 2
Flags: W
AnchorPoint: "Anchor-2" 205 0 basechar 0
AnchorPoint: "Anchor-0" 205 638 basechar 0
LayerCount: 2
Fore
SplineSet
317 638 m 1,0,-1
 367 638 l 1,1,2
 367 634 367 634 363.5 629 c 128,-1,3
 360 624 360 624 360 613 c 2,4,-1
 360 0 l 2,5,6
 360 -98 360 -98 329 -141 c 128,-1,7
 298 -184 298 -184 239 -184 c 0,8,9
 203 -184 203 -184 174 -163 c 1,10,-1
 197 -119 l 1,11,12
 204 -122 204 -122 207.5 -127.5 c 128,-1,13
 211 -133 211 -133 218 -137 c 128,-1,14
 225 -141 225 -141 244 -141 c 0,15,16
 284 -141 284 -141 300 -104 c 128,-1,17
 316 -67 316 -67 317 18 c 1,18,-1
 90 531 l 1,19,-1
 90 0 l 1,20,-1
 48 0 l 1,21,-1
 48 638 l 1,22,-1
 91 638 l 1,23,-1
 317 128 l 1,24,-1
 317 638 l 1,0,-1
EndSplineSet
Validated: 1048577
EndChar

StartChar: O
Encoding: 79 79 120
Width: 409
GlyphClass: 2
Flags: W
AnchorPoint: "Anchor-4" 205 319 basechar 0
AnchorPoint: "Anchor-3" 234 8 basechar 0
AnchorPoint: "Anchor-2" 205 0 basechar 0
AnchorPoint: "Anchor-1" 310 598 basechar 0
AnchorPoint: "Anchor-0" 205 638 basechar 0
LayerCount: 2
Fore
SplineSet
205 -11 m 0,0,1
 119 -11 119 -11 74 67.5 c 128,-1,2
 29 146 29 146 29 315 c 0,3,4
 29 479 29 479 74 560.5 c 128,-1,5
 119 642 119 642 205 642 c 0,6,7
 290 642 290 642 335.5 560.5 c 128,-1,8
 381 479 381 479 381 315 c 0,9,10
 381 146 381 146 335.5 67.5 c 128,-1,11
 290 -11 290 -11 205 -11 c 0,0,1
205 31 m 256,12,13
 267 31 267 31 301.5 98.5 c 128,-1,14
 336 166 336 166 336 315 c 0,15,16
 336 458 336 458 301.5 529 c 128,-1,17
 267 600 267 600 205 600 c 256,18,19
 143 600 143 600 108.5 529.5 c 128,-1,20
 74 459 74 459 74 315 c 0,21,22
 74 165 74 165 108.5 98 c 128,-1,23
 143 31 143 31 205 31 c 256,12,13
EndSplineSet
Validated: 1
Substitution2: "Single Substitution lookup 29 subtable" ordmasculine
Substitution2: "'aalt' Access All Alternates in Latin lookup 0 subtable" ordmasculine
EndChar

StartChar: Oslash
Encoding: 216 216 148
Width: 409
GlyphClass: 2
Flags: W
AnchorPoint: "Anchor-4" 205 319 basechar 0
AnchorPoint: "Anchor-3" 234 8 basechar 0
AnchorPoint: "Anchor-2" 205 0 basechar 0
AnchorPoint: "Anchor-1" 310 598 basechar 0
AnchorPoint: "Anchor-0" 205 638 basechar 0
LayerCount: 2
Fore
SplineSet
71 -41 m 1,0,-1
 42 -27 l 1,1,-1
 78 60 l 1,2,3
 53 100 53 100 41 163.5 c 128,-1,4
 29 227 29 227 29 315 c 0,5,6
 29 479 29 479 74 560.5 c 128,-1,7
 119 642 119 642 205 642 c 0,8,9
 265 642 265 642 305 602 c 1,10,-1
 344 694 l 1,11,-1
 372 679 l 1,12,-1
 328 573 l 1,13,14
 381 491 381 491 381 315 c 0,15,16
 381 146 381 146 335.5 67.5 c 128,-1,17
 290 -11 290 -11 205 -11 c 0,18,19
 142 -11 142 -11 100 31 c 1,20,-1
 71 -41 l 1,0,-1
74 315 m 0,21,22
 74 248 74 248 81 199 c 128,-1,23
 88 150 88 150 101 115 c 1,24,-1
 286 556 l 1,25,26
 254 600 254 600 205 600 c 0,27,28
 143 600 143 600 108.5 529 c 128,-1,29
 74 458 74 458 74 315 c 0,21,22
205 31 m 0,30,31
 267 31 267 31 301.5 98.5 c 128,-1,32
 336 166 336 166 336 315 c 0,33,34
 336 448 336 448 305 520 c 1,35,-1
 120 77 l 1,36,37
 152 31 152 31 205 31 c 0,30,31
EndSplineSet
Validated: 1
EndChar

StartChar: OE
Encoding: 338 338 154
Width: 409
Flags: W
LayerCount: 2
Fore
SplineSet
138 -7 m 0,0,1
 98 -7 98 -7 70 24.5 c 128,-1,2
 42 56 42 56 26.5 128 c 128,-1,3
 11 200 11 200 11 319 c 0,4,5
 11 495 11 495 44 571 c 128,-1,6
 77 647 77 647 139 647 c 0,7,8
 158 647 158 647 178 638 c 128,-1,9
 198 629 198 629 211 605 c 1,10,-1
 211 639 l 1,11,-1
 394 639 l 1,12,-1
 394 597 l 1,13,-1
 254 597 l 1,14,-1
 254 354 l 1,15,-1
 374 354 l 1,16,-1
 374 311 l 1,17,-1
 254 311 l 1,18,-1
 254 42 l 1,19,-1
 392 42 l 1,20,-1
 392 0 l 1,21,-1
 211 0 l 1,22,-1
 211 33 l 1,23,24
 183 -7 183 -7 138 -7 c 0,0,1
144 35 m 0,25,26
 168 35 168 35 186 55.5 c 128,-1,27
 204 76 204 76 211 111 c 1,28,-1
 211 520 l 1,29,30
 203 559 203 559 184.5 582.5 c 128,-1,31
 166 606 166 606 138 606 c 0,32,33
 113 606 113 606 94.5 579 c 128,-1,34
 76 552 76 552 65 489 c 128,-1,35
 54 426 54 426 54 321 c 0,36,37
 54 174 54 174 77.5 104.5 c 128,-1,38
 101 35 101 35 144 35 c 0,25,26
EndSplineSet
Validated: 1
EndChar

StartChar: P
Encoding: 80 80 155
Width: 409
GlyphClass: 2
Flags: W
AnchorPoint: "Anchor-2" 75 0 basechar 0
AnchorPoint: "Anchor-0" 205 638 basechar 0
LayerCount: 2
Fore
SplineSet
54 0 m 1,0,-1
 54 638 l 1,1,-1
 207 638 l 2,2,3
 289 638 289 638 328.5 591.5 c 128,-1,4
 368 545 368 545 368 464 c 0,5,6
 368 384 368 384 327.5 338 c 128,-1,7
 287 292 287 292 211 292 c 2,8,-1
 99 292 l 1,9,-1
 99 0 l 1,10,-1
 54 0 l 1,0,-1
99 334 m 1,11,-1
 205 334 l 2,12,13
 266 334 266 334 294.5 368.5 c 128,-1,14
 323 403 323 403 323 463 c 0,15,16
 323 524 323 524 294.5 559.5 c 128,-1,17
 266 595 266 595 205 595 c 2,18,-1
 99 595 l 1,19,-1
 99 334 l 1,11,-1
EndSplineSet
Validated: 1048577
EndChar

StartChar: Thorn
Encoding: 222 222 156
Width: 409
Flags: W
LayerCount: 2
Fore
SplineSet
52 0 m 1,0,-1
 52 638 l 1,1,-1
 103 638 l 2,2,3
 105 637 105 637 105 635 c 0,4,5
 105 632 105 632 101.5 626 c 128,-1,6
 98 620 98 620 97 610 c 2,7,-1
 97 506 l 1,8,-1
 212 506 l 2,9,10
 294 506 294 506 333.5 458 c 128,-1,11
 373 410 373 410 373 338 c 256,12,13
 373 266 373 266 334 219.5 c 128,-1,14
 295 173 295 173 212 173 c 2,15,-1
 97 173 l 1,16,-1
 97 0 l 1,17,-1
 52 0 l 1,0,-1
97 214 m 1,18,-1
 212 214 l 2,19,20
 274 214 274 214 301 249 c 128,-1,21
 328 284 328 284 328 336 c 256,22,23
 328 388 328 388 300 425.5 c 128,-1,24
 272 463 272 463 206 463 c 2,25,-1
 97 463 l 1,26,-1
 97 214 l 1,18,-1
EndSplineSet
Validated: 1
EndChar

StartChar: Q
Encoding: 81 81 157
Width: 409
GlyphClass: 2
Flags: W
AnchorPoint: "Anchor-2" 205 0 basechar 0
AnchorPoint: "Anchor-0" 205 638 basechar 0
LayerCount: 2
Fore
SplineSet
329 -139 m 2,0,1
 275 -141 275 -141 245 -130 c 128,-1,2
 215 -119 215 -119 202.5 -89 c 128,-1,3
 190 -59 190 -59 190 -7 c 1,4,5
 147 0 147 0 111 35 c 128,-1,6
 75 70 75 70 52.5 139 c 128,-1,7
 30 208 30 208 30 315 c 0,8,9
 30 411 30 411 45.5 475.5 c 128,-1,10
 61 540 61 540 87 576.5 c 128,-1,11
 113 613 113 613 144 629 c 128,-1,12
 175 645 175 645 206 645 c 0,13,14
 253 645 253 645 293 613.5 c 128,-1,15
 333 582 333 582 356.5 510 c 128,-1,16
 380 438 380 438 379 318 c 0,17,18
 379 163 379 163 340 84.5 c 128,-1,19
 301 6 301 6 229 -7 c 1,20,21
 231 -55 231 -55 245 -75.5 c 128,-1,22
 259 -96 259 -96 298 -97 c 2,23,-1
 362 -93 l 1,24,-1
 360 -139 l 1,25,-1
 329 -139 l 2,0,1
210 35 m 0,26,27
 262 35 262 35 299 100.5 c 128,-1,28
 336 166 336 166 336 305 c 0,29,30
 336 417 336 417 318 482 c 128,-1,31
 300 547 300 547 270.5 575 c 128,-1,32
 241 603 241 603 206 603 c 0,33,34
 148 603 148 603 111 535 c 128,-1,35
 74 467 74 467 74 330 c 0,36,37
 74 182 74 182 112 108.5 c 128,-1,38
 150 35 150 35 210 35 c 0,26,27
EndSplineSet
Validated: 1048609
EndChar

StartChar: R
Encoding: 82 82 158
Width: 409
GlyphClass: 2
Flags: W
AnchorPoint: "Anchor-2" 205 0 basechar 0
AnchorPoint: "Anchor-0" 205 638 basechar 0
LayerCount: 2
Fore
SplineSet
53 0 m 1,0,-1
 53 638 l 1,1,-1
 195 638 l 2,2,3
 282 638 282 638 320.5 591.5 c 128,-1,4
 359 545 359 545 359 463 c 0,5,6
 359 400 359 400 328 354 c 128,-1,7
 297 308 297 308 250 296 c 1,8,-1
 373 0 l 1,9,-1
 326 0 l 1,10,-1
 203 293 l 1,11,-1
 98 293 l 1,12,-1
 98 0 l 1,13,-1
 53 0 l 1,0,-1
98 335 m 1,14,-1
 201 335 l 2,15,16
 258 335 258 335 286 369.5 c 128,-1,17
 314 404 314 404 314 463 c 0,18,19
 314 525 314 525 287 560 c 128,-1,20
 260 595 260 595 201 595 c 2,21,-1
 98 595 l 1,22,-1
 98 335 l 1,14,-1
EndSplineSet
Validated: 1048577
EndChar

StartChar: S
Encoding: 83 83 166
Width: 409
GlyphClass: 2
Flags: W
AnchorPoint: "Anchor-2" 202 0 basechar 0
AnchorPoint: "Anchor-0" 214 638 basechar 0
LayerCount: 2
Fore
SplineSet
206 -10 m 0,0,1
 109 -10 109 -10 49 67 c 1,2,-1
 74 112 l 1,3,-1
 78 120 l 1,4,-1
 84 117 l 1,5,6
 85 110 85 110 86.5 101 c 128,-1,7
 88 92 88 92 98 79 c 0,8,9
 118 57 118 57 146.5 44.5 c 128,-1,10
 175 32 175 32 210 33 c 0,11,12
 261 33 261 33 291.5 68 c 128,-1,13
 322 103 322 103 322 163 c 0,14,15
 322 193 322 193 313 216.5 c 128,-1,16
 304 240 304 240 278.5 262 c 128,-1,17
 253 284 253 284 203 310 c 0,18,19
 129 346 129 346 97.5 390.5 c 128,-1,20
 66 435 66 435 66 488 c 0,21,22
 66 565 66 565 105 605.5 c 128,-1,23
 144 646 144 646 215 646 c 0,24,25
 256 646 256 646 291 626.5 c 128,-1,26
 326 607 326 607 349 571 c 1,27,-1
 326 534 l 1,28,-1
 321 525 l 1,29,-1
 315 529 l 1,30,31
 314 536 314 536 312.5 544.5 c 128,-1,32
 311 553 311 553 301 567 c 0,33,34
 283 587 283 587 260.5 596 c 128,-1,35
 238 605 238 605 207 606 c 0,36,37
 163 606 163 606 137 576.5 c 128,-1,38
 111 547 111 547 111 494 c 0,39,40
 111 464 111 464 121.5 439.5 c 128,-1,41
 132 415 132 415 160 392 c 128,-1,42
 188 369 188 369 243 341 c 0,43,44
 311 307 311 307 338.5 266 c 128,-1,45
 366 225 366 225 366 172 c 0,46,47
 366 123 366 123 349 81.5 c 128,-1,48
 332 40 332 40 296 15 c 128,-1,49
 260 -10 260 -10 206 -10 c 0,0,1
EndSplineSet
Validated: 1048609
EndChar

StartChar: uni1E9E
Encoding: 7838 7838 177
Width: 409
Flags: W
LayerCount: 2
Fore
SplineSet
233 -10 m 0,0,1
 183 -10 183 -10 146 20 c 1,2,-1
 164 57 l 1,3,4
 178 45 178 45 195.5 39 c 128,-1,5
 213 33 213 33 228 33 c 0,6,7
 275 33 275 33 305 70.5 c 128,-1,8
 335 108 335 108 335 191 c 0,9,10
 335 256 335 256 305 297 c 128,-1,11
 275 338 275 338 201 338 c 2,12,-1
 176 338 l 1,13,-1
 176 378 l 1,14,-1
 298 511 l 1,15,16
 298 547 298 547 289 577.5 c 128,-1,17
 280 608 280 608 259.5 626.5 c 128,-1,18
 239 645 239 645 203 645 c 0,19,20
 174 645 174 645 148.5 630.5 c 128,-1,21
 123 616 123 616 107.5 581.5 c 128,-1,22
 92 547 92 547 92 486 c 2,23,-1
 92 0 l 1,24,-1
 47 0 l 1,25,-1
 47 473 l 2,26,27
 47 556 47 556 69 602 c 128,-1,28
 91 648 91 648 126.5 666.5 c 128,-1,29
 162 685 162 685 202 685 c 0,30,31
 276 685 276 685 309 634 c 128,-1,32
 342 583 342 583 342 504 c 1,33,-1
 222 377 l 1,34,35
 378 363 378 363 378 183 c 0,36,37
 378 82 378 82 336 36 c 128,-1,38
 294 -10 294 -10 233 -10 c 0,0,1
EndSplineSet
Validated: 1
EndChar

StartChar: T
Encoding: 84 84 179
Width: 409
GlyphClass: 2
Flags: W
AnchorPoint: "Anchor-4" 200 319 basechar 0
AnchorPoint: "Anchor-2" 205 0 basechar 0
AnchorPoint: "Anchor-0" 205 638 basechar 0
LayerCount: 2
Fore
SplineSet
177 0 m 1,0,-1
 177 597 l 1,1,-1
 27 597 l 1,2,-1
 27 639 l 1,3,-1
 379 639 l 1,4,-1
 379 597 l 1,5,-1
 222 597 l 1,6,-1
 222 0 l 1,7,-1
 177 0 l 1,0,-1
EndSplineSet
Validated: 1048577
EndChar

StartChar: Tbar
Encoding: 358 358 180
Width: 409
GlyphClass: 2
Flags: W
AnchorPoint: "Anchor-4" 200 319 basechar 0
AnchorPoint: "Anchor-2" 205 0 basechar 0
AnchorPoint: "Anchor-0" 205 638 basechar 0
LayerCount: 2
Fore
SplineSet
177 0 m 1,0,-1
 177 297 l 1,1,-1
 75 297 l 1,2,-1
 75 338 l 1,3,-1
 177 338 l 1,4,-1
 177 597 l 1,5,-1
 27 597 l 1,6,-1
 27 639 l 1,7,-1
 379 639 l 1,8,-1
 379 597 l 1,9,-1
 222 597 l 1,10,-1
 222 338 l 1,11,-1
 338 338 l 1,12,-1
 338 297 l 1,13,-1
 222 297 l 1,14,-1
 222 0 l 1,15,-1
 177 0 l 1,0,-1
EndSplineSet
Validated: 1048577
EndChar

StartChar: U
Encoding: 85 85 186
Width: 409
GlyphClass: 2
Flags: W
AnchorPoint: "Anchor-3" 246 8 basechar 0
AnchorPoint: "Anchor-2" 205 0 basechar 0
AnchorPoint: "Anchor-1" 372 638 basechar 0
AnchorPoint: "Anchor-0" 205 638 basechar 0
LayerCount: 2
Fore
SplineSet
206 -11 m 0,0,1
 123 -11 123 -11 85.5 46 c 128,-1,2
 48 103 48 103 48 212 c 2,3,-1
 48 638 l 1,4,-1
 101 638 l 1,5,-1
 101 631 l 1,6,7
 95 627 95 627 93.5 619.5 c 128,-1,8
 92 612 92 612 93 596 c 2,9,-1
 93 211 l 2,10,11
 93 123 93 123 119 76.5 c 128,-1,12
 145 30 145 30 207 30 c 256,13,14
 268 30 268 30 295 76.5 c 128,-1,15
 322 123 322 123 322 214 c 2,16,-1
 322 638 l 1,17,-1
 365 638 l 1,18,-1
 365 215 l 2,19,20
 365 95 365 95 324.5 42 c 128,-1,21
 284 -11 284 -11 206 -11 c 0,0,1
EndSplineSet
Validated: 1048577
EndChar

StartChar: V
Encoding: 86 86 209
Width: 409
GlyphClass: 2
Flags: W
AnchorPoint: "Anchor-2" 205 0 basechar 0
AnchorPoint: "Anchor-0" 205 638 basechar 0
LayerCount: 2
Fore
SplineSet
196 -4 m 1,0,-1
 27 639 l 1,1,-1
 73 639 l 1,2,-1
 210 111 l 1,3,-1
 343 638 l 1,4,-1
 386 638 l 1,5,-1
 220 -4 l 1,6,-1
 196 -4 l 1,0,-1
EndSplineSet
Validated: 1048577
EndChar

StartChar: W
Encoding: 87 87 210
Width: 409
GlyphClass: 2
Flags: W
AnchorPoint: "Anchor-2" 209 0 basechar 0
AnchorPoint: "Anchor-0" 213 638 basechar 0
LayerCount: 2
Fore
SplineSet
103 0 m 1,0,-1
 22 638 l 1,1,-1
 63 638 l 1,2,-1
 122 163 l 1,3,-1
 204 591 l 1,4,-1
 223 591 l 1,5,-1
 299 165 l 1,6,-1
 354 638 l 1,7,-1
 393 638 l 1,8,-1
 311 0 l 1,9,-1
 292 0 l 1,10,-1
 211 456 l 1,11,-1
 125 0 l 1,12,-1
 103 0 l 1,0,-1
EndSplineSet
Validated: 1048577
EndChar

StartChar: X
Encoding: 88 88 215
Width: 409
GlyphClass: 2
Flags: W
AnchorPoint: "Anchor-2" 205 0 basechar 0
AnchorPoint: "Anchor-0" 205 638 basechar 0
LayerCount: 2
Fore
SplineSet
40 0 m 1,0,-1
 179 327 l 1,1,-1
 43 639 l 1,2,-1
 89 639 l 1,3,-1
 205 379 l 1,4,-1
 318 639 l 1,5,-1
 361 639 l 1,6,-1
 230 328 l 1,7,-1
 378 0 l 1,8,-1
 330 0 l 1,9,-1
 205 274 l 1,10,-1
 86 0 l 1,11,-1
 40 0 l 1,0,-1
EndSplineSet
Validated: 1048577
EndChar

StartChar: Y
Encoding: 89 89 216
Width: 409
GlyphClass: 2
Flags: W
AnchorPoint: "Anchor-2" 211 0 basechar 0
AnchorPoint: "Anchor-0" 205 638 basechar 0
LayerCount: 2
Fore
SplineSet
188 0 m 1,0,-1
 188 264 l 1,1,-1
 31 638 l 1,2,-1
 79 638 l 1,3,-1
 212 326 l 1,4,-1
 335 638 l 1,5,-1
 380 638 l 1,6,-1
 234 264 l 1,7,-1
 234 0 l 1,8,-1
 188 0 l 1,0,-1
EndSplineSet
Validated: 1048577
EndChar

StartChar: Z
Encoding: 90 90 226
Width: 409
GlyphClass: 2
Flags: W
AnchorPoint: "Anchor-2" 221 0 basechar 0
AnchorPoint: "Anchor-0" 213 638 basechar 0
LayerCount: 2
Fore
SplineSet
47 33 m 1,0,-1
 310 596 l 1,1,-1
 57 596 l 1,2,-1
 57 638 l 1,3,-1
 360 638 l 1,4,-1
 360 604 l 1,5,-1
 100 42 l 1,6,-1
 329 42 l 2,7,8
 345 42 345 42 352.5 44 c 128,-1,9
 360 46 360 46 367 52 c 1,10,-1
 374 52 l 1,11,-1
 374 0 l 1,12,-1
 47 0 l 1,13,-1
 47 33 l 1,0,-1
EndSplineSet
Validated: 1048577
EndChar

StartChar: U.i
Encoding: 65537 -1 231
Width: 409
GlyphClass: 2
Flags: W
AnchorPoint: "Anchor-3" 369 10 basechar 0
AnchorPoint: "Anchor-2" 205 0 basechar 0
AnchorPoint: "Anchor-1" 330 638 basechar 0
AnchorPoint: "Anchor-0" 205 638 basechar 0
LayerCount: 2
Fore
SplineSet
185 -11 m 0,0,1
 111 -11 111 -11 77 46 c 128,-1,2
 43 103 43 103 43 212 c 2,3,-1
 43 638 l 1,4,-1
 91 638 l 1,5,-1
 91 631 l 1,6,7
 86 627 86 627 84.5 619.5 c 128,-1,8
 83 612 83 612 83 596 c 2,9,-1
 83 211 l 2,10,11
 83 123 83 123 107 76.5 c 128,-1,12
 131 30 131 30 185 30 c 0,13,14
 241 30 241 30 265 76.5 c 128,-1,15
 289 123 289 123 289 214 c 2,16,-1
 289 638 l 1,17,-1
 329 638 l 1,18,-1
 329 215 l 2,19,20
 329 95 329 95 292 42 c 128,-1,21
 255 -11 255 -11 185 -11 c 0,0,1
EndSplineSet
Validated: 1048577
EndChar

StartChar: a
Encoding: 97 97 232
Width: 409
GlyphClass: 2
Flags: W
AnchorPoint: "Anchor-3" 321 0 basechar 0
AnchorPoint: "Anchor-2" 198 0 basechar 0
AnchorPoint: "Anchor-0" 205 465 basechar 0
LayerCount: 2
Fore
SplineSet
172 -11 m 0,0,1
 113 -11 113 -11 81 27 c 128,-1,2
 49 65 49 65 49 121 c 0,3,4
 49 175 49 175 72.5 209 c 128,-1,5
 96 243 96 243 136.5 258 c 128,-1,6
 177 273 177 273 227 273 c 0,7,8
 245 273 245 273 269.5 271.5 c 128,-1,9
 294 270 294 270 316 267 c 1,10,11
 314 359 314 359 288 396 c 128,-1,12
 262 433 262 433 201 433 c 0,13,14
 144 433 144 433 96 382 c 1,15,-1
 74 415 l 1,16,17
 128 474 128 474 203 474 c 0,18,19
 255 474 255 474 289.5 453.5 c 128,-1,20
 324 433 324 433 340.5 383.5 c 128,-1,21
 357 334 357 334 357 248 c 2,22,-1
 357 0 l 1,23,-1
 312 0 l 1,24,-1
 312 90 l 1,25,26
 295 38 295 38 257 13.5 c 128,-1,27
 219 -11 219 -11 172 -11 c 0,0,1
92 122 m 0,28,29
 92 77 92 77 114 52.5 c 128,-1,30
 136 28 136 28 177 28 c 0,31,32
 245 28 245 28 280 83 c 128,-1,33
 315 138 315 138 317 228 c 1,34,35
 297 232 297 232 274 234 c 128,-1,36
 251 236 251 236 232 236 c 0,37,38
 166 236 166 236 129 210 c 128,-1,39
 92 184 92 184 92 122 c 0,28,29
EndSplineSet
Validated: 1048577
Substitution2: "Single Substitution lookup 29 subtable" ordfeminine
Substitution2: "'aalt' Access All Alternates in Latin lookup 0 subtable" ordfeminine
EndChar

StartChar: ae
Encoding: 230 230 257
Width: 409
Flags: W
LayerCount: 2
Fore
SplineSet
116 -11 m 0,0,1
 63 -11 63 -11 38.5 28 c 128,-1,2
 14 67 14 67 14 125 c 0,3,4
 14 198 14 198 55.5 233 c 128,-1,5
 97 268 97 268 187 273 c 1,6,7
 187 353 187 353 170 394 c 128,-1,8
 153 435 153 435 115 435 c 0,9,10
 96 435 96 435 79 424 c 128,-1,11
 62 413 62 413 51 395 c 1,12,-1
 29 425 l 1,13,14
 45 449 45 449 67 462 c 128,-1,15
 89 475 89 475 119 475 c 0,16,17
 153 475 153 475 176.5 451.5 c 128,-1,18
 200 428 200 428 210 391 c 1,19,20
 220 426 220 426 245 450.5 c 128,-1,21
 270 475 270 475 298 475 c 0,22,23
 353 475 353 475 374.5 424.5 c 128,-1,24
 396 374 396 374 396 273 c 2,25,-1
 396 243 l 1,26,-1
 226 236 l 1,27,-1
 226 178 l 2,28,29
 226 112 226 112 250 70.5 c 128,-1,30
 274 29 274 29 312 29 c 0,31,32
 336 29 336 29 351.5 40 c 128,-1,33
 367 51 367 51 377 67 c 1,34,-1
 399 38 l 1,35,36
 385 15 385 15 362.5 2 c 128,-1,37
 340 -11 340 -11 311 -11 c 0,38,39
 275 -11 275 -11 246 15 c 128,-1,40
 217 41 217 41 207 79 c 1,41,42
 198 40 198 40 174.5 14.5 c 128,-1,43
 151 -11 151 -11 116 -11 c 0,0,1
226 274 m 1,44,-1
 357 280 l 1,45,46
 357 357 357 357 345 396 c 128,-1,47
 333 435 333 435 298 435 c 0,48,49
 266 435 266 435 246 392 c 128,-1,50
 226 349 226 349 226 274 c 1,44,-1
119 30 m 0,51,52
 148 30 148 30 162.5 57.5 c 128,-1,53
 177 85 177 85 181.5 131 c 128,-1,54
 186 177 186 177 186 232 c 1,55,56
 112 227 112 227 83.5 204 c 128,-1,57
 55 181 55 181 55 124 c 0,58,59
 55 75 55 75 71.5 52.5 c 128,-1,60
 88 30 88 30 119 30 c 0,51,52
EndSplineSet
Validated: 1
EndChar

StartChar: b
Encoding: 98 98 259
Width: 409
GlyphClass: 2
Flags: W
AnchorPoint: "Anchor-2" 230 0 basechar 0
AnchorPoint: "Anchor-0" 230 468 basechar 0
LayerCount: 2
Fore
SplineSet
216 -11 m 0,0,1
 170 -11 170 -11 139.5 18 c 128,-1,2
 109 47 109 47 96 80 c 1,3,-1
 85 0 l 1,4,-1
 53 0 l 1,5,-1
 53 681 l 1,6,-1
 104 681 l 1,7,-1
 104 674 l 1,8,9
 99 670 99 670 98 662.5 c 128,-1,10
 97 655 97 655 97 639 c 2,11,-1
 97 379 l 1,12,13
 113 422 113 422 146.5 448.5 c 128,-1,14
 180 475 180 475 222 475 c 0,15,16
 285 475 285 475 328.5 418.5 c 128,-1,17
 372 362 372 362 372 237 c 0,18,19
 372 144 372 144 350 89.5 c 128,-1,20
 328 35 328 35 292 12 c 128,-1,21
 256 -11 256 -11 216 -11 c 0,0,1
213 32 m 0,22,23
 243 32 243 32 269 49 c 128,-1,24
 295 66 295 66 311.5 109.5 c 128,-1,25
 328 153 328 153 328 232 c 0,26,27
 328 340 328 340 295.5 386.5 c 128,-1,28
 263 433 263 433 217 433 c 0,29,30
 186 433 186 433 158.5 412.5 c 128,-1,31
 131 392 131 392 114 347.5 c 128,-1,32
 97 303 97 303 97 230 c 0,33,34
 97 155 97 155 113 112 c 128,-1,35
 129 69 129 69 155.5 50.5 c 128,-1,36
 182 32 182 32 213 32 c 0,22,23
EndSplineSet
Validated: 1048577
EndChar

StartChar: uni0298
Encoding: 664 664 260
Width: 409
GlyphClass: 2
Flags: W
AnchorPoint: "Anchor-4" 205 319 basechar 0
AnchorPoint: "Anchor-3" 234 8 basechar 0
AnchorPoint: "Anchor-2" 205 0 basechar 0
AnchorPoint: "Anchor-1" 310 598 basechar 0
AnchorPoint: "Anchor-0" 215 321 basechar 0
LayerCount: 2
Fore
SplineSet
205 -11 m 0,0,1
 119 -11 119 -11 74 67.5 c 128,-1,2
 29 146 29 146 29 315 c 0,3,4
 29 479 29 479 74 560.5 c 128,-1,5
 119 642 119 642 205 642 c 0,6,7
 290 642 290 642 335.5 560.5 c 128,-1,8
 381 479 381 479 381 315 c 0,9,10
 381 146 381 146 335.5 67.5 c 128,-1,11
 290 -11 290 -11 205 -11 c 0,0,1
205 31 m 256,12,13
 267 31 267 31 301.5 98.5 c 128,-1,14
 336 166 336 166 336 315 c 0,15,16
 336 458 336 458 301.5 529 c 128,-1,17
 267 600 267 600 205 600 c 256,18,19
 143 600 143 600 108.5 529.5 c 128,-1,20
 74 459 74 459 74 315 c 0,21,22
 74 165 74 165 108.5 98 c 128,-1,23
 143 31 143 31 205 31 c 256,12,13
214 288 m 0,24,25
 203 288 203 288 194 297 c 128,-1,26
 185 306 185 306 185 319 c 256,27,28
 185 332 185 332 193.5 341.5 c 128,-1,29
 202 351 202 351 214 351 c 256,30,31
 226 351 226 351 235.5 342 c 128,-1,32
 245 333 245 333 245 319 c 256,33,34
 245 306 245 306 235.5 297 c 128,-1,35
 226 288 226 288 214 288 c 0,24,25
EndSplineSet
Validated: 1
EndChar

StartChar: c
Encoding: 99 99 261
Width: 409
GlyphClass: 2
Flags: W
AnchorPoint: "Anchor-2" 233 0 basechar 0
AnchorPoint: "Anchor-0" 233 468 basechar 0
LayerCount: 2
Fore
SplineSet
229 -11 m 0,0,1
 146 -11 146 -11 98.5 55 c 128,-1,2
 51 121 51 121 51 233 c 0,3,4
 51 313 51 313 75 366.5 c 128,-1,5
 99 420 99 420 139.5 446.5 c 128,-1,6
 180 473 180 473 230 473 c 0,7,8
 327 473 327 473 371 398 c 1,9,-1
 345 369 l 1,10,-1
 339 361 l 1,11,-1
 334 367 l 1,12,13
 335 374 335 374 332 381 c 128,-1,14
 329 388 329 388 318 401 c 0,15,16
 301 417 301 417 280 425 c 128,-1,17
 259 433 259 433 226 433 c 0,18,19
 192 433 192 433 162 412 c 128,-1,20
 132 391 132 391 113.5 347.5 c 128,-1,21
 95 304 95 304 95 237 c 0,22,23
 95 138 95 138 132.5 84.5 c 128,-1,24
 170 31 170 31 233 31 c 0,25,26
 263 31 263 31 291 45 c 128,-1,27
 319 59 319 59 341 87 c 1,28,-1
 365 52 l 1,29,30
 338 20 338 20 303.5 4.5 c 128,-1,31
 269 -11 269 -11 229 -11 c 0,0,1
EndSplineSet
Validated: 1048577
EndChar

StartChar: d
Encoding: 100 100 268
Width: 409
GlyphClass: 2
Flags: W
AnchorPoint: "Anchor-4" 295 562 basechar 0
AnchorPoint: "Anchor-2" 205 0 basechar 0
AnchorPoint: "Anchor-1" 385 468 basechar 0
AnchorPoint: "Anchor-0" 205 466 basechar 0
LayerCount: 2
Fore
SplineSet
197 -10 m 0,0,1
 157 -10 157 -10 121.5 14 c 128,-1,2
 86 38 86 38 63.5 92 c 128,-1,3
 41 146 41 146 41 238 c 0,4,5
 41 327 41 327 64 378.5 c 128,-1,6
 87 430 87 430 123 453 c 128,-1,7
 159 476 159 476 199 476 c 0,8,9
 242 476 242 476 272.5 449 c 128,-1,10
 303 422 303 422 314 381 c 1,11,-1
 314 681 l 1,12,-1
 365 681 l 1,13,-1
 365 674 l 1,14,15
 359 670 359 670 357 662.5 c 128,-1,16
 355 655 355 655 356 639 c 2,17,-1
 356 73 l 2,18,19
 356 55 356 55 357 36.5 c 128,-1,20
 358 18 358 18 365 0 c 1,21,-1
 323 0 l 1,22,23
 317 16 317 16 315 39 c 128,-1,24
 313 62 313 62 313 81 c 1,25,26
 300 44 300 44 270.5 17 c 128,-1,27
 241 -10 241 -10 197 -10 c 0,0,1
203 32 m 0,28,29
 313 32 313 32 312 237 c 0,30,31
 312 342 312 342 279 388 c 128,-1,32
 246 434 246 434 201 434 c 0,33,34
 150 434 150 434 117.5 390 c 128,-1,35
 85 346 85 346 85 247 c 0,36,37
 85 167 85 167 100.5 120.5 c 128,-1,38
 116 74 116 74 143 53 c 128,-1,39
 170 32 170 32 203 32 c 0,28,29
EndSplineSet
Validated: 1048609
EndChar

StartChar: eth
Encoding: 240 240 269
Width: 409
Flags: W
LayerCount: 2
Fore
SplineSet
210 -12 m 0,0,1
 162 -12 162 -12 123 15 c 128,-1,2
 84 42 84 42 60.5 96 c 128,-1,3
 37 150 37 150 37 228 c 0,4,5
 37 308 37 308 59.5 363 c 128,-1,6
 82 418 82 418 118.5 446 c 128,-1,7
 155 474 155 474 199 474 c 0,8,9
 274 474 274 474 314 412 c 1,10,11
 303 450 303 450 284 492 c 128,-1,12
 265 534 265 534 236 571 c 1,13,-1
 129 537 l 1,14,-1
 116 570 l 1,15,-1
 211 601 l 1,16,17
 194 620 194 620 175 640 c 128,-1,18
 156 660 156 660 132 674 c 1,19,-1
 178 688 l 1,20,21
 196 676 196 676 216 655 c 128,-1,22
 236 634 236 634 252 614 c 1,23,-1
 343 644 l 1,24,-1
 355 611 l 1,25,-1
 275 585 l 1,26,27
 321 519 321 519 347 440.5 c 128,-1,28
 373 362 373 362 373 259 c 0,29,30
 373 119 373 119 332 53.5 c 128,-1,31
 291 -12 291 -12 210 -12 c 0,0,1
210 29 m 0,32,33
 265 29 265 29 297 78 c 128,-1,34
 329 127 329 127 329 246 c 0,35,36
 329 313 329 313 310 354 c 128,-1,37
 291 395 291 395 262 414.5 c 128,-1,38
 233 434 233 434 205 434 c 0,39,40
 155 434 155 434 118.5 386 c 128,-1,41
 82 338 82 338 82 232 c 0,42,43
 82 130 82 130 119.5 79.5 c 128,-1,44
 157 29 157 29 210 29 c 0,32,33
EndSplineSet
Validated: 1
EndChar

StartChar: dcaron
Encoding: 271 271 270
Width: 409
Flags: W
LayerCount: 2
Fore
SplineSet
356 682 m 256,0,1
 370 682 370 682 378.5 669 c 128,-1,2
 387 656 387 656 387 635 c 0,3,4
 387 601 387 601 375.5 561.5 c 128,-1,5
 364 522 364 522 337 478 c 1,6,-1
 314 496 l 1,7,8
 330 523 330 523 339.5 544.5 c 128,-1,9
 349 566 349 566 349 588 c 0,10,11
 349 600 349 600 343.5 606.5 c 128,-1,12
 338 613 338 613 332.5 622 c 128,-1,13
 327 631 327 631 327 646 c 0,14,15
 327 659 327 659 334.5 670.5 c 128,-1,16
 342 682 342 682 356 682 c 256,0,1
157 -9 m 256,17,18
 124 -9 124 -9 96 12.5 c 128,-1,19
 68 34 68 34 50.5 87.5 c 128,-1,20
 33 141 33 141 33 239 c 0,21,22
 33 330 33 330 50 381.5 c 128,-1,23
 67 433 67 433 95 454.5 c 128,-1,24
 123 476 123 476 157 476 c 0,25,26
 194 476 194 476 217 450.5 c 128,-1,27
 240 425 240 425 248 387 c 1,28,-1
 248 681 l 1,29,-1
 295 681 l 1,30,-1
 295 674 l 1,31,32
 289 670 289 670 288 662.5 c 128,-1,33
 287 655 287 655 287 639 c 2,34,-1
 287 73 l 2,35,36
 287 55 287 55 288 36.5 c 128,-1,37
 289 18 289 18 294 0 c 1,38,-1
 255 0 l 1,39,40
 250 14 250 14 248.5 34.5 c 128,-1,41
 247 55 247 55 247 74 c 1,42,43
 237 37 237 37 213.5 14 c 128,-1,44
 190 -9 190 -9 157 -9 c 256,17,18
163 33 m 0,45,46
 202 33 202 33 224.5 80 c 128,-1,47
 247 127 247 127 247 237 c 0,48,49
 247 346 247 346 221 390 c 128,-1,50
 195 434 195 434 161 434 c 0,51,52
 121 434 121 434 97 392.5 c 128,-1,53
 73 351 73 351 73 249 c 0,54,55
 73 163 73 163 85.5 116 c 128,-1,56
 98 69 98 69 118.5 51 c 128,-1,57
 139 33 139 33 163 33 c 0,45,46
EndSplineSet
Validated: 1
EndChar

StartChar: e
Encoding: 101 101 274
Width: 409
GlyphClass: 2
Flags: W
AnchorPoint: "Anchor-3" 263 10 basechar 0
AnchorPoint: "Anchor-2" 232 0 basechar 0
AnchorPoint: "Anchor-0" 212 468 basechar 0
LayerCount: 2
Fore
SplineSet
220 -10 m 0,0,1
 139 -10 139 -10 92.5 49 c 128,-1,2
 46 108 46 108 46 231 c 0,3,4
 46 357 46 357 92 416 c 128,-1,5
 138 475 138 475 210 475 c 0,6,7
 276 475 276 475 317.5 426 c 128,-1,8
 359 377 359 377 359 262 c 0,9,10
 359 247 359 247 358 231 c 1,11,-1
 89 231 l 1,12,13
 91 122 91 122 126 76 c 128,-1,14
 161 30 161 30 221 30 c 0,15,16
 256 30 256 30 280.5 45 c 128,-1,17
 305 60 305 60 324 86 c 1,18,-1
 350 59 l 1,19,20
 326 26 326 26 294 8 c 128,-1,21
 262 -10 262 -10 220 -10 c 0,0,1
91 270 m 1,22,-1
 314 270 l 1,23,24
 314 356 314 356 286 396.5 c 128,-1,25
 258 437 258 437 209 437 c 0,26,27
 158 437 158 437 127 397 c 128,-1,28
 96 357 96 357 91 270 c 1,22,-1
EndSplineSet
Validated: 1048577
EndChar

StartChar: uni029A
Encoding: 666 666 296
Width: 409
Flags: W
LayerCount: 2
Fore
SplineSet
198 -6 m 0,0,1
 128 -5 128 -5 85 37.5 c 128,-1,2
 42 80 42 80 42 147 c 0,3,4
 42 189 42 189 66 219.5 c 128,-1,5
 90 250 90 250 124 258 c 1,6,7
 96 272 96 272 82 298 c 128,-1,8
 68 324 68 324 68 352 c 0,9,10
 68 410 68 410 108 442 c 128,-1,11
 148 474 148 474 206 474 c 0,12,13
 284 474 284 474 327 411 c 128,-1,14
 370 348 370 348 370 233 c 0,15,16
 370 119 370 119 324 56 c 128,-1,17
 278 -7 278 -7 198 -6 c 0,0,1
197 35 m 0,18,19
 258 35 258 35 291 84.5 c 128,-1,20
 324 134 324 134 324 234 c 0,21,22
 324 331 324 331 293 382 c 128,-1,23
 262 433 262 433 203 433 c 0,24,25
 163 433 163 433 138.5 411 c 128,-1,26
 114 389 114 389 114 350 c 0,27,28
 114 333 114 333 121 315 c 128,-1,29
 128 297 128 297 146.5 285 c 128,-1,30
 165 273 165 273 200 273 c 0,31,32
 204 273 204 273 208.5 273 c 128,-1,33
 213 273 213 273 218 274 c 1,34,-1
 218 229 l 1,35,36
 212 230 212 230 206 231 c 128,-1,37
 200 232 200 232 193 232 c 0,38,39
 142 232 142 232 115.5 207 c 128,-1,40
 89 182 89 182 89 142 c 0,41,42
 89 92 89 92 119 63.5 c 128,-1,43
 149 35 149 35 197 35 c 0,18,19
EndSplineSet
Validated: 33
EndChar

StartChar: uni0259
Encoding: 601 601 298
Width: 409
GlyphClass: 2
Flags: W
AnchorPoint: "Anchor-3" 146 454 basechar 0
AnchorPoint: "Anchor-2" 198 -4 basechar 0
AnchorPoint: "Anchor-0" 177 464 basechar 0
LayerCount: 2
Fore
SplineSet
189 474 m 0,0,1
 270 474 270 474 317 415 c 128,-1,2
 364 356 364 356 364 232 c 0,3,4
 364 106 364 106 317.5 47.5 c 128,-1,5
 271 -11 271 -11 200 -11 c 0,6,7
 134 -11 134 -11 92 38 c 128,-1,8
 50 87 50 87 50 202 c 0,9,10
 50 217 50 217 52 232 c 1,11,-1
 321 232 l 1,12,13
 319 341 319 341 284 387.5 c 128,-1,14
 249 434 249 434 188 434 c 0,15,16
 153 434 153 434 128.5 418.5 c 128,-1,17
 104 403 104 403 86 378 c 1,18,-1
 60 404 l 1,19,20
 83 437 83 437 115 455.5 c 128,-1,21
 147 474 147 474 189 474 c 0,0,1
318 194 m 1,22,-1
 95 194 l 1,23,24
 95 108 95 108 123.5 67.5 c 128,-1,25
 152 27 152 27 201 27 c 0,26,27
 252 27 252 27 282.5 67 c 128,-1,28
 313 107 313 107 318 194 c 1,22,-1
EndSplineSet
Validated: 1048577
EndChar

StartChar: f
Encoding: 102 102 300
Width: 409
Flags: W
LayerCount: 2
Fore
SplineSet
134 423 m 1,0,-1
 46 423 l 1,1,-1
 46 461 l 1,2,-1
 134 461 l 1,3,-1
 134 505 l 2,4,5
 134 599 134 599 170.5 643 c 128,-1,6
 207 687 207 687 267 687 c 0,7,8
 302 687 302 687 335 671 c 128,-1,9
 368 655 368 655 388 623 c 1,10,-1
 365 590 l 1,11,-1
 358 582 l 1,12,-1
 353 587 l 1,13,14
 353 593 353 593 350.5 600.5 c 128,-1,15
 348 608 348 608 338 622 c 0,16,17
 309 649 309 649 268 648 c 0,18,19
 226 648 226 648 201.5 615.5 c 128,-1,20
 177 583 177 583 177 505 c 2,21,-1
 177 461 l 1,22,-1
 306 461 l 1,23,-1
 306 423 l 1,24,-1
 177 423 l 1,25,-1
 177 0 l 1,26,-1
 134 0 l 1,27,-1
 134 423 l 1,0,-1
EndSplineSet
Validated: 33
EndChar

StartChar: g
Encoding: 103 103 301
Width: 409
GlyphClass: 2
Flags: W
AnchorPoint: "Anchor-2" 202 -166 basechar 0
AnchorPoint: "Anchor-0" 187 468 basechar 0
LayerCount: 2
Fore
SplineSet
190 157 m 0,0,1
 155 157 155 157 129 174 c 1,2,3
 117 161 117 161 112.5 150.5 c 128,-1,4
 108 140 108 140 108 127 c 0,5,6
 108 95 108 95 138 84 c 128,-1,7
 168 73 168 73 232 73 c 0,8,9
 310 73 310 73 337.5 44 c 128,-1,10
 365 15 365 15 365 -36 c 0,11,12
 365 -73 365 -73 349 -104.5 c 128,-1,13
 333 -136 333 -136 297.5 -156 c 128,-1,14
 262 -176 262 -176 205 -176 c 0,15,16
 123 -176 123 -176 81 -145 c 128,-1,17
 39 -114 39 -114 39 -56 c 0,18,19
 39 -14 39 -14 56.5 13 c 128,-1,20
 74 40 74 40 98 55 c 1,21,22
 68 75 68 75 69 114 c 0,23,24
 69 137 69 137 78.5 155.5 c 128,-1,25
 88 174 88 174 105 194 c 1,26,27
 64 238 64 238 65 318 c 0,28,29
 65 387 65 387 98.5 432 c 128,-1,30
 132 477 132 477 190 477 c 0,31,32
 221 477 221 477 245 464.5 c 128,-1,33
 269 452 269 452 286 429 c 1,34,35
 305 454 305 454 328 464.5 c 128,-1,36
 351 475 351 475 383 472 c 1,37,-1
 386 431 l 1,38,39
 360 434 360 434 339.5 427.5 c 128,-1,40
 319 421 319 421 302 401 c 1,41,42
 317 364 317 364 317 318 c 0,43,44
 317 245 317 245 283.5 201 c 128,-1,45
 250 157 250 157 190 157 c 0,0,1
190 198 m 0,46,47
 232 198 232 198 255.5 229.5 c 128,-1,48
 279 261 279 261 279 317 c 0,49,50
 279 370 279 370 255 403.5 c 128,-1,51
 231 437 231 437 190 437 c 0,52,53
 150 437 150 437 126.5 403.5 c 128,-1,54
 103 370 103 370 103 318 c 0,55,56
 103 260 103 260 127 229 c 128,-1,57
 151 198 151 198 190 198 c 0,46,47
82 -50 m 0,58,59
 82 -136 82 -136 205 -136 c 0,60,61
 267 -137 267 -137 294.5 -110 c 128,-1,62
 322 -83 322 -83 323 -45 c 0,63,64
 323 -5 323 -5 304.5 13 c 128,-1,65
 286 31 286 31 221 31 c 0,66,67
 192 31 192 31 168 33.5 c 128,-1,68
 144 36 144 36 125 43 c 1,69,70
 105 26 105 26 93.5 5 c 128,-1,71
 82 -16 82 -16 82 -50 c 0,58,59
EndSplineSet
Validated: 1048609
EndChar

StartChar: h
Encoding: 104 104 308
Width: 409
GlyphClass: 2
Flags: W
AnchorPoint: "Anchor-4" 106 562 basechar 0
AnchorPoint: "Anchor-2" 205 0 basechar 0
AnchorPoint: "Anchor-0" 96 681 basechar 0
LayerCount: 2
Fore
SplineSet
63 681 m 1,0,-1
 114 681 l 1,1,-1
 114 674 l 1,2,3
 109 670 109 670 107 662.5 c 128,-1,4
 105 655 105 655 105 639 c 2,5,-1
 105 373 l 1,6,7
 127 420 127 420 161.5 447 c 128,-1,8
 196 474 196 474 237 474 c 0,9,10
 273 474 273 474 298.5 456.5 c 128,-1,11
 324 439 324 439 337.5 397 c 128,-1,12
 351 355 351 355 351 282 c 2,13,-1
 351 0 l 1,14,-1
 308 0 l 1,15,-1
 308 280 l 2,16,17
 308 365 308 365 288.5 398.5 c 128,-1,18
 269 432 269 432 227 432 c 0,19,20
 197 432 197 432 169 410 c 128,-1,21
 141 388 141 388 123 350.5 c 128,-1,22
 105 313 105 313 105 267 c 2,23,-1
 105 0 l 1,24,-1
 63 0 l 1,25,-1
 63 681 l 1,0,-1
EndSplineSet
Validated: 1048577
EndChar

StartChar: dotlessi
Encoding: 305 305 314
Width: 409
GlyphClass: 2
Flags: W
AnchorPoint: "Anchor-3" 284 0 basechar 0
AnchorPoint: "Anchor-2" 205 0 basechar 0
AnchorPoint: "Anchor-0" 205 466 basechar 0
LayerCount: 2
Fore
SplineSet
84 0 m 1,0,-1
 84 40 l 1,1,-1
 186 40 l 1,2,-1
 186 424 l 1,3,-1
 88 424 l 1,4,-1
 88 464 l 1,5,-1
 229 464 l 1,6,-1
 229 40 l 1,7,-1
 324 40 l 1,8,-1
 324 0 l 1,9,-1
 84 0 l 1,0,-1
EndSplineSet
Validated: 1048577
EndChar

StartChar: uni0237
Encoding: 567 567 330
Width: 409
GlyphClass: 2
Flags: W
AnchorPoint: "Anchor-2" 211 -195 basechar 0
AnchorPoint: "Anchor-0" 273 466 basechar 0
LayerCount: 2
Fore
SplineSet
159 -178 m 0,0,1
 123 -178 123 -178 91.5 -164 c 128,-1,2
 60 -150 60 -150 38 -121 c 1,3,-1
 63 -83 l 1,4,-1
 69 -76 l 1,5,-1
 74 -80 l 1,6,7
 74 -86 74 -86 76.5 -93 c 128,-1,8
 79 -100 79 -100 89 -113 c 0,9,10
 120 -138 120 -138 159 -137 c 0,11,12
 257 -137 257 -137 257 14 c 2,13,-1
 257 424 l 1,14,-1
 100 424 l 1,15,-1
 100 464 l 1,16,-1
 301 464 l 1,17,-1
 301 18 l 2,18,19
 301 -178 301 -178 159 -178 c 0,0,1
EndSplineSet
Validated: 1048609
EndChar

StartChar: k
Encoding: 107 107 332
Width: 409
GlyphClass: 2
Flags: W
AnchorPoint: "Anchor-2" 206 0 basechar 0
AnchorPoint: "Anchor-0" 86 681 basechar 0
LayerCount: 2
Fore
SplineSet
160 245 m 1,0,-1
 106 184 l 1,1,-1
 105 0 l 1,2,-1
 61 0 l 1,3,-1
 61 681 l 1,4,-1
 114 681 l 1,5,-1
 114 674 l 1,6,7
 108 670 108 670 106 662.5 c 128,-1,8
 104 655 104 655 105 639 c 2,9,-1
 105 240 l 1,10,-1
 312 466 l 1,11,12
 325 462 325 462 346 462 c 2,13,-1
 360 462 l 1,14,-1
 191 276 l 1,15,-1
 384 0 l 1,16,-1
 333 -4 l 1,17,-1
 160 245 l 1,0,-1
EndSplineSet
Validated: 1048577
EndChar

StartChar: kgreenlandic
Encoding: 312 312 334
Width: 409
GlyphClass: 2
Flags: W
AnchorPoint: "Anchor-2" 205 0 basechar 0
AnchorPoint: "Anchor-0" 85 468 basechar 0
LayerCount: 2
Fore
SplineSet
160 245 m 1,0,-1
 106 184 l 1,1,-1
 105 0 l 1,2,-1
 61 0 l 1,3,-1
 61 464 l 1,4,-1
 114 464 l 1,5,-1
 114 457 l 1,6,7
 108 453 108 453 106 445.5 c 128,-1,8
 104 438 104 438 105 422 c 2,9,-1
 105 240 l 1,10,-1
 312 466 l 1,11,12
 325 462 325 462 346 462 c 2,13,-1
 360 462 l 1,14,-1
 191 276 l 1,15,-1
 384 0 l 1,16,-1
 333 -4 l 1,17,-1
 160 245 l 1,0,-1
EndSplineSet
Validated: 1048577
EndChar

StartChar: l
Encoding: 108 108 335
Width: 409
GlyphClass: 2
Flags: W
AnchorPoint: "Anchor-4" 205 234 basechar 0
AnchorPoint: "Anchor-2" 205 0 basechar 0
AnchorPoint: "Anchor-1" 393 468 basechar 0
AnchorPoint: "Anchor-0" 205 681 basechar 0
LayerCount: 2
Fore
SplineSet
68 0 m 1,0,-1
 68 40 l 1,1,-1
 184 40 l 1,2,-1
 184 641 l 1,3,-1
 73 641 l 1,4,-1
 73 681 l 1,5,-1
 227 681 l 1,6,-1
 227 40 l 1,7,-1
 342 40 l 1,8,-1
 342 0 l 1,9,-1
 68 0 l 1,0,-1
EndSplineSet
Validated: 1048577
EndChar

StartChar: ldot
Encoding: 320 320 339
Width: 409
Flags: W
LayerCount: 2
Fore
SplineSet
59 0 m 1,0,-1
 60 40 l 1,1,-1
 160 40 l 1,2,-1
 160 641 l 1,3,-1
 65 641 l 1,4,-1
 65 681 l 1,5,-1
 204 681 l 1,6,-1
 204 40 l 1,7,-1
 333 40 l 1,8,-1
 333 0 l 1,9,-1
 59 0 l 1,0,-1
318 297 m 256,10,11
 302 297 302 297 291 309.5 c 128,-1,12
 280 322 280 322 280 338 c 0,13,14
 280 355 280 355 291.5 367 c 128,-1,15
 303 379 303 379 318 379 c 256,16,17
 333 379 333 379 345 367 c 128,-1,18
 357 355 357 355 357 338 c 0,19,20
 357 322 357 322 345.5 309.5 c 128,-1,21
 334 297 334 297 318 297 c 256,10,11
EndSplineSet
Validated: 1
EndChar

StartChar: uni01C9
Encoding: 457 457 341
Width: 409
Flags: W
LayerCount: 2
Fore
SplineSet
14 0 m 1,0,-1
 14 40 l 1,1,-1
 78 40 l 1,2,-1
 78 641 l 1,3,-1
 19 641 l 1,4,-1
 19 681 l 1,5,-1
 122 681 l 1,6,-1
 122 40 l 1,7,-1
 230 40 l 1,8,-1
 230 0 l 1,9,-1
 14 0 l 1,0,-1
314 583 m 0,10,11
 301 583 301 583 291 593 c 128,-1,12
 281 603 281 603 281 618 c 256,13,14
 281 633 281 633 290.5 644 c 128,-1,15
 300 655 300 655 314 655 c 256,16,17
 328 655 328 655 338.5 644.5 c 128,-1,18
 349 634 349 634 349 618 c 256,19,20
 349 603 349 603 338.5 593 c 128,-1,21
 328 583 328 583 314 583 c 0,10,11
201 -177 m 0,22,23
 162 -177 162 -177 132 -161 c 128,-1,24
 102 -145 102 -145 81 -117 c 1,25,-1
 113 -73 l 1,26,27
 119 -81 119 -81 120 -88.5 c 128,-1,28
 121 -96 121 -96 128 -105 c 128,-1,29
 135 -114 135 -114 161 -126 c 0,30,31
 170 -131 170 -131 182 -133 c 128,-1,32
 194 -135 194 -135 205 -135 c 0,33,34
 249 -135 249 -135 274.5 -100 c 128,-1,35
 300 -65 300 -65 300 18 c 2,36,-1
 300 424 l 1,37,-1
 173 424 l 1,38,-1
 173 464 l 1,39,-1
 344 464 l 1,40,-1
 344 23 l 2,41,42
 344 -88 344 -88 305 -132 c 128,-1,43
 266 -176 266 -176 201 -177 c 0,22,23
EndSplineSet
Validated: 1
EndChar

StartChar: lslash
Encoding: 322 322 343
Width: 409
Flags: W
LayerCount: 2
Fore
SplineSet
68 0 m 1,0,-1
 69 40 l 1,1,-1
 183 40 l 1,2,-1
 183 301 l 1,3,-1
 115 271 l 1,4,-1
 115 317 l 1,5,-1
 183 347 l 1,6,-1
 183 641 l 1,7,-1
 73 641 l 1,8,-1
 73 681 l 1,9,-1
 227 681 l 1,10,-1
 227 365 l 1,11,-1
 306 401 l 1,12,-1
 306 353 l 1,13,-1
 227 318 l 1,14,-1
 227 40 l 1,15,-1
 341 40 l 1,16,-1
 341 0 l 1,17,-1
 68 0 l 1,0,-1
EndSplineSet
Validated: 1
EndChar

StartChar: m
Encoding: 109 109 344
Width: 409
GlyphClass: 2
Flags: W
AnchorPoint: "Anchor-2" 205 0 basechar 0
AnchorPoint: "Anchor-0" 230 468 basechar 0
LayerCount: 2
Fore
SplineSet
35 0 m 1,0,-1
 35 464 l 1,1,-1
 78 464 l 1,2,-1
 78 413 l 1,3,4
 90 441 90 441 110 458 c 128,-1,5
 130 475 130 475 155 475 c 256,6,7
 180 475 180 475 198 456.5 c 128,-1,8
 216 438 216 438 221 399 c 1,9,10
 233 434 233 434 255.5 454.5 c 128,-1,11
 278 475 278 475 307 475 c 0,12,13
 342 475 342 475 361.5 444.5 c 128,-1,14
 381 414 381 414 380 356 c 2,15,-1
 380 0 l 1,16,-1
 338 0 l 1,17,-1
 338 337 l 2,18,19
 338 399 338 399 326 418.5 c 128,-1,20
 314 438 314 438 297 438 c 0,21,22
 279 438 279 438 263.5 419 c 128,-1,23
 248 400 248 400 238.5 373 c 128,-1,24
 229 346 229 346 229 319 c 2,25,-1
 229 0 l 1,26,-1
 186 0 l 1,27,-1
 186 330 l 2,28,29
 186 393 186 393 176 415 c 128,-1,30
 166 437 166 437 141 437 c 0,31,32
 129 437 129 437 114 423.5 c 128,-1,33
 99 410 99 410 88 383.5 c 128,-1,34
 77 357 77 357 77 321 c 2,35,-1
 77 0 l 1,36,-1
 35 0 l 1,0,-1
EndSplineSet
Validated: 1048609
EndChar

StartChar: n
Encoding: 110 110 346
Width: 409
GlyphClass: 2
Flags: W
AnchorPoint: "Anchor-2" 213 0 basechar 0
AnchorPoint: "Anchor-0" 217 468 basechar 0
LayerCount: 2
Fore
SplineSet
63 0 m 1,0,-1
 63 464 l 1,1,-1
 105 464 l 1,2,-1
 105 373 l 1,3,4
 124 422 124 422 159.5 448 c 128,-1,5
 195 474 195 474 239 474 c 0,6,7
 271 474 271 474 296.5 457 c 128,-1,8
 322 440 322 440 336.5 398.5 c 128,-1,9
 351 357 351 357 351 282 c 2,10,-1
 351 0 l 1,11,-1
 308 0 l 1,12,-1
 308 280 l 2,13,14
 308 365 308 365 287 398.5 c 128,-1,15
 266 432 266 432 227 432 c 0,16,17
 194 432 194 432 166.5 410.5 c 128,-1,18
 139 389 139 389 122 351.5 c 128,-1,19
 105 314 105 314 105 267 c 2,20,-1
 105 0 l 1,21,-1
 63 0 l 1,0,-1
EndSplineSet
Validated: 1048577
EndChar

StartChar: eng
Encoding: 331 331 352
Width: 409
Flags: W
LayerCount: 2
Fore
SplineSet
214 -179 m 0,0,1
 170 -179 170 -179 139 -150 c 1,2,-1
 163 -106 l 1,3,4
 168 -107 168 -107 170 -115 c 128,-1,5
 172 -123 172 -123 181 -129.5 c 128,-1,6
 190 -136 190 -136 216 -136 c 0,7,8
 259 -136 259 -136 282.5 -91 c 128,-1,9
 306 -46 306 -46 306 46 c 2,10,-1
 306 281 l 2,11,12
 306 341 306 341 295.5 374.5 c 128,-1,13
 285 408 285 408 266.5 421 c 128,-1,14
 248 434 248 434 225 434 c 0,15,16
 194 434 194 434 167 411 c 128,-1,17
 140 388 140 388 123 350 c 128,-1,18
 106 312 106 312 106 268 c 2,19,-1
 106 0 l 1,20,-1
 62 0 l 1,21,-1
 62 464 l 1,22,-1
 106 464 l 1,23,-1
 106 373 l 1,24,25
 125 421 125 421 159.5 448.5 c 128,-1,26
 194 476 194 476 232 476 c 0,27,28
 264 476 264 476 290.5 458.5 c 128,-1,29
 317 441 317 441 333 399 c 128,-1,30
 349 357 349 357 349 283 c 2,31,-1
 349 58 l 2,32,33
 349 -71 349 -71 311.5 -125 c 128,-1,34
 274 -179 274 -179 214 -179 c 0,0,1
EndSplineSet
Validated: 1
EndChar

StartChar: o
Encoding: 111 111 355
Width: 409
GlyphClass: 2
Flags: W
AnchorPoint: "Anchor-4" 205 234 basechar 0
AnchorPoint: "Anchor-3" 234 8 basechar 0
AnchorPoint: "Anchor-2" 205 0 basechar 0
AnchorPoint: "Anchor-1" 294 446 basechar 0
AnchorPoint: "Anchor-0" 205 468 basechar 0
LayerCount: 2
Fore
SplineSet
205 -8 m 0,0,1
 128 -8 128 -8 83.5 53 c 128,-1,2
 39 114 39 114 39 232 c 0,3,4
 39 352 39 352 83.5 413 c 128,-1,5
 128 474 128 474 205 474 c 0,6,7
 283 474 283 474 327 413 c 128,-1,8
 371 352 371 352 371 232 c 0,9,10
 371 113 371 113 327 52.5 c 128,-1,11
 283 -8 283 -8 205 -8 c 0,0,1
205 33 m 256,12,13
 262 33 262 33 294 83.5 c 128,-1,14
 326 134 326 134 326 233 c 0,15,16
 326 334 326 334 293 383.5 c 128,-1,17
 260 433 260 433 205 434 c 0,18,19
 149 434 149 434 117 384 c 128,-1,20
 85 334 85 334 85 233 c 0,21,22
 85 134 85 134 116.5 83.5 c 128,-1,23
 148 33 148 33 205 33 c 256,12,13
EndSplineSet
Validated: 1
Substitution2: "Single Substitution lookup 29 subtable" ordmasculine
Substitution2: "'aalt' Access All Alternates in Latin lookup 0 subtable" ordmasculine
EndChar

StartChar: oslash
Encoding: 248 248 383
Width: 409
GlyphClass: 2
Flags: W
AnchorPoint: "Anchor-4" 205 234 basechar 0
AnchorPoint: "Anchor-3" 234 8 basechar 0
AnchorPoint: "Anchor-2" 205 0 basechar 0
AnchorPoint: "Anchor-1" 294 446 basechar 0
AnchorPoint: "Anchor-0" 205 468 basechar 0
LayerCount: 2
Fore
SplineSet
92 -56 m 1,0,-1
 61 -42 l 1,1,-1
 96 37 l 1,2,3
 68 67 68 67 53.5 116 c 128,-1,4
 39 165 39 165 39 232 c 0,5,6
 39 352 39 352 83.5 413 c 128,-1,7
 128 474 128 474 205 474 c 0,8,9
 248 474 248 474 281 456 c 1,10,-1
 313 528 l 1,11,-1
 344 513 l 1,12,-1
 309 434 l 1,13,14
 339 404 339 404 355 354 c 128,-1,15
 371 304 371 304 371 232 c 0,16,17
 371 113 371 113 327 52.5 c 128,-1,18
 283 -8 283 -8 205 -8 c 0,19,20
 158 -8 158 -8 123 14 c 1,21,-1
 92 -56 l 1,0,-1
84 233 m 0,22,23
 84 134 84 134 117 83 c 1,24,-1
 263 416 l 1,25,26
 238 433 238 433 205 434 c 0,27,28
 149 434 149 434 117 383.5 c 128,-1,29
 85 333 85 333 84 233 c 0,22,23
205 33 m 0,30,31
 262 33 262 33 294 83.5 c 128,-1,32
 326 134 326 134 326 233 c 0,33,34
 326 286 326 286 316 325.5 c 128,-1,35
 306 365 306 365 290 389 c 1,36,-1
 141 54 l 1,37,38
 168 33 168 33 205 33 c 0,30,31
EndSplineSet
Validated: 1
EndChar

StartChar: oe
Encoding: 339 339 389
Width: 409
Flags: W
LayerCount: 2
Fore
SplineSet
305 -12 m 0,0,1
 271 -12 271 -12 247.5 2 c 128,-1,2
 224 16 224 16 209 38 c 1,3,4
 195 16 195 16 175 2.5 c 128,-1,5
 155 -11 155 -11 126 -11 c 0,6,7
 99 -11 99 -11 72.5 9 c 128,-1,8
 46 29 46 29 28 82 c 128,-1,9
 10 135 10 135 10 233 c 0,10,11
 10 325 10 325 26.5 377.5 c 128,-1,12
 43 430 43 430 70.5 452 c 128,-1,13
 98 474 98 474 132 474 c 0,14,15
 158 474 158 474 176.5 460.5 c 128,-1,16
 195 447 195 447 209 424 c 1,17,18
 241 474 241 474 292 474 c 0,19,20
 340 474 340 474 368 431.5 c 128,-1,21
 396 389 396 389 396 290 c 2,22,-1
 396 237 l 1,23,-1
 210 237 l 1,24,25
 212 119 212 119 234.5 73.5 c 128,-1,26
 257 28 257 28 300 27 c 0,27,28
 325 27 325 27 345 39 c 128,-1,29
 365 51 365 51 379 73 c 1,30,-1
 400 43 l 1,31,32
 359 -12 359 -12 305 -12 c 0,0,1
211 276 m 1,33,-1
 358 276 l 1,34,35
 357 363 357 363 341.5 399.5 c 128,-1,36
 326 436 326 436 286 436 c 0,37,38
 251 436 251 436 231 394 c 128,-1,39
 211 352 211 352 211 276 c 1,33,-1
133 30 m 0,40,41
 152 30 152 30 167.5 47.5 c 128,-1,42
 183 65 183 65 183 87 c 0,43,44
 183 92 183 92 180 111 c 0,45,46
 174 150 174 150 172 181 c 128,-1,47
 170 212 170 212 170 244 c 0,48,49
 170 307 170 307 175.5 338.5 c 128,-1,50
 181 370 181 370 181 376 c 0,51,52
 181 400 181 400 166 416.5 c 128,-1,53
 151 433 151 433 132 433 c 0,54,55
 110 433 110 433 91.5 416 c 128,-1,56
 73 399 73 399 61.5 357.5 c 128,-1,57
 50 316 50 316 50 245 c 0,58,59
 50 126 50 126 72.5 78 c 128,-1,60
 95 30 95 30 133 30 c 0,40,41
EndSplineSet
Validated: 1
EndChar

StartChar: p
Encoding: 112 112 390
Width: 409
GlyphClass: 2
Flags: W
AnchorPoint: "Anchor-2" 221 0 basechar 0
AnchorPoint: "Anchor-0" 221 467 basechar 0
LayerCount: 2
Fore
SplineSet
55 -171 m 1,0,-1
 55 464 l 1,1,-1
 98 464 l 1,2,-1
 98 373 l 1,3,4
 111 420 111 420 144.5 447 c 128,-1,5
 178 474 178 474 223 474 c 0,6,7
 264 474 264 474 298 451 c 128,-1,8
 332 428 332 428 352 376.5 c 128,-1,9
 372 325 372 325 372 238 c 0,10,11
 372 146 372 146 351.5 91 c 128,-1,12
 331 36 331 36 296 12 c 128,-1,13
 261 -12 261 -12 220 -12 c 0,14,15
 181 -12 181 -12 148 12 c 128,-1,16
 115 36 115 36 98 80 c 1,17,-1
 98 -171 l 1,18,-1
 55 -171 l 1,0,-1
213 30 m 0,19,20
 245 30 245 30 270.5 48 c 128,-1,21
 296 66 296 66 312 110.5 c 128,-1,22
 328 155 328 155 328 234 c 0,23,24
 328 337 328 337 298 384.5 c 128,-1,25
 268 432 268 432 219 433 c 0,26,27
 169 433 169 433 133.5 383.5 c 128,-1,28
 98 334 98 334 98 218 c 0,29,30
 98 143 98 143 116.5 102 c 128,-1,31
 135 61 135 61 161 45.5 c 128,-1,32
 187 30 187 30 213 30 c 0,19,20
EndSplineSet
Validated: 1048577
EndChar

StartChar: thorn
Encoding: 254 254 391
Width: 409
Flags: W
LayerCount: 2
Fore
SplineSet
55 681 m 1,0,-1
 106 681 l 1,1,-1
 106 674 l 1,2,3
 100 670 100 670 98.5 662.5 c 128,-1,4
 97 655 97 655 98 639 c 2,5,-1
 98 373 l 1,6,7
 111 420 111 420 144.5 447 c 128,-1,8
 178 474 178 474 223 474 c 0,9,10
 264 474 264 474 298 451 c 128,-1,11
 332 428 332 428 352 376.5 c 128,-1,12
 372 325 372 325 372 238 c 0,13,14
 372 146 372 146 351.5 91 c 128,-1,15
 331 36 331 36 296 12 c 128,-1,16
 261 -12 261 -12 220 -12 c 0,17,18
 181 -12 181 -12 148 12 c 128,-1,19
 115 36 115 36 98 80 c 1,20,-1
 98 -171 l 1,21,-1
 55 -171 l 1,22,-1
 55 681 l 1,0,-1
213 30 m 0,23,24
 245 30 245 30 270.5 48 c 128,-1,25
 296 66 296 66 312 110.5 c 128,-1,26
 328 155 328 155 328 234 c 0,27,28
 328 337 328 337 298 384.5 c 128,-1,29
 268 432 268 432 219 433 c 0,30,31
 169 433 169 433 133.5 383.5 c 128,-1,32
 98 334 98 334 98 218 c 0,33,34
 98 143 98 143 116.5 102 c 128,-1,35
 135 61 135 61 161 45.5 c 128,-1,36
 187 30 187 30 213 30 c 0,23,24
EndSplineSet
Validated: 1
EndChar

StartChar: q
Encoding: 113 113 392
Width: 409
Flags: W
LayerCount: 2
Fore
SplineSet
313 -171 m 1,0,-1
 313 81 l 1,1,2
 297 39 297 39 268.5 14.5 c 128,-1,3
 240 -10 240 -10 191 -10 c 0,4,5
 122 -10 122 -10 81 55 c 128,-1,6
 40 120 40 120 40 236 c 0,7,8
 40 362 40 362 85 419 c 128,-1,9
 130 476 130 476 198 476 c 0,10,11
 245 476 245 476 275 448 c 128,-1,12
 305 420 305 420 316 379 c 1,13,-1
 316 466 l 1,14,-1
 356 466 l 1,15,-1
 356 -171 l 1,16,-1
 313 -171 l 1,0,-1
199 32 m 0,17,18
 247 32 247 32 279.5 82 c 128,-1,19
 312 132 312 132 312 247 c 0,20,21
 312 316 312 316 297 356.5 c 128,-1,22
 282 397 282 397 256.5 416 c 128,-1,23
 231 435 231 435 202 435 c 0,24,25
 150 435 150 435 117 388 c 128,-1,26
 84 341 84 341 84 239 c 0,27,28
 84 140 84 140 114 86 c 128,-1,29
 144 32 144 32 199 32 c 0,17,18
EndSplineSet
Validated: 1
EndChar

StartChar: r
Encoding: 114 114 393
Width: 409
GlyphClass: 2
Flags: W
AnchorPoint: "Anchor-2" 219 0 basechar 0
AnchorPoint: "Anchor-0" 238 467 basechar 0
LayerCount: 2
Fore
SplineSet
92 464 m 1,0,-1
 139 464 l 1,1,-1
 137 372 l 1,2,3
 153 422 153 422 190.5 448.5 c 128,-1,4
 228 475 228 475 267 475 c 0,5,6
 298 475 298 475 326 462.5 c 128,-1,7
 354 450 354 450 373 424 c 1,8,-1
 354 386 l 1,9,-1
 350 379 l 1,10,-1
 344 382 l 1,11,12
 342 388 342 388 339 395.5 c 128,-1,13
 336 403 336 403 324 415 c 0,14,15
 297 434 297 434 266 434 c 0,16,17
 233 434 233 434 203.5 412.5 c 128,-1,18
 174 391 174 391 155.5 349.5 c 128,-1,19
 137 308 137 308 137 251 c 2,20,-1
 137 -1 l 1,21,-1
 92 -1 l 1,22,-1
 92 464 l 1,0,-1
EndSplineSet
Validated: 1048577
EndChar

StartChar: uni027B
Encoding: 635 635 399
Width: 409
Flags: W
LayerCount: 2
Fore
SplineSet
318 -181 m 0,0,1
 298 -181 298 -181 275 -170.5 c 128,-1,2
 252 -160 252 -160 235.5 -132 c 128,-1,3
 219 -104 219 -104 220 -52 c 2,4,-1
 221 84 l 1,5,6
 206 38 206 38 174 13.5 c 128,-1,7
 142 -11 142 -11 108 -11 c 0,8,9
 81 -11 81 -11 61.5 0 c 128,-1,10
 42 11 42 11 24 35 c 1,11,-1
 42 76 l 1,12,-1
 45 84 l 1,13,-1
 50 82 l 1,14,15
 51 75 51 75 53 67.5 c 128,-1,16
 55 60 55 60 65 50 c 0,17,18
 84 32 84 32 111 32 c 0,19,20
 137 32 137 32 161.5 52 c 128,-1,21
 186 72 186 72 203.5 112.5 c 128,-1,22
 221 153 221 153 221 215 c 2,23,-1
 221 465 l 1,24,-1
 265 465 l 1,25,-1
 265 -52 l 2,26,27
 265 -103 265 -103 284 -120.5 c 128,-1,28
 303 -138 303 -138 326 -138 c 0,29,30
 345 -138 345 -138 361 -127 c 0,31,32
 371 -120 371 -120 372.5 -114 c 128,-1,33
 374 -108 374 -108 380 -103 c 1,34,-1
 395 -145 l 1,35,36
 367 -181 367 -181 318 -181 c 0,0,1
EndSplineSet
Validated: 33
EndChar

StartChar: uni024D
Encoding: 589 589 402
Width: 409
GlyphClass: 2
Flags: W
AnchorPoint: "Anchor-2" 219 0 basechar 0
AnchorPoint: "Anchor-0" 238 467 basechar 0
LayerCount: 2
Fore
SplineSet
31 183 m 1,0,-1
 31 223 l 1,1,-1
 92 223 l 1,2,-1
 92 464 l 1,3,-1
 139 464 l 1,4,-1
 137 372 l 1,5,6
 153 422 153 422 190.5 448.5 c 128,-1,7
 228 475 228 475 267 475 c 0,8,9
 298 475 298 475 326 462.5 c 128,-1,10
 354 450 354 450 373 424 c 1,11,-1
 354 386 l 1,12,-1
 350 379 l 1,13,-1
 344 382 l 1,14,15
 342 388 342 388 339 395.5 c 128,-1,16
 336 403 336 403 324 415 c 0,17,18
 297 434 297 434 266 434 c 0,19,20
 233 434 233 434 203.5 412.5 c 128,-1,21
 174 391 174 391 155.5 349.5 c 128,-1,22
 137 308 137 308 137 251 c 2,23,-1
 137 223 l 1,24,-1
 245 223 l 1,25,-1
 245 183 l 1,26,-1
 137 183 l 1,27,-1
 137 -1 l 1,28,-1
 92 -1 l 1,29,-1
 92 183 l 1,30,-1
 31 183 l 1,0,-1
EndSplineSet
Validated: 1048577
EndChar

StartChar: s
Encoding: 115 115 403
Width: 409
Flags: W
LayerCount: 2
Fore
SplineSet
203 -10 m 0,0,1
 154 -10 154 -10 115.5 6.5 c 128,-1,2
 77 23 77 23 49 52 c 1,3,-1
 74 93 l 1,4,-1
 79 100 l 1,5,-1
 85 96 l 1,6,7
 85 90 85 90 88 82.5 c 128,-1,8
 91 75 91 75 102 63 c 0,9,10
 121 48 121 48 146.5 39 c 128,-1,11
 172 30 172 30 204 30 c 0,12,13
 310 30 310 30 310 121 c 0,14,15
 310 156 310 156 285 178 c 128,-1,16
 260 200 260 200 206 221 c 0,17,18
 145 245 145 245 107.5 276 c 128,-1,19
 70 307 70 307 70 359 c 0,20,21
 70 410 70 410 105.5 442.5 c 128,-1,22
 141 475 141 475 208 475 c 0,23,24
 259 475 259 475 292 459 c 128,-1,25
 325 443 325 443 349 411 c 1,26,-1
 325 376 l 1,27,-1
 318 368 l 1,28,-1
 313 373 l 2,29,30
 312 379 312 379 310 387 c 128,-1,31
 308 395 308 395 298 409 c 0,32,33
 264 438 264 438 210 437 c 0,34,35
 164 437 164 437 139 416.5 c 128,-1,36
 114 396 114 396 114 364 c 0,37,38
 114 328 114 328 139 305.5 c 128,-1,39
 164 283 164 283 225 259 c 0,40,41
 290 233 290 233 321.5 204.5 c 128,-1,42
 353 176 353 176 353 129 c 0,43,44
 353 64 353 64 317 27 c 128,-1,45
 281 -10 281 -10 203 -10 c 0,0,1
EndSplineSet
Validated: 33
EndChar

StartChar: germandbls
Encoding: 223 223 414
Width: 409
Flags: W
LayerCount: 2
Fore
SplineSet
232 -10 m 0,0,1
 182 -10 182 -10 145 18 c 1,2,-1
 167 56 l 1,3,4
 194 31 194 31 231 32 c 0,5,6
 277 32 277 32 306 75.5 c 128,-1,7
 335 119 335 119 335 194 c 0,8,9
 335 256 335 256 303.5 298 c 128,-1,10
 272 340 272 340 201 340 c 2,11,-1
 176 340 l 1,12,-1
 176 380 l 1,13,-1
 205 380 l 2,14,15
 241 380 241 380 269.5 414.5 c 128,-1,16
 298 449 298 449 298 507 c 0,17,18
 298 567 298 567 270.5 605.5 c 128,-1,19
 243 644 243 644 198 644 c 0,20,21
 149 644 149 644 120.5 591.5 c 128,-1,22
 92 539 92 539 92 435 c 2,23,-1
 92 0 l 1,24,-1
 47 0 l 1,25,-1
 47 433 l 2,26,27
 47 567 47 567 88 626 c 128,-1,28
 129 685 129 685 193 685 c 0,29,30
 261 685 261 685 301.5 636.5 c 128,-1,31
 342 588 342 588 342 508 c 0,32,33
 342 460 342 460 322 422 c 128,-1,34
 302 384 302 384 270 366 c 1,35,36
 319 351 319 351 348.5 307 c 128,-1,37
 378 263 378 263 378 185 c 0,38,39
 378 93 378 93 338.5 41.5 c 128,-1,40
 299 -10 299 -10 232 -10 c 0,0,1
EndSplineSet
Validated: 33
EndChar

StartChar: t
Encoding: 116 116 415
Width: 409
GlyphClass: 2
Flags: W
AnchorPoint: "Anchor-4" 172 319 basechar 0
AnchorPoint: "Anchor-2" 214 0 basechar 0
AnchorPoint: "Anchor-1" 252 466 basechar 0
AnchorPoint: "Anchor-0" 196 599 basechar 0
LayerCount: 2
Fore
SplineSet
247 -9 m 0,0,1
 199 -9 199 -9 175 17 c 128,-1,2
 151 43 151 43 144 101 c 128,-1,3
 137 159 137 159 140 254 c 2,4,-1
 144 416 l 1,5,-1
 55 416 l 1,6,-1
 55 456 l 1,7,-1
 146 456 l 1,8,-1
 150 590 l 1,9,-1
 196 597 l 1,10,-1
 205 598 l 1,11,-1
 206 591 l 1,12,13
 201 586 201 586 198 578.5 c 128,-1,14
 195 571 195 571 195 554 c 2,15,-1
 189 456 l 1,16,-1
 329 456 l 1,17,-1
 329 416 l 1,18,-1
 189 416 l 1,19,-1
 183 249 l 2,20,21
 181 167 181 167 185.5 120 c 128,-1,22
 190 73 190 73 206 53 c 128,-1,23
 222 33 222 33 253 33 c 0,24,25
 281 32 281 32 305.5 45.5 c 128,-1,26
 330 59 330 59 350 78 c 1,27,-1
 367 39 l 1,28,29
 338 13 338 13 308.5 2 c 128,-1,30
 279 -9 279 -9 247 -9 c 0,0,1
EndSplineSet
Validated: 1048609
EndChar

StartChar: tbar
Encoding: 359 359 416
Width: 409
GlyphClass: 2
Flags: W
AnchorPoint: "Anchor-4" 172 319 basechar 0
AnchorPoint: "Anchor-2" 214 0 basechar 0
AnchorPoint: "Anchor-1" 252 466 basechar 0
AnchorPoint: "Anchor-0" 196 599 basechar 0
LayerCount: 2
Fore
SplineSet
52 232 m 1,0,-1
 52 273 l 1,1,-1
 140 273 l 1,2,-1
 144 416 l 1,3,-1
 55 416 l 1,4,-1
 55 456 l 1,5,-1
 146 456 l 1,6,-1
 150 590 l 1,7,-1
 196 597 l 1,8,-1
 205 598 l 1,9,-1
 206 591 l 1,10,11
 201 586 201 586 198 578.5 c 128,-1,12
 195 571 195 571 195 554 c 2,13,-1
 189 456 l 1,14,-1
 329 456 l 1,15,-1
 329 416 l 1,16,-1
 189 416 l 1,17,-1
 184 273 l 1,18,-1
 322 273 l 1,19,-1
 322 232 l 1,20,-1
 183 232 l 1,21,22
 181 156 181 156 186 113 c 128,-1,23
 191 70 191 70 207 51.5 c 128,-1,24
 223 33 223 33 253 33 c 0,25,26
 281 32 281 32 305.5 45.5 c 128,-1,27
 330 59 330 59 350 78 c 1,28,-1
 367 39 l 1,29,30
 338 13 338 13 308.5 2 c 128,-1,31
 279 -9 279 -9 247 -9 c 0,32,33
 201 -9 201 -9 177 15 c 128,-1,34
 153 39 153 39 145.5 92 c 128,-1,35
 138 145 138 145 139 232 c 1,36,-1
 52 232 l 1,0,-1
EndSplineSet
Validated: 1048609
EndChar

StartChar: u
Encoding: 117 117 423
Width: 409
GlyphClass: 2
Flags: W
AnchorPoint: "Anchor-3" 315 0 basechar 0
AnchorPoint: "Anchor-2" 187 0 basechar 0
AnchorPoint: "Anchor-1" 352 468 basechar 0
AnchorPoint: "Anchor-0" 204 468 basechar 0
LayerCount: 2
Fore
SplineSet
186 -11 m 0,0,1
 148 -11 148 -11 119 9 c 128,-1,2
 90 29 90 29 74 75 c 128,-1,3
 58 121 58 121 58 202 c 2,4,-1
 59 464 l 1,5,-1
 102 464 l 1,6,-1
 102 202 l 2,7,8
 102 131 102 131 114.5 93.5 c 128,-1,9
 127 56 127 56 148.5 42.5 c 128,-1,10
 170 29 170 29 199 29 c 0,11,12
 243 29 243 29 274.5 72 c 128,-1,13
 306 115 306 115 306 206 c 2,14,-1
 306 464 l 1,15,-1
 350 464 l 1,16,-1
 350 84 l 2,17,18
 350 66 350 66 351 42 c 128,-1,19
 352 18 352 18 358 0 c 1,20,-1
 315 0 l 1,21,22
 309 17 309 17 308 36.5 c 128,-1,23
 307 56 307 56 307 74 c 1,24,25
 292 38 292 38 263.5 13.5 c 128,-1,26
 235 -11 235 -11 186 -11 c 0,0,1
EndSplineSet
Validated: 1048577
EndChar

StartChar: v
Encoding: 118 118 446
Width: 409
GlyphClass: 2
Flags: W
AnchorPoint: "Anchor-2" 206 0 basechar 0
AnchorPoint: "Anchor-0" 206 466 basechar 0
LayerCount: 2
Fore
SplineSet
184 0 m 1,0,-1
 39 464 l 1,1,-1
 84 464 l 1,2,-1
 207 72 l 1,3,-1
 276 274 l 2,4,5
 294 329 294 329 306 376 c 128,-1,6
 318 423 318 423 325 464 c 1,7,-1
 369 464 l 1,8,9
 354 380 354 380 314 263 c 2,10,-1
 225 0 l 1,11,-1
 184 0 l 1,0,-1
EndSplineSet
Validated: 1048577
EndChar

StartChar: w
Encoding: 119 119 447
Width: 409
GlyphClass: 2
Flags: W
AnchorPoint: "Anchor-2" 205 0 basechar 0
AnchorPoint: "Anchor-0" 205 466 basechar 0
LayerCount: 2
Fore
SplineSet
95 -1 m 1,0,-1
 19 464 l 1,1,-1
 60 464 l 1,2,-1
 124 73 l 1,3,-1
 191 408 l 1,4,-1
 225 408 l 1,5,-1
 303 72 l 1,6,7
 323 224 323 224 334.5 316.5 c 128,-1,8
 346 409 346 409 346 449 c 2,9,-1
 346 464 l 1,10,-1
 388 464 l 1,11,12
 376 345 376 345 360 230.5 c 128,-1,13
 344 116 344 116 325 -1 c 1,14,-1
 280 -1 l 1,15,-1
 208 318 l 1,16,-1
 139 -1 l 1,17,-1
 95 -1 l 1,0,-1
EndSplineSet
Validated: 1048577
EndChar

StartChar: x
Encoding: 120 120 452
Width: 409
GlyphClass: 2
Flags: W
AnchorPoint: "Anchor-2" 205 0 basechar 0
AnchorPoint: "Anchor-0" 205 466 basechar 0
LayerCount: 2
Fore
SplineSet
44 0 m 1,0,-1
 179 237 l 1,1,-1
 47 464 l 1,2,-1
 94 464 l 1,3,-1
 204 279 l 1,4,-1
 306 464 l 1,5,-1
 351 464 l 1,6,-1
 227 240 l 1,7,-1
 368 0 l 1,8,-1
 318 0 l 1,9,-1
 204 197 l 1,10,-1
 93 0 l 1,11,-1
 44 0 l 1,0,-1
EndSplineSet
Validated: 1048577
EndChar

StartChar: y
Encoding: 121 121 453
Width: 409
GlyphClass: 2
Flags: W
AnchorPoint: "Anchor-2" 305 0 basechar 0
AnchorPoint: "Anchor-0" 210 466 basechar 0
LayerCount: 2
Fore
SplineSet
104 -178 m 0,0,1
 53 -178 53 -178 20 -138 c 1,2,-1
 41 -103 l 1,3,-1
 46 -96 l 1,4,-1
 52 -99 l 1,5,6
 53 -106 53 -106 56.5 -113 c 128,-1,7
 60 -120 60 -120 74 -131 c 0,8,9
 88 -138 88 -138 108 -138 c 0,10,11
 141 -138 141 -138 159 -106 c 128,-1,12
 177 -74 177 -74 198 -4 c 1,13,-1
 44 464 l 1,14,-1
 90 464 l 1,15,-1
 218 68 l 1,16,-1
 278 282 l 2,17,18
 291 329 291 329 301.5 373 c 128,-1,19
 312 417 312 417 317 464 c 1,20,-1
 362 464 l 1,21,22
 357 417 357 417 344.5 371 c 128,-1,23
 332 325 332 325 318 276 c 2,24,-1
 223 -53 l 2,25,26
 203 -122 203 -122 174 -150 c 128,-1,27
 145 -178 145 -178 104 -178 c 0,0,1
EndSplineSet
Validated: 1048577
EndChar

StartChar: z
Encoding: 122 122 463
Width: 409
GlyphClass: 2
Flags: W
AnchorPoint: "Anchor-2" 215 0 basechar 0
AnchorPoint: "Anchor-0" 215 466 basechar 0
LayerCount: 2
Fore
SplineSet
47 33 m 1,0,-1
 290 422 l 1,1,-1
 65 422 l 1,2,-1
 65 464 l 1,3,-1
 343 464 l 1,4,-1
 343 430 l 1,5,-1
 103 41 l 1,6,-1
 317 41 l 2,7,8
 334 41 334 41 341.5 43 c 128,-1,9
 349 45 349 45 355 51 c 1,10,-1
 362 51 l 1,11,-1
 362 0 l 1,12,-1
 47 0 l 1,13,-1
 47 33 l 1,0,-1
EndSplineSet
Validated: 1048577
EndChar

StartChar: u.i
Encoding: 65539 -1 468
Width: 409
GlyphClass: 2
Flags: W
AnchorPoint: "Anchor-3" 285 0 basechar 0
AnchorPoint: "Anchor-2" 169 0 basechar 0
AnchorPoint: "Anchor-1" 312 464 basechar 0
AnchorPoint: "Anchor-0" 174 464 basechar 0
LayerCount: 2
Fore
SplineSet
160 -11 m 0,0,1
 124 -11 124 -11 96.5 9 c 128,-1,2
 69 29 69 29 53.5 75 c 128,-1,3
 38 121 38 121 39 202 c 2,4,-1
 39 464 l 1,5,-1
 81 464 l 1,6,-1
 81 202 l 2,7,8
 81 131 81 131 92 93.5 c 128,-1,9
 103 56 103 56 123.5 42.5 c 128,-1,10
 144 29 144 29 172 29 c 0,11,12
 214 29 214 29 244 72 c 128,-1,13
 274 115 274 115 274 206 c 2,14,-1
 274 464 l 1,15,-1
 315 464 l 1,16,-1
 315 84 l 2,17,18
 315 66 315 66 316 42 c 128,-1,19
 317 18 317 18 324 0 c 1,20,-1
 283 0 l 1,21,22
 277 17 277 17 275.5 36.5 c 128,-1,23
 274 56 274 56 274 74 c 1,24,25
 260 38 260 38 233 13.5 c 128,-1,26
 206 -11 206 -11 160 -11 c 0,0,1
EndSplineSet
Validated: 1048609
EndChar

StartChar: r.serif
Encoding: 65540 -1 469
Width: 409
Flags: W
LayerCount: 2
Fore
SplineSet
54 -1 m 1,0,-1
 54 38 l 1,1,-1
 115 38 l 1,2,-1
 115 424 l 1,3,-1
 56 424 l 1,4,-1
 56 464 l 1,5,-1
 162 464 l 1,6,-1
 159 374 l 1,7,8
 177 417 177 417 211.5 445.5 c 128,-1,9
 246 474 246 474 291 474 c 0,10,11
 347 474 347 474 388 425 c 1,12,-1
 366 378 l 1,13,14
 359 381 359 381 354.5 389.5 c 128,-1,15
 350 398 350 398 343.5 408 c 128,-1,16
 337 418 337 418 322.5 425.5 c 128,-1,17
 308 433 308 433 282 433 c 0,18,19
 251 433 251 433 223 407.5 c 128,-1,20
 195 382 195 382 177 341 c 128,-1,21
 159 300 159 300 159 253 c 2,22,-1
 159 38 l 1,23,-1
 245 38 l 1,24,-1
 245 -1 l 1,25,-1
 54 -1 l 1,0,-1
EndSplineSet
Validated: 1
EndChar

StartChar: ordfeminine
Encoding: 170 170 470
Width: 409
Flags: W
LayerCount: 2
Fore
SplineSet
179 265 m 0,0,1
 135 265 135 265 111.5 294.5 c 128,-1,2
 88 324 88 324 88 368 c 0,3,4
 88 431 88 431 126.5 459 c 128,-1,5
 165 487 165 487 222 487 c 0,6,7
 234 487 234 487 250 486 c 128,-1,8
 266 485 266 485 281 483 c 1,9,10
 279 551 279 551 261 577 c 128,-1,11
 243 603 243 603 201 603 c 256,12,13
 159 603 159 603 126 566 c 1,14,-1
 105 595 l 1,15,16
 145 640 145 640 203 640 c 0,17,18
 242 640 242 640 267.5 624.5 c 128,-1,19
 293 609 293 609 305.5 571.5 c 128,-1,20
 318 534 318 534 318 466 c 2,21,-1
 318 273 l 1,22,-1
 279 273 l 1,23,-1
 279 337 l 1,24,25
 266 299 266 299 239 282 c 128,-1,26
 212 265 212 265 179 265 c 0,0,1
127 370 m 0,27,28
 127 300 127 300 185 300 c 0,29,30
 231 300 231 300 255.5 340 c 128,-1,31
 280 380 280 380 282 449 c 1,32,33
 269 451 269 451 253.5 452 c 128,-1,34
 238 453 238 453 225 453 c 0,35,36
 178 453 178 453 152.5 434.5 c 128,-1,37
 127 416 127 416 127 370 c 0,27,28
65 211 m 1,38,-1
 346 211 l 1,39,-1
 346 173 l 1,40,-1
 65 173 l 1,41,-1
 65 211 l 1,38,-1
EndSplineSet
Validated: 1
EndChar

StartChar: ordmasculine
Encoding: 186 186 471
Width: 409
Flags: W
LayerCount: 2
Fore
SplineSet
205 267 m 256,0,1
 149 267 149 267 115.5 313 c 128,-1,2
 82 359 82 359 82 453 c 0,3,4
 82 548 82 548 115 594 c 128,-1,5
 148 640 148 640 205 640 c 256,6,7
 261 640 261 640 295 594 c 128,-1,8
 329 548 329 548 329 453 c 0,9,10
 329 360 329 360 295 313.5 c 128,-1,11
 261 267 261 267 205 267 c 256,0,1
205 303 m 256,12,13
 245 303 245 303 267 341 c 128,-1,14
 289 379 289 379 289 454 c 0,15,16
 289 532 289 532 266 567.5 c 128,-1,17
 243 603 243 603 205 604 c 0,18,19
 167 604 167 604 144.5 567 c 128,-1,20
 122 530 122 530 122 454 c 256,21,22
 122 378 122 378 143.5 340.5 c 128,-1,23
 165 303 165 303 205 303 c 256,12,13
65 211 m 1,24,-1
 346 211 l 1,25,-1
 346 173 l 1,26,-1
 65 173 l 1,27,-1
 65 211 l 1,24,-1
EndSplineSet
Validated: 1
EndChar

StartChar: uni2124
Encoding: 8484 8484 473
Width: 409
Flags: W
LayerCount: 2
Fore
SplineSet
380 638 m 1,0,-1
 380 601 l 1,1,-1
 161 33 l 1,2,-1
 335 33 l 2,3,4
 351 33 351 33 359 35 c 128,-1,5
 367 37 367 37 373 43 c 1,6,-1
 380 43 l 1,7,-1
 380 0 l 1,8,-1
 41 0 l 1,9,-1
 41 38 l 1,10,-1
 262 604 l 1,11,-1
 43 604 l 1,12,-1
 43 638 l 1,13,-1
 380 638 l 1,0,-1
348 604 m 1,14,-1
 296 604 l 1,15,-1
 73 33 l 1,16,-1
 127 33 l 1,17,-1
 348 604 l 1,14,-1
EndSplineSet
Validated: 1
EndChar

StartChar: zero
Encoding: 48 48 474
Width: 409
Flags: W
LayerCount: 2
Fore
SplineSet
205 -11 m 256,0,1
 130 -11 130 -11 89.5 69.5 c 128,-1,2
 49 150 49 150 49 312 c 0,3,4
 49 470 49 470 89.5 553 c 128,-1,5
 130 636 130 636 205 636 c 256,6,7
 280 636 280 636 320 553 c 128,-1,8
 360 470 360 470 360 312 c 0,9,10
 360 149 360 149 320 69 c 128,-1,11
 280 -11 280 -11 205 -11 c 256,0,1
94 312 m 0,12,13
 94 232 94 232 103 175 c 1,14,-1
 299 481 l 1,15,16
 272 594 272 594 205 594 c 0,17,18
 151 594 151 594 122.5 520 c 128,-1,19
 94 446 94 446 94 312 c 0,12,13
205 31 m 0,20,21
 316 31 316 31 315 312 c 0,22,23
 315 381 315 381 308 434 c 1,24,-1
 113 131 l 1,25,26
 140 31 140 31 205 31 c 0,20,21
EndSplineSet
Validated: 33
Substitution2: "'ss02' Style Set 2 in Latin lookup 36 subtable" zero.ss02
Substitution2: "'zero' Slashed Zero in Latin lookup 33 subtable" zero.zero
Substitution2: "'frac' Diagonal Fractions in Latin lookup 24 subtable" zero.numr
Substitution2: "'dnom' Denominators in Latin lookup 22 subtable" zero.dnom
Substitution2: "'numr' Numerators in Latin lookup 21 subtable" zero.numr
Substitution2: "'sups' Superscript in Latin lookup 20 subtable" uni2070
Substitution2: "'subs' Subscript in Latin lookup 19 subtable" uni2080
AlternateSubs2: "'aalt' Access All Alternates in Latin lookup 1 subtable" zero.zero zero.ss02 uni2080 zero.dnom zero.numr uni2070
EndChar

StartChar: one
Encoding: 49 49 475
Width: 409
Flags: W
LayerCount: 2
Fore
SplineSet
197 0 m 1,0,-1
 197 569 l 1,1,-1
 85 514 l 1,2,-1
 74 546 l 1,3,-1
 210 633 l 1,4,-1
 241 633 l 1,5,-1
 241 0 l 1,6,-1
 197 0 l 1,0,-1
EndSplineSet
Validated: 1
Substitution2: "'frac' Diagonal Fractions in Latin lookup 24 subtable" one.numr
Substitution2: "'dnom' Denominators in Latin lookup 22 subtable" one.dnom
Substitution2: "'numr' Numerators in Latin lookup 21 subtable" one.numr
Substitution2: "'sups' Superscript in Latin lookup 20 subtable" uni00B9
Substitution2: "'subs' Subscript in Latin lookup 19 subtable" uni2081
AlternateSubs2: "'aalt' Access All Alternates in Latin lookup 1 subtable" uni2081 one.dnom one.numr uni00B9
EndChar

StartChar: two
Encoding: 50 50 476
Width: 409
Flags: W
LayerCount: 2
Fore
SplineSet
63 37 m 1,0,1
 137 133 137 133 192.5 204.5 c 128,-1,2
 248 276 248 276 278 335.5 c 128,-1,3
 308 395 308 395 309 456 c 0,4,5
 309 525 309 525 283 559.5 c 128,-1,6
 257 594 257 594 211 594 c 0,7,8
 148 594 148 594 104 529 c 0,9,10
 97 514 97 514 95.5 507 c 128,-1,11
 94 500 94 500 97 492 c 1,12,-1
 93 485 l 1,13,-1
 85 489 l 1,14,-1
 50 509 l 1,15,16
 75 568 75 568 115.5 602 c 128,-1,17
 156 636 156 636 211 636 c 0,18,19
 278 636 278 636 316 589 c 128,-1,20
 354 542 354 542 354 454 c 0,21,22
 354 388 354 388 319.5 321.5 c 128,-1,23
 285 255 285 255 231 186 c 128,-1,24
 177 117 177 117 120 42 c 1,25,-1
 311 42 l 2,26,27
 328 42 328 42 335.5 44 c 128,-1,28
 343 46 343 46 349 52 c 1,29,-1
 356 52 l 1,30,-1
 356 0 l 1,31,-1
 63 0 l 1,32,-1
 63 37 l 1,0,1
EndSplineSet
Validated: 1
Substitution2: "'frac' Diagonal Fractions in Latin lookup 24 subtable" two.numr
Substitution2: "'dnom' Denominators in Latin lookup 22 subtable" two.dnom
Substitution2: "'numr' Numerators in Latin lookup 21 subtable" two.numr
Substitution2: "'sups' Superscript in Latin lookup 20 subtable" uni00B2
Substitution2: "'subs' Subscript in Latin lookup 19 subtable" uni2082
AlternateSubs2: "'aalt' Access All Alternates in Latin lookup 1 subtable" uni2082 two.dnom two.numr uni00B2
EndChar

StartChar: three
Encoding: 51 51 477
Width: 409
Flags: W
LayerCount: 2
Fore
SplineSet
197 -11 m 0,0,1
 152 -11 152 -11 117.5 9.5 c 128,-1,2
 83 30 83 30 56 66 c 1,3,-1
 89 96 l 1,4,-1
 96 102 l 1,5,-1
 100 96 l 1,6,7
 99 90 99 90 101.5 83 c 128,-1,8
 104 76 104 76 115 63 c 0,9,10
 130 48 130 48 149 39 c 128,-1,11
 168 30 168 30 194 30 c 0,12,13
 249 30 249 30 276 70 c 128,-1,14
 303 110 303 110 303 175 c 0,15,16
 303 250 303 250 259.5 282.5 c 128,-1,17
 216 315 216 315 142 309 c 1,18,-1
 142 349 l 1,19,20
 195 349 195 349 227 369 c 128,-1,21
 259 389 259 389 272.5 420.5 c 128,-1,22
 286 452 286 452 286 485 c 0,23,24
 286 540 286 540 261.5 567.5 c 128,-1,25
 237 595 237 595 199 595 c 0,26,27
 143 595 143 595 102 538 c 1,28,-1
 72 562 l 1,29,30
 125 636 125 636 200 636 c 0,31,32
 260 636 260 636 295.5 596 c 128,-1,33
 331 556 331 556 331 482 c 0,34,35
 331 432 331 432 305.5 391 c 128,-1,36
 280 350 280 350 236 335 c 1,37,38
 283 323 283 323 315.5 281 c 128,-1,39
 348 239 348 239 348 172 c 0,40,41
 348 92 348 92 309 40.5 c 128,-1,42
 270 -11 270 -11 197 -11 c 0,0,1
EndSplineSet
Validated: 33
Substitution2: "'frac' Diagonal Fractions in Latin lookup 24 subtable" three.numr
Substitution2: "'dnom' Denominators in Latin lookup 22 subtable" three.dnom
Substitution2: "'numr' Numerators in Latin lookup 21 subtable" three.numr
Substitution2: "'sups' Superscript in Latin lookup 20 subtable" uni00B3
Substitution2: "'subs' Subscript in Latin lookup 19 subtable" uni2083
AlternateSubs2: "'aalt' Access All Alternates in Latin lookup 1 subtable" uni2083 three.dnom three.numr uni00B3
EndChar

StartChar: four
Encoding: 52 52 478
Width: 409
Flags: W
LayerCount: 2
Fore
SplineSet
274 0 m 1,0,-1
 274 167 l 1,1,-1
 46 167 l 1,2,-1
 46 200 l 1,3,-1
 285 633 l 1,4,-1
 321 633 l 1,5,-1
 321 207 l 1,6,-1
 388 207 l 1,7,-1
 388 166 l 1,8,-1
 321 166 l 1,9,-1
 321 0 l 1,10,-1
 274 0 l 1,0,-1
97 208 m 1,11,-1
 274 208 l 1,12,-1
 274 526 l 1,13,-1
 97 208 l 1,11,-1
EndSplineSet
Validated: 1
Substitution2: "'frac' Diagonal Fractions in Latin lookup 24 subtable" four.numr
Substitution2: "'dnom' Denominators in Latin lookup 22 subtable" four.dnom
Substitution2: "'numr' Numerators in Latin lookup 21 subtable" four.numr
Substitution2: "'sups' Superscript in Latin lookup 20 subtable" uni2074
Substitution2: "'subs' Subscript in Latin lookup 19 subtable" uni2084
AlternateSubs2: "'aalt' Access All Alternates in Latin lookup 1 subtable" uni2084 four.dnom four.numr uni2074
EndChar

StartChar: five
Encoding: 53 53 479
Width: 409
Flags: W
LayerCount: 2
Fore
SplineSet
204 -11 m 0,0,1
 160 -11 160 -11 119.5 12.5 c 128,-1,2
 79 36 79 36 53 83 c 1,3,-1
 88 109 l 1,4,-1
 95 114 l 1,5,-1
 99 108 l 1,6,7
 97 102 97 102 99.5 95 c 128,-1,8
 102 88 102 88 113 74 c 0,9,10
 151 31 151 31 207 31 c 0,11,12
 255 31 255 31 285.5 74.5 c 128,-1,13
 316 118 316 118 316 202 c 0,14,15
 316 285 316 285 285 323 c 128,-1,16
 254 361 254 361 206 361 c 0,17,18
 179 361 179 361 151.5 345 c 128,-1,19
 124 329 124 329 102 299 c 1,20,-1
 73 310 l 1,21,-1
 90 632 l 1,22,-1
 343 632 l 1,23,-1
 343 590 l 1,24,-1
 131 590 l 1,25,-1
 119 365 l 1,26,27
 138 381 138 381 163 391 c 128,-1,28
 188 401 188 401 214 401 c 0,29,30
 280 401 280 401 320.5 351 c 128,-1,31
 361 301 361 301 361 200 c 0,32,33
 361 98 361 98 318.5 43.5 c 128,-1,34
 276 -11 276 -11 204 -11 c 0,0,1
EndSplineSet
Validated: 1
Substitution2: "'frac' Diagonal Fractions in Latin lookup 24 subtable" five.numr
Substitution2: "'dnom' Denominators in Latin lookup 22 subtable" five.dnom
Substitution2: "'numr' Numerators in Latin lookup 21 subtable" five.numr
Substitution2: "'sups' Superscript in Latin lookup 20 subtable" uni2075
Substitution2: "'subs' Subscript in Latin lookup 19 subtable" uni2085
AlternateSubs2: "'aalt' Access All Alternates in Latin lookup 1 subtable" uni2085 five.dnom five.numr uni2075
EndChar

StartChar: six
Encoding: 54 54 480
Width: 409
Flags: W
LayerCount: 2
Fore
SplineSet
214 -10 m 0,0,1
 139 -10 139 -10 98.5 66 c 128,-1,2
 58 142 58 142 58 288 c 0,3,4
 58 466 58 466 107 552.5 c 128,-1,5
 156 639 156 639 236 639 c 0,6,7
 273 639 273 639 298.5 623.5 c 128,-1,8
 324 608 324 608 346 581 c 1,9,-1
 319 546 l 1,10,-1
 314 540 l 1,11,-1
 309 544 l 1,12,13
 308 550 308 550 306 557 c 128,-1,14
 304 564 304 564 293 575 c 0,15,16
 268 597 268 597 237 597 c 0,17,18
 204 597 204 597 173.5 571.5 c 128,-1,19
 143 546 143 546 123.5 486 c 128,-1,20
 104 426 104 426 103 324 c 1,21,22
 121 356 121 356 152 378 c 128,-1,23
 183 400 183 400 221 400 c 0,24,25
 278 400 278 400 317 348 c 128,-1,26
 356 296 356 296 356 202 c 0,27,28
 356 139 356 139 337.5 91 c 128,-1,29
 319 43 319 43 287 16.5 c 128,-1,30
 255 -10 255 -10 214 -10 c 0,0,1
217 32 m 256,31,32
 256 32 256 32 284 78 c 128,-1,33
 312 124 312 124 312 201 c 0,34,35
 312 280 312 280 283.5 318.5 c 128,-1,36
 255 357 255 357 215 357 c 0,37,38
 182 357 182 357 153 331 c 128,-1,39
 124 305 124 305 104 264 c 1,40,41
 102 207 102 207 114 153.5 c 128,-1,42
 126 100 126 100 152 66 c 128,-1,43
 178 32 178 32 217 32 c 256,31,32
EndSplineSet
Validated: 33
Substitution2: "'frac' Diagonal Fractions in Latin lookup 24 subtable" six.numr
Substitution2: "'dnom' Denominators in Latin lookup 22 subtable" six.dnom
Substitution2: "'numr' Numerators in Latin lookup 21 subtable" six.numr
Substitution2: "'sups' Superscript in Latin lookup 20 subtable" uni2076
Substitution2: "'subs' Subscript in Latin lookup 19 subtable" uni2086
AlternateSubs2: "'aalt' Access All Alternates in Latin lookup 1 subtable" uni2086 six.dnom six.numr uni2076
EndChar

StartChar: seven
Encoding: 55 55 481
Width: 409
Flags: W
LayerCount: 2
Fore
SplineSet
138 0 m 1,0,1
 175 146 175 146 214 294.5 c 128,-1,2
 253 443 253 443 298 589 c 1,3,-1
 68 589 l 1,4,-1
 68 632 l 1,5,-1
 351 632 l 1,6,-1
 351 603 l 1,7,8
 304 456 304 456 263 305 c 128,-1,9
 222 154 222 154 187 0 c 1,10,-1
 138 0 l 1,0,1
EndSplineSet
Validated: 1
Substitution2: "'frac' Diagonal Fractions in Latin lookup 24 subtable" seven.numr
Substitution2: "'dnom' Denominators in Latin lookup 22 subtable" seven.dnom
Substitution2: "'numr' Numerators in Latin lookup 21 subtable" seven.numr
Substitution2: "'sups' Superscript in Latin lookup 20 subtable" uni2077
Substitution2: "'subs' Subscript in Latin lookup 19 subtable" uni2087
AlternateSubs2: "'aalt' Access All Alternates in Latin lookup 1 subtable" uni2087 seven.dnom seven.numr uni2077
EndChar

StartChar: eight
Encoding: 56 56 482
Width: 409
Flags: W
LayerCount: 2
Fore
SplineSet
205 -10 m 256,0,1
 134 -10 134 -10 93 35.5 c 128,-1,2
 52 81 52 81 52 156 c 0,3,4
 52 216 52 216 83.5 263.5 c 128,-1,5
 115 311 115 311 166 342 c 1,6,7
 130 365 130 365 103.5 404 c 128,-1,8
 77 443 77 443 77 488 c 0,9,10
 77 555 77 555 110.5 597.5 c 128,-1,11
 144 640 144 640 209 640 c 0,12,13
 277 640 277 640 309 598.5 c 128,-1,14
 341 557 341 557 341 494 c 0,15,16
 341 448 341 448 315 407 c 128,-1,17
 289 366 289 366 252 340 c 1,18,19
 299 313 299 313 328.5 267 c 128,-1,20
 358 221 358 221 358 162 c 0,21,22
 358 84 358 84 317 37 c 128,-1,23
 276 -10 276 -10 205 -10 c 256,0,1
216 360 m 1,24,25
 250 384 250 384 274 418 c 128,-1,26
 298 452 298 452 298 492 c 0,27,28
 298 538 298 538 275.5 568.5 c 128,-1,29
 253 599 253 599 208 599 c 0,30,31
 164 599 164 599 142 569 c 128,-1,32
 120 539 120 539 120 496 c 0,33,34
 120 447 120 447 148.5 416.5 c 128,-1,35
 177 386 177 386 216 360 c 1,24,25
207 32 m 0,36,37
 256 32 256 32 284.5 67.5 c 128,-1,38
 313 103 313 103 313 162 c 0,39,40
 313 215 313 215 282.5 256 c 128,-1,41
 252 297 252 297 201 319 c 1,42,43
 158 296 158 296 127.5 255 c 128,-1,44
 97 214 97 214 97 163 c 0,45,46
 97 103 97 103 127 67.5 c 128,-1,47
 157 32 157 32 207 32 c 0,36,37
EndSplineSet
Validated: 1
Substitution2: "'frac' Diagonal Fractions in Latin lookup 24 subtable" eight.numr
Substitution2: "'dnom' Denominators in Latin lookup 22 subtable" eight.dnom
Substitution2: "'numr' Numerators in Latin lookup 21 subtable" eight.numr
Substitution2: "'sups' Superscript in Latin lookup 20 subtable" uni2078
Substitution2: "'subs' Subscript in Latin lookup 19 subtable" uni2088
AlternateSubs2: "'aalt' Access All Alternates in Latin lookup 1 subtable" uni2088 eight.dnom eight.numr uni2078
EndChar

StartChar: nine
Encoding: 57 57 483
Width: 409
Flags: W
LayerCount: 2
Fore
SplineSet
186 -10 m 0,0,1
 148 -10 148 -10 119 3.5 c 128,-1,2
 90 17 90 17 67 45 c 1,3,-1
 94 80 l 1,4,-1
 100 87 l 1,5,-1
 105 83 l 1,6,7
 105 76 105 76 109 68.5 c 128,-1,8
 113 61 113 61 124 50 c 0,9,10
 149 31 149 31 182 31 c 0,11,12
 227 31 227 31 255.5 66.5 c 128,-1,13
 284 102 284 102 297 163.5 c 128,-1,14
 310 225 310 225 313 300 c 1,15,16
 291 277 291 277 265 263 c 128,-1,17
 239 249 239 249 204 249 c 0,18,19
 143 249 143 249 100.5 298 c 128,-1,20
 58 347 58 347 58 433 c 0,21,22
 58 528 58 528 100.5 582 c 128,-1,23
 143 636 143 636 204 636 c 0,24,25
 278 636 278 636 317 568 c 128,-1,26
 356 500 356 500 356 369 c 0,27,28
 356 170 356 170 313 81 c 128,-1,29
 270 -8 270 -8 186 -10 c 0,0,1
206 290 m 0,30,31
 241 290 241 290 267 306.5 c 128,-1,32
 293 323 293 323 313 353 c 1,33,34
 312 481 312 481 285.5 538 c 128,-1,35
 259 595 259 595 206 595 c 0,36,37
 161 595 161 595 131.5 553.5 c 128,-1,38
 102 512 102 512 102 434 c 0,39,40
 102 367 102 367 131 329 c 128,-1,41
 160 291 160 291 206 290 c 0,30,31
EndSplineSet
Validated: 1
Substitution2: "'frac' Diagonal Fractions in Latin lookup 24 subtable" nine.numr
Substitution2: "'dnom' Denominators in Latin lookup 22 subtable" nine.dnom
Substitution2: "'numr' Numerators in Latin lookup 21 subtable" nine.numr
Substitution2: "'sups' Superscript in Latin lookup 20 subtable" uni2079
Substitution2: "'subs' Subscript in Latin lookup 19 subtable" uni2089
AlternateSubs2: "'aalt' Access All Alternates in Latin lookup 1 subtable" uni2089 nine.dnom nine.numr uni2079
EndChar

StartChar: zero.zero
Encoding: 65541 -1 484
Width: 409
Flags: W
LayerCount: 2
Fore
SplineSet
205 -11 m 0,0,1
 132 -11 132 -11 90.5 69.5 c 128,-1,2
 49 150 49 150 49 312 c 0,3,4
 49 470 49 470 90.5 552.5 c 128,-1,5
 132 635 132 635 205 636 c 0,6,7
 283 636 283 636 321.5 553 c 128,-1,8
 360 470 360 470 360 312 c 0,9,10
 360 149 360 149 319.5 69 c 128,-1,11
 279 -11 279 -11 205 -11 c 0,0,1
205 31 m 0,12,13
 258 31 258 31 286.5 103 c 128,-1,14
 315 175 315 175 315 312 c 0,15,16
 315 447 315 447 287.5 520.5 c 128,-1,17
 260 594 260 594 205 594 c 0,18,19
 155 594 155 594 124.5 520 c 128,-1,20
 94 446 94 446 94 312 c 0,21,22
 94 172 94 172 124.5 101.5 c 128,-1,23
 155 31 155 31 205 31 c 0,12,13
205 281 m 0,24,25
 189 281 189 281 178 292 c 128,-1,26
 167 303 167 303 167 319 c 256,27,28
 167 335 167 335 178 347 c 128,-1,29
 189 359 189 359 205 359 c 0,30,31
 219 359 219 359 231 347.5 c 128,-1,32
 243 336 243 336 243 319 c 0,33,34
 243 304 243 304 231.5 292.5 c 128,-1,35
 220 281 220 281 205 281 c 0,24,25
EndSplineSet
Validated: 1
EndChar

StartChar: zero.ss02
Encoding: 65542 -1 485
Width: 409
Flags: W
LayerCount: 2
Fore
SplineSet
205 -11 m 0,0,1
 132 -11 132 -11 90.5 69.5 c 128,-1,2
 49 150 49 150 49 312 c 0,3,4
 49 470 49 470 90.5 552.5 c 128,-1,5
 132 635 132 635 205 636 c 0,6,7
 283 636 283 636 321.5 553 c 128,-1,8
 360 470 360 470 360 312 c 0,9,10
 360 149 360 149 319.5 69 c 128,-1,11
 279 -11 279 -11 205 -11 c 0,0,1
205 31 m 0,12,13
 258 31 258 31 286.5 103 c 128,-1,14
 315 175 315 175 315 312 c 0,15,16
 315 447 315 447 287.5 520.5 c 128,-1,17
 260 594 260 594 205 594 c 0,18,19
 155 594 155 594 124.5 520 c 128,-1,20
 94 446 94 446 94 312 c 0,21,22
 94 172 94 172 124.5 101.5 c 128,-1,23
 155 31 155 31 205 31 c 0,12,13
EndSplineSet
Validated: 1
EndChar

StartChar: uni2070
Encoding: 8304 8304 516
Width: 409
Flags: W
LayerCount: 2
Fore
SplineSet
205 245 m 0,0,1
 155 245 155 245 125.5 295 c 128,-1,2
 96 345 96 345 96 446 c 0,3,4
 96 543 96 543 125.5 595 c 128,-1,5
 155 647 155 647 205 648 c 0,6,7
 257 648 257 648 285 596 c 128,-1,8
 313 544 313 544 313 446 c 0,9,10
 313 345 313 345 284.5 295 c 128,-1,11
 256 245 256 245 205 245 c 0,0,1
132 446 m 0,12,13
 132 402 132 402 138 369 c 1,14,-1
 266 550 l 1,15,16
 248 615 248 615 205 614 c 0,17,18
 171 614 171 614 151.5 570 c 128,-1,19
 132 526 132 526 132 446 c 0,12,13
205 278 m 0,20,21
 240 278 240 278 259 321 c 128,-1,22
 278 364 278 364 278 446 c 0,23,24
 278 485 278 485 273 515 c 1,25,-1
 145 337 l 1,26,27
 164 278 164 278 205 278 c 0,20,21
EndSplineSet
Validated: 33
Substitution2: "'ss02' Style Set 2 in Latin lookup 36 subtable" uni2070.ss02
Substitution2: "'zero' Slashed Zero in Latin lookup 33 subtable" uni2070.zero
AlternateSubs2: "'aalt' Access All Alternates in Latin lookup 1 subtable" uni2070.ss02 uni2070.zero
EndChar

StartChar: uni00B9
Encoding: 185 185 517
Width: 409
Flags: W
LayerCount: 2
Fore
SplineSet
196 252 m 1,0,-1
 196 597 l 1,1,-1
 122 565 l 1,2,-1
 114 591 l 1,3,-1
 206 645 l 1,4,-1
 232 645 l 1,5,-1
 232 252 l 1,6,-1
 196 252 l 1,0,-1
EndSplineSet
Validated: 1
EndChar

StartChar: uni00B2
Encoding: 178 178 518
Width: 409
Flags: W
LayerCount: 2
Fore
SplineSet
105 281 m 1,0,1
 156 340 156 340 193 383.5 c 128,-1,2
 230 427 230 427 250.5 463 c 128,-1,3
 271 499 271 499 272 536 c 0,4,5
 272 576 272 576 255 595 c 128,-1,6
 238 614 238 614 209 614 c 0,7,8
 173 614 173 614 148 591 c 0,9,10
 139 577 139 577 137 569.5 c 128,-1,11
 135 562 135 562 137 553 c 1,12,-1
 133 548 l 1,13,-1
 125 553 l 1,14,-1
 97 569 l 1,15,16
 113 606 113 606 142 627 c 128,-1,17
 171 648 171 648 209 648 c 0,18,19
 254 648 254 648 281 618.5 c 128,-1,20
 308 589 308 589 308 535 c 0,21,22
 308 494 308 494 286 454 c 128,-1,23
 264 414 264 414 229.5 373 c 128,-1,24
 195 332 195 332 156 285 c 1,25,-1
 265 285 l 2,26,27
 281 285 281 285 289 287 c 128,-1,28
 297 289 297 289 303 295 c 1,29,-1
 310 295 l 1,30,-1
 310 252 l 1,31,-1
 105 252 l 1,32,-1
 105 281 l 1,0,1
EndSplineSet
Validated: 1
EndChar

StartChar: uni00B3
Encoding: 179 179 519
Width: 409
Flags: W
LayerCount: 2
Fore
SplineSet
199 245 m 0,0,1
 168 245 168 245 143.5 257.5 c 128,-1,2
 119 270 119 270 101 293 c 1,3,-1
 126 316 l 1,4,-1
 133 324 l 1,5,-1
 137 317 l 1,6,7
 136 311 136 311 140 305 c 128,-1,8
 144 299 144 299 157 288 c 0,9,10
 165 283 165 283 174.5 280.5 c 128,-1,11
 184 278 184 278 197 278 c 0,12,13
 232 278 232 278 249.5 300.5 c 128,-1,14
 267 323 267 323 267 361 c 0,15,16
 267 406 267 406 239 425.5 c 128,-1,17
 211 445 211 445 162 441 c 1,18,-1
 162 472 l 1,19,20
 216 472 216 472 236 496.5 c 128,-1,21
 256 521 256 521 256 552 c 0,22,23
 256 584 256 584 240 599.5 c 128,-1,24
 224 615 224 615 201 615 c 0,25,26
 163 615 163 615 135 582 c 1,27,-1
 112 602 l 1,28,29
 149 648 149 648 201 648 c 0,30,31
 243 648 243 648 268 622.5 c 128,-1,32
 293 597 293 597 293 551 c 0,33,34
 293 519 293 519 277 494.5 c 128,-1,35
 261 470 261 470 233 461 c 1,36,37
 263 452 263 452 284 426.5 c 128,-1,38
 305 401 305 401 305 359 c 0,39,40
 305 309 305 309 277.5 277 c 128,-1,41
 250 245 250 245 199 245 c 0,0,1
EndSplineSet
Validated: 33
EndChar

StartChar: uni2074
Encoding: 8308 8308 520
Width: 409
Flags: W
LayerCount: 2
Fore
SplineSet
247 252 m 1,0,-1
 247 352 l 1,1,-1
 94 352 l 1,2,-1
 94 379 l 1,3,-1
 255 645 l 1,4,-1
 284 645 l 1,5,-1
 284 385 l 1,6,-1
 330 385 l 1,7,-1
 330 352 l 1,8,-1
 284 352 l 1,9,-1
 284 252 l 1,10,-1
 247 252 l 1,0,-1
136 385 m 1,11,-1
 248 385 l 1,12,-1
 248 567 l 1,13,-1
 136 385 l 1,11,-1
EndSplineSet
Validated: 1
EndChar

StartChar: uni2075
Encoding: 8309 8309 521
Width: 409
Flags: W
LayerCount: 2
Fore
SplineSet
205 245 m 0,0,1
 173 245 173 245 145 259.5 c 128,-1,2
 117 274 117 274 100 304 c 1,3,-1
 127 325 l 1,4,-1
 134 330 l 1,5,-1
 138 324 l 1,6,7
 136 318 136 318 140 311.5 c 128,-1,8
 144 305 144 305 156 293 c 0,9,10
 176 278 176 278 206 278 c 0,11,12
 237 278 237 278 257.5 303.5 c 128,-1,13
 278 329 278 329 278 377 c 0,14,15
 278 426 278 426 257.5 449 c 128,-1,16
 237 472 237 472 205 472 c 0,17,18
 166 472 166 472 137 435 c 1,19,-1
 114 443 l 1,20,-1
 125 644 l 1,21,-1
 300 644 l 1,22,-1
 300 611 l 1,23,-1
 158 611 l 1,24,-1
 151 483 l 1,25,26
 179 503 179 503 213 504 c 0,27,28
 258 504 258 504 286 472 c 128,-1,29
 314 440 314 440 314 377 c 0,30,31
 314 312 314 312 283.5 278.5 c 128,-1,32
 253 245 253 245 205 245 c 0,0,1
EndSplineSet
Validated: 1
EndChar

StartChar: uni2076
Encoding: 8310 8310 522
Width: 409
Flags: W
LayerCount: 2
Fore
SplineSet
211 246 m 0,0,1
 159 246 159 246 130.5 293.5 c 128,-1,2
 102 341 102 341 102 431 c 0,3,4
 102 541 102 541 136 595.5 c 128,-1,5
 170 650 170 650 225 649 c 0,6,7
 271 649 271 649 304 612 c 1,8,-1
 283 586 l 1,9,-1
 278 580 l 1,10,-1
 272 584 l 1,11,12
 272 590 272 590 268 595.5 c 128,-1,13
 264 601 264 601 252 611 c 1,14,15
 239 615 239 615 227 615 c 0,16,17
 207 615 207 615 187 601.5 c 128,-1,18
 167 588 167 588 153.5 554 c 128,-1,19
 140 520 140 520 139 460 c 1,20,21
 151 478 151 478 172 490.5 c 128,-1,22
 193 503 193 503 217 503 c 0,23,24
 256 503 256 503 283 470 c 128,-1,25
 310 437 310 437 310 378 c 256,26,27
 310 319 310 319 282 282.5 c 128,-1,28
 254 246 254 246 211 246 c 0,0,1
212 279 m 0,29,30
 239 280 239 280 257 306 c 128,-1,31
 275 332 275 332 275 377 c 0,32,33
 275 424 275 424 256 446.5 c 128,-1,34
 237 469 237 469 212 469 c 0,35,36
 190 469 190 469 171.5 454 c 128,-1,37
 153 439 153 439 140 416 c 1,38,39
 138 381 138 381 146.5 349.5 c 128,-1,40
 155 318 155 318 171.5 298.5 c 128,-1,41
 188 279 188 279 212 279 c 0,29,30
EndSplineSet
Validated: 33
EndChar

StartChar: uni2077
Encoding: 8311 8311 523
Width: 409
Flags: W
LayerCount: 2
Fore
SplineSet
155 252 m 1,0,1
 180 342 180 342 206 431.5 c 128,-1,2
 232 521 232 521 263 610 c 1,3,-1
 110 610 l 1,4,-1
 110 644 l 1,5,-1
 306 644 l 1,6,-1
 306 623 l 1,7,8
 274 532 274 532 246 439.5 c 128,-1,9
 218 347 218 347 195 252 c 1,10,-1
 155 252 l 1,0,1
EndSplineSet
Validated: 1
EndChar

StartChar: uni2078
Encoding: 8312 8312 524
Width: 409
Flags: W
LayerCount: 2
Fore
SplineSet
205 246 m 256,0,1
 156 246 156 246 127 274.5 c 128,-1,2
 98 303 98 303 98 349 c 0,3,4
 98 387 98 387 118.5 416 c 128,-1,5
 139 445 139 445 173 464 c 1,6,7
 148 478 148 478 132 502 c 128,-1,8
 116 526 116 526 116 554 c 0,9,10
 116 596 116 596 139.5 623 c 128,-1,11
 163 650 163 650 208 650 c 0,12,13
 254 650 254 650 277 624 c 128,-1,14
 300 598 300 598 300 558 c 0,15,16
 300 528 300 528 283.5 503 c 128,-1,17
 267 478 267 478 243 463 c 1,18,19
 274 447 274 447 292.5 418.5 c 128,-1,20
 311 390 311 390 311 353 c 0,21,22
 311 304 311 304 282.5 275 c 128,-1,23
 254 246 254 246 205 246 c 256,0,1
212 477 m 1,24,25
 235 491 235 491 250 511.5 c 128,-1,26
 265 532 265 532 265 556 c 0,27,28
 265 583 265 583 250.5 600 c 128,-1,29
 236 617 236 617 207 617 c 0,30,31
 179 617 179 617 164.5 600 c 128,-1,32
 150 583 150 583 150 558 c 0,33,34
 150 528 150 528 168.5 510 c 128,-1,35
 187 492 187 492 212 477 c 1,24,25
206 280 m 0,36,37
 239 280 239 280 257 300.5 c 128,-1,38
 275 321 275 321 275 353 c 256,39,40
 275 385 275 385 254.5 409 c 128,-1,41
 234 433 234 433 201 445 c 1,42,43
 173 432 173 432 154 408.5 c 128,-1,44
 135 385 135 385 135 354 c 0,45,46
 135 319 135 319 154.5 299.5 c 128,-1,47
 174 280 174 280 206 280 c 0,36,37
EndSplineSet
Validated: 1
EndChar

StartChar: uni2079
Encoding: 8313 8313 525
Width: 409
Flags: W
LayerCount: 2
Fore
SplineSet
193 246 m 0,0,1
 141 246 141 246 108 281 c 1,2,-1
 129 308 l 1,3,-1
 134 315 l 1,4,-1
 140 310 l 1,5,6
 139 304 139 304 144.5 298.5 c 128,-1,7
 150 293 150 293 163 283 c 1,8,9
 175 279 175 279 188 279 c 0,10,11
 231 279 231 279 251 323.5 c 128,-1,12
 271 368 271 368 274 432 c 1,13,14
 261 419 261 419 243.5 411 c 128,-1,15
 226 403 226 403 204 403 c 0,16,17
 161 403 161 403 131.5 434.5 c 128,-1,18
 102 466 102 466 102 520 c 0,19,20
 102 579 102 579 132 613.5 c 128,-1,21
 162 648 162 648 204 648 c 0,22,23
 256 648 256 648 283 605 c 128,-1,24
 310 562 310 562 310 480 c 0,25,26
 310 357 310 357 280 302 c 128,-1,27
 250 247 250 247 193 246 c 0,0,1
205 436 m 0,28,29
 248 435 248 435 275 472 c 1,30,31
 273 549 273 549 256 582 c 128,-1,32
 239 615 239 615 205 615 c 0,33,34
 176 615 176 615 157 591 c 128,-1,35
 138 567 138 567 138 520 c 0,36,37
 138 481 138 481 157 458.5 c 128,-1,38
 176 436 176 436 205 436 c 0,28,29
EndSplineSet
Validated: 33
EndChar

StartChar: fraction
Encoding: 8260 8260 526
Width: 409
Flags: W
LayerCount: 2
Fore
SplineSet
100 -42 m 1,0,-1
 71 -27 l 1,1,-1
 324 679 l 1,2,-1
 355 663 l 1,3,-1
 100 -42 l 1,0,-1
EndSplineSet
Validated: 1
EndChar

StartChar: onehalf
Encoding: 189 189 527
Width: 409
Flags: W
LayerCount: 2
Fore
SplineSet
80 389 m 1,0,-1
 80 657 l 1,1,-1
 25 634 l 1,2,-1
 16 658 l 1,3,-1
 90 700 l 1,4,-1
 114 700 l 1,5,-1
 114 389 l 1,6,-1
 80 389 l 1,0,-1
100 -42 m 1,7,-1
 71 -27 l 1,8,-1
 324 679 l 1,9,-1
 355 663 l 1,10,-1
 100 -42 l 1,7,-1
232 -72 m 1,11,-1
 232 -46 l 1,12,13
 272 1 272 1 301 35 c 128,-1,14
 330 69 330 69 345.5 96.5 c 128,-1,15
 361 124 361 124 361 154 c 0,16,17
 361 183 361 183 348.5 197.5 c 128,-1,18
 336 212 336 212 314 212 c 0,19,20
 271 212 271 212 250 165 c 1,21,-1
 225 180 l 1,22,23
 238 209 238 209 261 225.5 c 128,-1,24
 284 242 284 242 314 242 c 0,25,26
 350 242 350 242 372 219 c 128,-1,27
 394 196 394 196 394 153 c 0,28,29
 394 120 394 120 377.5 89 c 128,-1,30
 361 58 361 58 334.5 26.5 c 128,-1,31
 308 -5 308 -5 278 -42 c 1,32,-1
 395 -42 l 1,33,-1
 395 -72 l 1,34,-1
 232 -72 l 1,11,-1
EndSplineSet
Validated: 1
EndChar

StartChar: onequarter
Encoding: 188 188 528
Width: 409
Flags: W
LayerCount: 2
Fore
SplineSet
80 389 m 1,0,-1
 80 657 l 1,1,-1
 25 634 l 1,2,-1
 16 658 l 1,3,-1
 90 700 l 1,4,-1
 114 700 l 1,5,-1
 114 389 l 1,6,-1
 80 389 l 1,0,-1
100 -42 m 1,7,-1
 71 -27 l 1,8,-1
 324 679 l 1,9,-1
 355 663 l 1,10,-1
 100 -42 l 1,7,-1
333 -72 m 1,11,-1
 333 6 l 1,12,-1
 214 6 l 1,13,-1
 214 31 l 1,14,-1
 340 240 l 1,15,-1
 367 240 l 1,16,-1
 367 36 l 1,17,-1
 401 36 l 1,18,-1
 401 6 l 1,19,-1
 367 6 l 1,20,-1
 367 -72 l 1,21,-1
 333 -72 l 1,11,-1
251 36 m 1,22,-1
 333 36 l 1,23,-1
 333 171 l 1,24,-1
 251 36 l 1,22,-1
EndSplineSet
Validated: 1
EndChar

StartChar: threequarters
Encoding: 190 190 529
Width: 409
Flags: W
LayerCount: 2
Fore
SplineSet
85 384 m 0,0,1
 37 384 37 384 7 422 c 1,2,-1
 28 443 l 1,3,-1
 35 451 l 1,4,-1
 39 446 l 1,5,6
 36 436 36 436 53 422 c 0,7,8
 65 413 65 413 83 413 c 0,9,10
 110 413 110 413 123 429.5 c 128,-1,11
 136 446 136 446 136 476 c 0,12,13
 136 511 136 511 114.5 526 c 128,-1,14
 93 541 93 541 56 537 c 1,15,-1
 56 565 l 1,16,17
 98 565 98 565 113 583.5 c 128,-1,18
 128 602 128 602 128 626 c 256,19,20
 128 650 128 650 116 662 c 128,-1,21
 104 674 104 674 86 674 c 0,22,23
 57 674 57 674 36 647 c 1,24,-1
 14 666 l 1,25,26
 44 703 44 703 87 702 c 0,27,28
 121 702 121 702 141.5 682.5 c 128,-1,29
 162 663 162 663 162 626 c 0,30,31
 162 600 162 600 149.5 581 c 128,-1,32
 137 562 137 562 116 554 c 1,33,34
 139 547 139 547 154.5 527 c 128,-1,35
 170 507 170 507 170 474 c 0,36,37
 170 434 170 434 148 409 c 128,-1,38
 126 384 126 384 85 384 c 0,0,1
100 -42 m 1,39,-1
 71 -27 l 1,40,-1
 324 679 l 1,41,-1
 355 663 l 1,42,-1
 100 -42 l 1,39,-1
333 6 m 1,43,-1
 214 6 l 1,44,-1
 214 31 l 1,45,-1
 340 240 l 1,46,-1
 367 240 l 1,47,-1
 367 36 l 1,48,-1
 401 36 l 1,49,-1
 401 6 l 1,50,-1
 367 6 l 1,51,-1
 367 -72 l 1,52,-1
 333 -72 l 1,53,-1
 333 6 l 1,43,-1
333 36 m 1,54,-1
 333 171 l 1,55,-1
 251 36 l 1,56,-1
 333 36 l 1,54,-1
EndSplineSet
Validated: 33
EndChar

StartChar: uni2070.ss02
Encoding: 65566 -1 533
Width: 409
Flags: W
LayerCount: 2
Fore
SplineSet
205 245 m 0,0,1
 155 245 155 245 125.5 295 c 128,-1,2
 96 345 96 345 96 446 c 0,3,4
 96 543 96 543 125.5 595 c 128,-1,5
 155 647 155 647 205 648 c 0,6,7
 257 648 257 648 285 596 c 128,-1,8
 313 544 313 544 313 446 c 0,9,10
 313 345 313 345 284.5 295 c 128,-1,11
 256 245 256 245 205 245 c 0,0,1
205 278 m 0,12,13
 240 278 240 278 259 321 c 128,-1,14
 278 364 278 364 278 446 c 0,15,16
 278 526 278 526 259.5 570 c 128,-1,17
 241 614 241 614 205 614 c 0,18,19
 171 614 171 614 151.5 570 c 128,-1,20
 132 526 132 526 132 446 c 0,21,22
 132 362 132 362 151.5 320 c 128,-1,23
 171 278 171 278 205 278 c 0,12,13
EndSplineSet
Validated: 1
EndChar

StartChar: uni2070.zero
Encoding: 65570 -1 537
Width: 409
Flags: W
LayerCount: 2
Fore
SplineSet
205 245 m 0,0,1
 155 245 155 245 125.5 295 c 128,-1,2
 96 345 96 345 96 446 c 0,3,4
 96 543 96 543 125.5 595 c 128,-1,5
 155 647 155 647 205 648 c 0,6,7
 257 648 257 648 285 596 c 128,-1,8
 313 544 313 544 313 446 c 0,9,10
 313 345 313 345 284.5 295 c 128,-1,11
 256 245 256 245 205 245 c 0,0,1
205 278 m 0,12,13
 240 278 240 278 259 321 c 128,-1,14
 278 364 278 364 278 446 c 0,15,16
 278 526 278 526 259.5 570 c 128,-1,17
 241 614 241 614 205 614 c 0,18,19
 171 614 171 614 151.5 570 c 128,-1,20
 132 526 132 526 132 446 c 0,21,22
 132 362 132 362 151.5 320 c 128,-1,23
 171 278 171 278 205 278 c 0,12,13
206 436 m 256,24,25
 197 436 197 436 190 443.5 c 128,-1,26
 183 451 183 451 183 460 c 0,27,28
 183 470 183 470 190 476.5 c 128,-1,29
 197 483 197 483 206 483 c 256,30,31
 215 483 215 483 222 476.5 c 128,-1,32
 229 470 229 470 229 460 c 0,33,34
 229 451 229 451 222 443.5 c 128,-1,35
 215 436 215 436 206 436 c 256,24,25
EndSplineSet
Validated: 1
EndChar

StartChar: period
Encoding: 46 46 538
Width: 148
Flags: W
LayerCount: 2
Fore
SplineSet
76 -12 m 0,0,1
 61 -12 61 -12 49.5 0 c 128,-1,2
 38 12 38 12 38 29 c 128,-1,3
 38 46 38 46 49 58 c 128,-1,4
 60 70 60 70 76 70 c 128,-1,5
 92 70 92 70 103 58 c 128,-1,6
 114 46 114 46 114 29 c 0,7,8
 114 13 114 13 103 0.5 c 128,-1,9
 92 -12 92 -12 76 -12 c 0,0,1
EndSplineSet
Validated: 1
EndChar

StartChar: comma
Encoding: 44 44 539
Width: 409
Flags: W
LayerCount: 2
Fore
SplineSet
173 -172 m 1,0,-1
 150 -151 l 1,1,2
 178 -118 178 -118 190 -89 c 128,-1,3
 202 -60 202 -60 202 -39 c 0,4,5
 202 -26 202 -26 193.5 -17 c 128,-1,6
 185 -8 185 -8 177 1 c 128,-1,7
 169 10 169 10 169 26 c 0,8,9
 169 45 169 45 179.5 57.5 c 128,-1,10
 190 70 190 70 207 70 c 256,11,12
 224 70 224 70 236.5 54 c 128,-1,13
 249 38 249 38 249 10 c 0,14,15
 249 -28 249 -28 232 -74 c 128,-1,16
 215 -120 215 -120 173 -172 c 1,0,-1
EndSplineSet
Validated: 1
EndChar

StartChar: colon
Encoding: 58 58 540
Width: 409
Flags: W
LayerCount: 2
Fore
SplineSet
200 333 m 0,0,1
 185 333 185 333 173.5 345 c 128,-1,2
 162 357 162 357 162 374 c 256,3,4
 162 391 162 391 173 403 c 128,-1,5
 184 415 184 415 200 415 c 256,6,7
 216 415 216 415 228 403 c 128,-1,8
 240 391 240 391 240 374 c 0,9,10
 240 358 240 358 228 345.5 c 128,-1,11
 216 333 216 333 200 333 c 0,0,1
200 -12 m 0,12,13
 185 -12 185 -12 173.5 -0.5 c 128,-1,14
 162 11 162 11 162 29 c 256,15,16
 162 46 162 46 173 58 c 128,-1,17
 184 70 184 70 200 70 c 256,18,19
 216 70 216 70 228 58 c 128,-1,20
 240 46 240 46 240 29 c 0,21,22
 240 13 240 13 228 0.5 c 128,-1,23
 216 -12 216 -12 200 -12 c 0,12,13
EndSplineSet
Validated: 1
EndChar

StartChar: semicolon
Encoding: 59 59 541
Width: 409
Flags: W
LayerCount: 2
Fore
SplineSet
200 333 m 0,0,1
 185 333 185 333 173.5 345 c 128,-1,2
 162 357 162 357 162 374 c 256,3,4
 162 391 162 391 173 403 c 128,-1,5
 184 415 184 415 200 415 c 256,6,7
 216 415 216 415 228 403 c 128,-1,8
 240 391 240 391 240 374 c 0,9,10
 240 358 240 358 228 345.5 c 128,-1,11
 216 333 216 333 200 333 c 0,0,1
170 -172 m 1,12,-1
 146 -151 l 1,13,14
 174 -118 174 -118 186.5 -89 c 128,-1,15
 199 -60 199 -60 199 -39 c 0,16,17
 199 -26 199 -26 190.5 -17 c 128,-1,18
 182 -8 182 -8 174 1 c 128,-1,19
 166 10 166 10 166 26 c 0,20,21
 166 45 166 45 176.5 57.5 c 128,-1,22
 187 70 187 70 204 70 c 256,23,24
 221 70 221 70 234 54 c 128,-1,25
 247 38 247 38 247 10 c 0,26,27
 247 -28 247 -28 229.5 -74 c 128,-1,28
 212 -120 212 -120 170 -172 c 1,12,-1
EndSplineSet
Validated: 1
EndChar

StartChar: ellipsis
Encoding: 8230 8230 542
Width: 409
Flags: W
LayerCount: 2
Fore
SplineSet
56 -12 m 0,0,1
 41 -12 41 -12 29.5 0 c 128,-1,2
 18 12 18 12 18 29 c 256,3,4
 18 46 18 46 29.5 58 c 128,-1,5
 41 70 41 70 56 70 c 0,6,7
 72 70 72 70 83.5 58 c 128,-1,8
 95 46 95 46 95 29 c 0,9,10
 95 13 95 13 83.5 0.5 c 128,-1,11
 72 -12 72 -12 56 -12 c 0,0,1
196 -12 m 0,12,13
 181 -12 181 -12 169.5 0 c 128,-1,14
 158 12 158 12 158 29 c 256,15,16
 158 46 158 46 169 58 c 128,-1,17
 180 70 180 70 196 70 c 256,18,19
 212 70 212 70 223 58 c 128,-1,20
 234 46 234 46 234 29 c 0,21,22
 234 13 234 13 223 0.5 c 128,-1,23
 212 -12 212 -12 196 -12 c 0,12,13
337 -12 m 0,24,25
 321 -12 321 -12 309.5 0 c 128,-1,26
 298 12 298 12 298 29 c 256,27,28
 298 46 298 46 309.5 58 c 128,-1,29
 321 70 321 70 337 70 c 0,30,31
 352 70 352 70 363.5 58 c 128,-1,32
 375 46 375 46 375 29 c 0,33,34
 375 13 375 13 363.5 0.5 c 128,-1,35
 352 -12 352 -12 337 -12 c 0,24,25
EndSplineSet
Validated: 1
EndChar

StartChar: exclam
Encoding: 33 33 543
Width: 409
Flags: W
LayerCount: 2
Fore
SplineSet
182 199 m 1,0,-1
 167 628 l 2,1,2
 167 654 167 654 174.5 669 c 128,-1,3
 182 684 182 684 198 684 c 256,4,5
 213 684 213 684 221 668 c 128,-1,6
 229 652 229 652 228 617 c 2,7,-1
 212 199 l 1,8,-1
 182 199 l 1,0,-1
197 -12 m 0,9,10
 181 -12 181 -12 169.5 0 c 128,-1,11
 158 12 158 12 158 30 c 0,12,13
 158 46 158 46 169 58.5 c 128,-1,14
 180 71 180 71 197 71 c 0,15,16
 212 71 212 71 224 58.5 c 128,-1,17
 236 46 236 46 236 30 c 0,18,19
 236 13 236 13 224 0.5 c 128,-1,20
 212 -12 212 -12 197 -12 c 0,9,10
EndSplineSet
Validated: 33
EndChar

StartChar: exclamdown
Encoding: 161 161 544
Width: 409
Flags: W
LayerCount: 2
Fore
SplineSet
197 613 m 0,0,1
 212 613 212 613 224 601 c 128,-1,2
 236 589 236 589 236 572 c 256,3,4
 236 555 236 555 224 542.5 c 128,-1,5
 212 530 212 530 197 530 c 0,6,7
 181 530 181 530 169.5 542.5 c 128,-1,8
 158 555 158 555 158 572 c 0,9,10
 158 588 158 588 169.5 600.5 c 128,-1,11
 181 613 181 613 197 613 c 0,0,1
182 402 m 1,12,-1
 212 402 l 1,13,-1
 228 -16 l 2,14,15
 229 -51 229 -51 221 -67 c 128,-1,16
 213 -83 213 -83 198 -83 c 256,17,18
 183 -83 183 -83 175 -67.5 c 128,-1,19
 167 -52 167 -52 167 -27 c 2,20,-1
 182 402 l 1,12,-1
EndSplineSet
Validated: 33
EndChar

StartChar: question
Encoding: 63 63 545
Width: 409
Flags: W
LayerCount: 2
Fore
SplineSet
191 227 m 2,0,1
 191 272 191 272 203 301.5 c 128,-1,2
 215 331 215 331 232 352.5 c 128,-1,3
 249 374 249 374 266.5 395 c 128,-1,4
 284 416 284 416 295 444.5 c 128,-1,5
 306 473 306 473 306 518 c 0,6,7
 306 574 306 574 280 607 c 128,-1,8
 254 640 254 640 209 640 c 0,9,10
 175 640 175 640 153 627.5 c 128,-1,11
 131 615 131 615 113 590 c 0,12,13
 105 576 105 576 102.5 568 c 128,-1,14
 100 560 100 560 103 552 c 1,15,-1
 99 546 l 1,16,-1
 91 551 l 1,17,-1
 58 574 l 1,18,19
 85 624 85 624 118 652.5 c 128,-1,20
 151 681 151 681 211 681 c 0,21,22
 273 681 273 681 311.5 640.5 c 128,-1,23
 350 600 350 600 350 521 c 0,24,25
 350 471 350 471 338.5 439 c 128,-1,26
 327 407 327 407 309.5 384.5 c 128,-1,27
 292 362 292 362 274.5 342 c 128,-1,28
 257 322 257 322 245 295 c 128,-1,29
 233 268 233 268 233 227 c 2,30,-1
 233 185 l 1,31,-1
 191 185 l 1,32,-1
 191 227 l 2,0,1
215 -12 m 0,33,34
 199 -12 199 -12 187.5 0 c 128,-1,35
 176 12 176 12 176 29 c 256,36,37
 176 46 176 46 187.5 58 c 128,-1,38
 199 70 199 70 215 70 c 0,39,40
 230 70 230 70 241.5 58 c 128,-1,41
 253 46 253 46 253 29 c 0,42,43
 253 13 253 13 241.5 0.5 c 128,-1,44
 230 -12 230 -12 215 -12 c 0,33,34
EndSplineSet
Validated: 1
EndChar

StartChar: questiondown
Encoding: 191 191 546
Width: 409
Flags: W
LayerCount: 2
Fore
SplineSet
194 567 m 256,0,1
 209 567 209 567 220.5 555 c 128,-1,2
 232 543 232 543 232 526 c 256,3,4
 232 509 232 509 220.5 497 c 128,-1,5
 209 485 209 485 194 485 c 256,6,7
 179 485 179 485 167.5 497 c 128,-1,8
 156 509 156 509 156 526 c 0,9,10
 156 542 156 542 167.5 554.5 c 128,-1,11
 179 567 179 567 194 567 c 256,0,1
216 328 m 2,12,13
 216 283 216 283 205 253.5 c 128,-1,14
 194 224 194 224 176.5 202.5 c 128,-1,15
 159 181 159 181 142 160 c 128,-1,16
 125 139 125 139 113 110.5 c 128,-1,17
 101 82 101 82 101 37 c 0,18,19
 101 -19 101 -19 127.5 -52 c 128,-1,20
 154 -85 154 -85 200 -85 c 0,21,22
 233 -85 233 -85 254.5 -72.5 c 128,-1,23
 276 -60 276 -60 296 -35 c 0,24,25
 303 -21 303 -21 305 -13 c 128,-1,26
 307 -5 307 -5 305 3 c 1,27,-1
 309 9 l 1,28,-1
 317 4 l 1,29,-1
 349 -19 l 1,30,31
 322 -69 322 -69 290 -97.5 c 128,-1,32
 258 -126 258 -126 197 -126 c 256,33,34
 136 -126 136 -126 97 -85.5 c 128,-1,35
 58 -45 58 -45 58 34 c 0,36,37
 58 84 58 84 70 116 c 128,-1,38
 82 148 82 148 99.5 170.5 c 128,-1,39
 117 193 117 193 134 213 c 128,-1,40
 151 233 151 233 163 260 c 128,-1,41
 175 287 175 287 175 328 c 2,42,-1
 175 370 l 1,43,-1
 216 370 l 1,44,-1
 216 328 l 2,12,13
EndSplineSet
Validated: 1
EndChar

StartChar: periodcentered
Encoding: 183 183 547
Width: 409
Flags: W
LayerCount: 2
Fore
SplineSet
196 297 m 256,0,1
 180 297 180 297 168.5 309.5 c 128,-1,2
 157 322 157 322 157 338 c 0,3,4
 157 355 157 355 168.5 367 c 128,-1,5
 180 379 180 379 196 379 c 256,6,7
 211 379 211 379 222.5 367 c 128,-1,8
 234 355 234 355 234 338 c 0,9,10
 234 322 234 322 223 309.5 c 128,-1,11
 212 297 212 297 196 297 c 256,0,1
EndSplineSet
Validated: 1
Substitution2: "Single Substitution lookup 11 subtable" periodcentered.loclCAT
Substitution2: "Single Substitution lookup 10 subtable" periodcentered.loclCAT
Substitution2: "'aalt' Access All Alternates in Latin lookup 0 subtable" periodcentered.loclCAT
EndChar

StartChar: bullet
Encoding: 8226 8226 548
Width: 409
Flags: W
LayerCount: 2
Fore
SplineSet
207 243 m 0,0,1
 185 243 185 243 169.5 260.5 c 128,-1,2
 154 278 154 278 154 302 c 0,3,4
 154 328 154 328 170 345 c 128,-1,5
 186 362 186 362 207 362 c 0,6,7
 229 362 229 362 245 344.5 c 128,-1,8
 261 327 261 327 261 302 c 256,9,10
 261 277 261 277 245.5 260 c 128,-1,11
 230 243 230 243 207 243 c 0,0,1
EndSplineSet
Validated: 1
EndChar

StartChar: asterisk
Encoding: 42 42 549
Width: 409
Flags: W
LayerCount: 2
Fore
SplineSet
109 132 m 1,0,-1
 74 161 l 1,1,-1
 180 326 l 1,2,-1
 39 388 l 1,3,-1
 58 430 l 1,4,-1
 190 357 l 1,5,-1
 182 549 l 1,6,-1
 230 549 l 1,7,-1
 220 357 l 1,8,-1
 354 429 l 1,9,-1
 371 387 l 1,10,-1
 228 326 l 1,11,-1
 335 162 l 1,12,-1
 300 132 l 1,13,-1
 205 302 l 1,14,-1
 109 132 l 1,0,-1
EndSplineSet
Validated: 1
Substitution2: "'ss01' Style Set 1 in Latin lookup 35 subtable" asterisk.ss01
Substitution2: "'salt' Stylistic Alternatives in Latin lookup 34 subtable" asterisk.ss01
Substitution2: "'aalt' Access All Alternates in Latin lookup 0 subtable" asterisk.ss01
EndChar

StartChar: uni2E12
Encoding: 11794 11794 550
Width: 409
Flags: W
LayerCount: 2
Fore
SplineSet
164 -133 m 1,0,-1
 164 -95 l 1,1,2
 197 -95 197 -95 214.5 -68 c 128,-1,3
 232 -41 232 -41 232 1 c 0,4,5
 232 42 232 42 215 69.5 c 128,-1,6
 198 97 198 97 164 97 c 1,7,-1
 164 134 l 1,8,9
 212 134 212 134 241.5 97.5 c 128,-1,10
 271 61 271 61 271 0 c 0,11,12
 271 -59 271 -59 242 -96 c 128,-1,13
 213 -133 213 -133 164 -133 c 1,0,-1
EndSplineSet
Validated: 1
EndChar

StartChar: numbersign
Encoding: 35 35 551
Width: 409
Flags: W
LayerCount: 2
Fore
SplineSet
227 10 m 1,0,-1
 246 205 l 1,1,-1
 142 205 l 1,2,-1
 125 14 l 1,3,-1
 87 13 l 1,4,-1
 104 203 l 1,5,-1
 25 203 l 1,6,-1
 29 236 l 1,7,-1
 110 236 l 1,8,-1
 126 424 l 1,9,-1
 37 424 l 1,10,-1
 39 458 l 1,11,-1
 130 458 l 1,12,-1
 146 639 l 1,13,-1
 185 641 l 1,14,-1
 168 460 l 1,15,-1
 271 460 l 1,16,-1
 288 637 l 1,17,-1
 328 638 l 1,18,-1
 311 461 l 1,19,-1
 386 461 l 1,20,-1
 381 427 l 1,21,-1
 306 427 l 1,22,-1
 289 240 l 1,23,-1
 371 240 l 1,24,-1
 366 207 l 1,25,-1
 285 207 l 1,26,-1
 267 14 l 1,27,-1
 227 10 l 1,0,-1
147 238 m 1,28,-1
 250 238 l 1,29,-1
 267 425 l 1,30,-1
 164 425 l 1,31,-1
 147 238 l 1,28,-1
EndSplineSet
Validated: 1
EndChar

StartChar: slash
Encoding: 47 47 552
Width: 409
Flags: W
LayerCount: 2
Fore
SplineSet
101 -43 m 1,0,-1
 61 -26 l 1,1,-1
 309 681 l 1,2,-1
 348 663 l 1,3,-1
 101 -43 l 1,0,-1
EndSplineSet
Validated: 1
Substitution2: "'frac' Diagonal Fractions in Latin lookup 23 subtable" fraction
Substitution2: "'aalt' Access All Alternates in Latin lookup 0 subtable" fraction
EndChar

StartChar: backslash
Encoding: 92 92 553
Width: 409
Flags: W
LayerCount: 2
Fore
SplineSet
309 -43 m 1,0,-1
 61 663 l 1,1,-1
 101 681 l 1,2,-1
 348 -25 l 1,3,-1
 309 -43 l 1,0,-1
EndSplineSet
Validated: 1
EndChar

StartChar: asterisk.ss01
Encoding: 65572 -1 555
Width: 409
Flags: W
LayerCount: 2
Fore
SplineSet
109 194 m 1,0,-1
 74 222 l 1,1,-1
 180 387 l 1,2,-1
 39 450 l 1,3,-1
 58 492 l 1,4,-1
 190 419 l 1,5,-1
 182 610 l 1,6,-1
 230 610 l 1,7,-1
 220 419 l 1,8,-1
 354 490 l 1,9,-1
 371 449 l 1,10,-1
 228 387 l 1,11,-1
 335 223 l 1,12,-1
 300 194 l 1,13,-1
 205 364 l 1,14,-1
 109 194 l 1,0,-1
EndSplineSet
Validated: 1
EndChar

StartChar: parenleft
Encoding: 40 40 556
Width: 409
Flags: W
LayerCount: 2
Fore
SplineSet
321 -106 m 1,0,1
 253 -66 253 -66 203.5 1 c 128,-1,2
 154 68 154 68 126.5 152.5 c 128,-1,3
 99 237 99 237 99 328 c 256,4,5
 99 419 99 419 126 501 c 128,-1,6
 153 583 153 583 201 648.5 c 128,-1,7
 249 714 249 714 315 753 c 1,8,-1
 329 713 l 1,9,10
 274 676 274 676 231.5 615.5 c 128,-1,11
 189 555 189 555 166 480.5 c 128,-1,12
 143 406 143 406 143 325 c 0,13,14
 143 245 143 245 166.5 169 c 128,-1,15
 190 93 190 93 233 31.5 c 128,-1,16
 276 -30 276 -30 334 -68 c 1,17,-1
 321 -106 l 1,0,1
EndSplineSet
Validated: 1
EndChar

StartChar: parenright
Encoding: 41 41 557
Width: 409
Flags: W
LayerCount: 2
Fore
SplineSet
109 -106 m 1,0,-1
 94 -68 l 1,1,2
 152 -30 152 -30 195 31.5 c 128,-1,3
 238 93 238 93 262 169 c 128,-1,4
 286 245 286 245 286 325 c 0,5,6
 286 406 286 406 263 480.5 c 128,-1,7
 240 555 240 555 198 615.5 c 128,-1,8
 156 676 156 676 100 713 c 1,9,-1
 114 753 l 1,10,11
 180 714 180 714 228 648.5 c 128,-1,12
 276 583 276 583 303 501 c 128,-1,13
 330 419 330 419 330 328 c 256,14,15
 330 237 330 237 302.5 152.5 c 128,-1,16
 275 68 275 68 226 1 c 128,-1,17
 177 -66 177 -66 109 -106 c 1,0,-1
EndSplineSet
Validated: 1
EndChar

StartChar: braceleft
Encoding: 123 123 558
Width: 409
Flags: W
LayerCount: 2
Fore
SplineSet
307 -97 m 2,0,1
 248 -97 248 -97 210 -81.5 c 128,-1,2
 172 -66 172 -66 154.5 -27 c 128,-1,3
 137 12 137 12 139 82 c 2,4,-1
 142 184 l 2,5,6
 142 255 142 255 119.5 281 c 128,-1,7
 97 307 97 307 60 307 c 2,8,-1
 50 307 l 1,9,-1
 50 348 l 1,10,-1
 66 348 l 2,11,12
 101 348 101 348 122.5 376 c 128,-1,13
 144 404 144 404 144 466 c 2,14,-1
 142 540 l 1,15,16
 142 718 142 718 286 718 c 2,17,-1
 332 718 l 1,18,-1
 332 678 l 1,19,-1
 273 678 l 2,20,21
 233 678 233 678 210 644.5 c 128,-1,22
 187 611 187 611 187 551 c 2,23,-1
 188 479 l 2,24,25
 188 423 188 423 171.5 383 c 128,-1,26
 155 343 155 343 119 328 c 1,27,28
 154 316 154 316 170.5 275 c 128,-1,29
 187 234 187 234 187 169 c 2,30,-1
 184 83 l 2,31,32
 184 1 184 1 210 -28 c 128,-1,33
 236 -57 236 -57 295 -57 c 2,34,-1
 331 -57 l 1,35,-1
 331 -97 l 1,36,-1
 307 -97 l 2,0,1
EndSplineSet
Validated: 33
EndChar

StartChar: braceright
Encoding: 125 125 559
Width: 409
Flags: W
LayerCount: 2
Fore
SplineSet
79 -97 m 2,0,-1
 56 -97 l 1,1,-1
 56 -57 l 1,2,-1
 91 -57 l 2,3,4
 150 -57 150 -57 176 -28 c 128,-1,5
 202 1 202 1 202 83 c 2,6,-1
 199 169 l 2,7,8
 199 235 199 235 215.5 275 c 128,-1,9
 232 315 232 315 268 328 c 1,10,11
 232 343 232 343 215 383 c 128,-1,12
 198 423 198 423 198 479 c 2,13,-1
 199 551 l 2,14,15
 199 611 199 611 176 644.5 c 128,-1,16
 153 678 153 678 113 678 c 2,17,-1
 55 678 l 1,18,-1
 55 718 l 1,19,-1
 100 718 l 2,20,21
 243 718 243 718 244 540 c 1,22,-1
 242 466 l 2,23,24
 242 405 242 405 264.5 376.5 c 128,-1,25
 287 348 287 348 321 348 c 2,26,-1
 337 348 l 1,27,-1
 337 307 l 1,28,-1
 327 307 l 2,29,30
 289 307 289 307 266.5 281 c 128,-1,31
 244 255 244 255 244 184 c 2,32,-1
 247 82 l 2,33,34
 249 12 249 12 231.5 -27 c 128,-1,35
 214 -66 214 -66 176 -81.5 c 128,-1,36
 138 -97 138 -97 79 -97 c 2,0,-1
EndSplineSet
Validated: 33
EndChar

StartChar: bracketleft
Encoding: 91 91 560
Width: 409
Flags: W
LayerCount: 2
Fore
SplineSet
113 -91 m 1,0,-1
 113 686 l 1,1,-1
 342 686 l 1,2,-1
 342 644 l 1,3,-1
 155 644 l 1,4,-1
 155 -52 l 1,5,-1
 343 -52 l 1,6,-1
 343 -91 l 1,7,-1
 113 -91 l 1,0,-1
EndSplineSet
Validated: 1
EndChar

StartChar: bracketright
Encoding: 93 93 561
Width: 409
Flags: W
LayerCount: 2
Fore
SplineSet
334 -91 m 1,0,-1
 103 -91 l 1,1,-1
 103 -52 l 1,2,-1
 292 -52 l 1,3,-1
 292 644 l 1,4,-1
 104 644 l 1,5,-1
 104 686 l 1,6,-1
 334 686 l 1,7,-1
 334 -91 l 1,0,-1
EndSplineSet
Validated: 1
EndChar

StartChar: hyphen
Encoding: 45 45 562
Width: 409
Flags: W
LayerCount: 2
Fore
SplineSet
96 301 m 1,0,-1
 96 346 l 1,1,-1
 316 346 l 1,2,-1
 316 301 l 1,3,-1
 96 301 l 1,0,-1
EndSplineSet
Validated: 1
EndChar

StartChar: endash
Encoding: 8211 8211 564
Width: 409
Flags: W
LayerCount: 2
Fore
SplineSet
60 301 m 1,0,-1
 60 346 l 1,1,-1
 351 346 l 1,2,-1
 351 301 l 1,3,-1
 60 301 l 1,0,-1
EndSplineSet
Validated: 1
EndChar

StartChar: emdash
Encoding: 8212 8212 565
Width: 409
Flags: W
LayerCount: 2
Fore
SplineSet
8 301 m 1,0,-1
 8 346 l 1,1,-1
 401 346 l 1,2,-1
 401 301 l 1,3,-1
 8 301 l 1,0,-1
EndSplineSet
Validated: 1
EndChar

StartChar: underscore
Encoding: 95 95 569
Width: 409
Flags: W
LayerCount: 2
Fore
SplineSet
33 -72 m 1,0,-1
 33 -30 l 1,1,-1
 378 -30 l 1,2,-1
 378 -72 l 1,3,-1
 33 -72 l 1,0,-1
EndSplineSet
Validated: 1
EndChar

StartChar: quotedblbase
Encoding: 8222 8222 571
Width: 409
Flags: W
LayerCount: 2
Fore
SplineSet
84 -159 m 1,0,-1
 60 -137 l 1,1,2
 85 -109 85 -109 98 -74.5 c 128,-1,3
 111 -40 111 -40 111 -18 c 0,4,5
 111 -2 111 -2 102.5 6.5 c 128,-1,6
 94 15 94 15 86 24 c 128,-1,7
 78 33 78 33 78 48 c 0,8,9
 78 67 78 67 88 79 c 128,-1,10
 98 91 98 91 116 91 c 256,11,12
 133 91 133 91 145.5 74 c 128,-1,13
 158 57 158 57 158 31 c 0,14,15
 158 -9 158 -9 140.5 -59.5 c 128,-1,16
 123 -110 123 -110 84 -159 c 1,0,-1
254 -159 m 1,17,-1
 230 -137 l 1,18,19
 255 -109 255 -109 268 -74.5 c 128,-1,20
 281 -40 281 -40 281 -18 c 0,21,22
 281 -2 281 -2 272.5 6.5 c 128,-1,23
 264 15 264 15 256 24 c 128,-1,24
 248 33 248 33 248 48 c 0,25,26
 248 67 248 67 258 79 c 128,-1,27
 268 91 268 91 286 91 c 256,28,29
 303 91 303 91 315.5 74 c 128,-1,30
 328 57 328 57 328 31 c 0,31,32
 328 -9 328 -9 310.5 -59.5 c 128,-1,33
 293 -110 293 -110 254 -159 c 1,17,-1
EndSplineSet
Validated: 1
EndChar

StartChar: quotedblleft
Encoding: 8220 8220 572
Width: 409
Flags: W
LayerCount: 2
Fore
SplineSet
150 651 m 1,0,-1
 173 630 l 1,1,2
 148 602 148 602 135.5 567 c 128,-1,3
 123 532 123 532 123 511 c 0,4,5
 123 495 123 495 131 486 c 128,-1,6
 139 477 139 477 147.5 468.5 c 128,-1,7
 156 460 156 460 156 445 c 0,8,9
 156 425 156 425 145.5 413 c 128,-1,10
 135 401 135 401 118 401 c 256,11,12
 101 401 101 401 88.5 418 c 128,-1,13
 76 435 76 435 76 462 c 0,14,15
 76 502 76 502 93.5 552 c 128,-1,16
 111 602 111 602 150 651 c 1,0,-1
318 651 m 1,17,-1
 342 630 l 1,18,19
 317 602 317 602 304.5 567 c 128,-1,20
 292 532 292 532 292 511 c 0,21,22
 292 495 292 495 300 486 c 128,-1,23
 308 477 308 477 316.5 468.5 c 128,-1,24
 325 460 325 460 325 445 c 0,25,26
 325 425 325 425 314.5 413 c 128,-1,27
 304 401 304 401 287 401 c 256,28,29
 270 401 270 401 257.5 418 c 128,-1,30
 245 435 245 435 245 462 c 0,31,32
 245 502 245 502 262 552 c 128,-1,33
 279 602 279 602 318 651 c 1,17,-1
EndSplineSet
Validated: 1
EndChar

StartChar: quotedblright
Encoding: 8221 8221 573
Width: 409
Flags: W
LayerCount: 2
Fore
SplineSet
266 399 m 1,0,-1
 243 421 l 1,1,2
 268 449 268 449 281 483.5 c 128,-1,3
 294 518 294 518 294 540 c 0,4,5
 294 556 294 556 286 564.5 c 128,-1,6
 278 573 278 573 269.5 582 c 128,-1,7
 261 591 261 591 261 606 c 0,8,9
 261 625 261 625 271.5 637 c 128,-1,10
 282 649 282 649 299 649 c 256,11,12
 316 649 316 649 328.5 632 c 128,-1,13
 341 615 341 615 341 589 c 0,14,15
 341 549 341 549 323 498.5 c 128,-1,16
 305 448 305 448 266 399 c 1,0,-1
97 399 m 1,17,-1
 74 421 l 1,18,19
 99 449 99 449 112 483.5 c 128,-1,20
 125 518 125 518 125 540 c 0,21,22
 125 556 125 556 117 564.5 c 128,-1,23
 109 573 109 573 100.5 582 c 128,-1,24
 92 591 92 591 92 606 c 0,25,26
 92 625 92 625 102.5 637 c 128,-1,27
 113 649 113 649 130 649 c 256,28,29
 147 649 147 649 159.5 632 c 128,-1,30
 172 615 172 615 172 589 c 0,31,32
 172 549 172 549 154 498.5 c 128,-1,33
 136 448 136 448 97 399 c 1,17,-1
EndSplineSet
Validated: 1
EndChar

StartChar: quoteleft
Encoding: 8216 8216 574
Width: 409
Flags: W
LayerCount: 2
Fore
SplineSet
231 651 m 1,0,-1
 255 630 l 1,1,2
 230 602 230 602 217.5 567 c 128,-1,3
 205 532 205 532 205 511 c 0,4,5
 205 495 205 495 213 486 c 128,-1,6
 221 477 221 477 229.5 468.5 c 128,-1,7
 238 460 238 460 238 445 c 0,8,9
 238 425 238 425 227.5 413 c 128,-1,10
 217 401 217 401 200 401 c 256,11,12
 183 401 183 401 170.5 418 c 128,-1,13
 158 435 158 435 158 462 c 0,14,15
 158 502 158 502 175 552 c 128,-1,16
 192 602 192 602 231 651 c 1,0,-1
EndSplineSet
Validated: 1
EndChar

StartChar: quoteright
Encoding: 8217 8217 575
Width: 409
Flags: W
LayerCount: 2
Fore
SplineSet
169 401 m 1,0,-1
 145 423 l 1,1,2
 170 451 170 451 183 485.5 c 128,-1,3
 196 520 196 520 196 542 c 0,4,5
 196 558 196 558 187.5 566.5 c 128,-1,6
 179 575 179 575 171 584 c 128,-1,7
 163 593 163 593 163 607 c 0,8,9
 163 626 163 626 173 638.5 c 128,-1,10
 183 651 183 651 201 651 c 256,11,12
 218 651 218 651 230.5 634 c 128,-1,13
 243 617 243 617 243 591 c 0,14,15
 243 550 243 550 225.5 499.5 c 128,-1,16
 208 449 208 449 169 401 c 1,0,-1
EndSplineSet
Validated: 1
EndChar

StartChar: guillemotleft
Encoding: 171 171 576
Width: 409
Flags: W
LayerCount: 2
Fore
SplineSet
183 68 m 1,0,-1
 56 238 l 1,1,-1
 56 256 l 1,2,-1
 178 403 l 1,3,-1
 204 375 l 1,4,-1
 98 247 l 1,5,-1
 210 96 l 1,6,-1
 183 68 l 1,0,-1
336 68 m 1,7,-1
 210 238 l 1,8,-1
 210 256 l 1,9,-1
 330 403 l 1,10,-1
 355 375 l 1,11,-1
 251 247 l 1,12,-1
 362 96 l 1,13,-1
 336 68 l 1,7,-1
EndSplineSet
Validated: 1
EndChar

StartChar: guillemotright
Encoding: 187 187 577
Width: 409
Flags: W
LayerCount: 2
Fore
SplineSet
241 68 m 1,0,-1
 215 96 l 1,1,-1
 327 247 l 1,2,-1
 221 375 l 1,3,-1
 247 403 l 1,4,-1
 368 256 l 1,5,-1
 368 238 l 1,6,-1
 241 68 l 1,0,-1
89 68 m 1,7,-1
 62 96 l 1,8,-1
 174 247 l 1,9,-1
 69 375 l 1,10,-1
 94 403 l 1,11,-1
 215 256 l 1,12,-1
 215 238 l 1,13,-1
 89 68 l 1,7,-1
EndSplineSet
Validated: 1
EndChar

StartChar: guilsinglleft
Encoding: 8249 8249 578
Width: 409
Flags: W
LayerCount: 2
Fore
SplineSet
252 69 m 1,0,-1
 125 239 l 1,1,-1
 125 258 l 1,2,-1
 246 404 l 1,3,-1
 271 374 l 1,4,-1
 169 248 l 1,5,-1
 279 97 l 1,6,-1
 252 69 l 1,0,-1
EndSplineSet
Validated: 1
EndChar

StartChar: guilsinglright
Encoding: 8250 8250 579
Width: 409
Flags: W
LayerCount: 2
Fore
SplineSet
150 69 m 1,0,-1
 123 97 l 1,1,-1
 233 248 l 1,2,-1
 130 374 l 1,3,-1
 156 404 l 1,4,-1
 276 258 l 1,5,-1
 276 239 l 1,6,-1
 150 69 l 1,0,-1
EndSplineSet
Validated: 1
EndChar

StartChar: quotesingle
Encoding: 39 39 581
Width: 409
Flags: W
LayerCount: 2
Fore
SplineSet
180 681 m 1,0,-1
 229 681 l 1,1,2
 229 620 229 620 228.5 583 c 128,-1,3
 228 546 228 546 226.5 521 c 128,-1,4
 225 496 225 496 223 473 c 128,-1,5
 221 450 221 450 220 417 c 1,6,-1
 190 417 l 1,7,8
 188 450 188 450 186 473 c 128,-1,9
 184 496 184 496 183 520.5 c 128,-1,10
 182 545 182 545 181 582.5 c 128,-1,11
 180 620 180 620 180 681 c 1,0,-1
EndSplineSet
Validated: 1
Substitution2: "'ss03' Style Set 3 in Latin lookup 37 subtable" quotesingle.ss03
Substitution2: "'aalt' Access All Alternates in Latin lookup 0 subtable" quotesingle.ss03
EndChar

StartChar: quotesingle.ss03
Encoding: 65574 -1 583
Width: 409
Flags: W
LayerCount: 2
Fore
SplineSet
210 421 m 1,0,-1
 179 429 l 1,1,2
 195 485 195 485 199.5 524 c 128,-1,3
 204 563 204 563 203 589 c 128,-1,4
 202 615 202 615 202 634 c 0,5,6
 202 680 202 680 227 680 c 0,7,8
 254 680 254 680 254 639 c 0,9,10
 254 612 254 612 250.5 583 c 128,-1,11
 247 554 247 554 237 515 c 128,-1,12
 227 476 227 476 210 421 c 1,0,-1
EndSplineSet
Validated: 33
EndChar

StartChar: hyphen_greater.dlig
Encoding: 65575 -1 584
Width: 819
Flags: W
LayerCount: 2
Fore
SplineSet
359 41 m 1,0,-1
 359 93 l 1,1,-1
 715 327 l 1,2,-1
 360 545 l 1,3,-1
 360 596 l 1,4,-1
 765 345 l 1,5,-1
 765 310 l 1,6,-1
 359 41 l 1,0,-1
41 304 m 1,7,-1
 41 347 l 1,8,-1
 535 347 l 1,9,-1
 535 304 l 1,10,-1
 41 304 l 1,7,-1
EndSplineSet
Validated: 1
Ligature2: "'dlig' Discretionary Ligatures in Latin lookup 32 subtable" hyphen greater
EndChar

StartChar: exclam_equal_equal.dlig
Encoding: 65576 -1 585
Width: 1228
Flags: W
LayerCount: 2
Fore
SplineSet
37 11 m 1,0,-1
 37 55 l 1,1,-1
 528 55 l 1,2,-1
 586 210 l 1,3,-1
 176 210 l 1,4,-1
 176 253 l 1,5,-1
 602 253 l 1,6,-1
 659 409 l 1,7,-1
 37 409 l 1,8,-1
 37 452 l 1,9,-1
 675 452 l 1,10,-1
 726 589 l 1,11,-1
 765 573 l 1,12,-1
 720 452 l 1,13,-1
 1192 452 l 1,14,-1
 1192 409 l 1,15,-1
 703 409 l 1,16,-1
 646 253 l 1,17,-1
 1053 253 l 1,18,-1
 1053 210 l 1,19,-1
 630 210 l 1,20,-1
 572 55 l 1,21,-1
 1192 55 l 1,22,-1
 1192 11 l 1,23,-1
 556 11 l 1,24,-1
 505 -126 l 1,25,-1
 467 -113 l 1,26,-1
 513 11 l 1,27,-1
 37 11 l 1,0,-1
EndSplineSet
Validated: 1
Ligature2: "'dlig' Discretionary Ligatures in Latin lookup 32 subtable" exclam equal equal
EndChar

StartChar: uni20B5
Encoding: 8373 8373 594
Width: 409
GlyphClass: 2
Flags: W
AnchorPoint: "Anchor-2" 229 0 basechar 0
AnchorPoint: "Anchor-0" 221 638 basechar 0
LayerCount: 2
Fore
SplineSet
202 -73 m 1,0,-1
 202 -7 l 1,1,2
 155 1 155 1 118.5 37 c 128,-1,3
 82 73 82 73 60.5 141.5 c 128,-1,4
 39 210 39 210 39 315 c 0,5,6
 39 431 39 431 62.5 499.5 c 128,-1,7
 86 568 86 568 123.5 601 c 128,-1,8
 161 634 161 634 202 641 c 1,9,-1
 202 691 l 1,10,-1
 243 691 l 1,11,-1
 243 643 l 1,12,13
 293 640 293 640 328.5 610 c 128,-1,14
 364 580 364 580 381 528 c 1,15,-1
 347 508 l 1,16,-1
 340 504 l 1,17,-1
 336 510 l 1,18,19
 339 516 339 516 337 523 c 128,-1,20
 335 530 335 530 328 546 c 0,21,22
 310 574 310 574 288 587 c 128,-1,23
 266 600 266 600 243 602 c 1,24,-1
 243 32 l 1,25,26
 275 35 275 35 300 55 c 128,-1,27
 325 75 325 75 342 109 c 1,28,-1
 374 83 l 1,29,30
 351 38 351 38 320 15 c 128,-1,31
 289 -8 289 -8 243 -10 c 1,32,-1
 243 -73 l 1,33,-1
 202 -73 l 1,0,-1
83 321 m 0,34,35
 83 194 83 194 115.5 122.5 c 128,-1,36
 148 51 148 51 202 36 c 1,37,-1
 202 599 l 1,38,39
 152 587 152 587 117.5 522 c 128,-1,40
 83 457 83 457 83 321 c 0,34,35
EndSplineSet
Validated: 1048577
EndChar

StartChar: cent
Encoding: 162 162 595
Width: 409
GlyphClass: 2
Flags: W
AnchorPoint: "Anchor-2" 233 44 basechar 0
AnchorPoint: "Anchor-0" 233 512 basechar 0
LayerCount: 2
Fore
SplineSet
197 -75 m 1,0,-1
 160 -75 l 1,1,-1
 172 42 l 1,2,3
 115 64 115 64 83 125 c 128,-1,4
 51 186 51 186 51 278 c 0,5,6
 51 395 51 395 101 455 c 128,-1,7
 151 515 151 515 224 517 c 1,8,-1
 238 638 l 1,9,-1
 271 638 l 1,10,-1
 259 516 l 1,11,12
 334 507 334 507 371 442 c 1,13,-1
 345 413 l 1,14,-1
 339 406 l 1,15,-1
 334 411 l 1,16,17
 335 418 335 418 332 425 c 128,-1,18
 329 432 329 432 318 445 c 0,19,20
 292 470 292 470 254 475 c 1,21,-1
 212 77 l 1,22,23
 222 75 222 75 233 75 c 0,24,25
 263 75 263 75 291 89 c 128,-1,26
 319 103 319 103 341 131 c 1,27,-1
 365 96 l 1,28,29
 338 64 338 64 303.5 48.5 c 128,-1,30
 269 33 269 33 229 33 c 0,31,32
 218 33 218 33 208 34 c 1,33,-1
 197 -75 l 1,0,-1
95 281 m 0,34,35
 95 206 95 206 116.5 157 c 128,-1,36
 138 108 138 108 177 88 c 1,37,-1
 219 477 l 1,38,39
 170 474 170 474 132.5 426 c 128,-1,40
 95 378 95 378 95 281 c 0,34,35
EndSplineSet
Validated: 1048577
EndChar

StartChar: colonmonetary
Encoding: 8353 8353 596
Width: 409
GlyphClass: 2
Flags: W
AnchorPoint: "Anchor-2" 229 0 basechar 0
AnchorPoint: "Anchor-0" 221 638 basechar 0
LayerCount: 2
Fore
SplineSet
85 -73 m 1,0,-1
 110 45 l 1,1,2
 78 83 78 83 58.5 149.5 c 128,-1,3
 39 216 39 216 39 315 c 0,4,5
 39 412 39 412 56 476 c 128,-1,6
 73 540 73 540 101 576.5 c 128,-1,7
 129 613 129 613 163.5 628 c 128,-1,8
 198 643 198 643 231 643 c 0,9,10
 234 643 234 643 237 643 c 2,11,-1
 247 691 l 1,12,-1
 274 691 l 1,13,-1
 263 640 l 1,14,15
 278 637 278 637 292 632 c 1,16,-1
 305 691 l 1,17,-1
 333 691 l 1,18,-1
 317 618 l 1,19,20
 360 588 360 588 381 528 c 1,21,-1
 347 508 l 1,22,-1
 340 504 l 1,23,-1
 336 510 l 1,24,25
 339 516 339 516 337 523 c 128,-1,26
 335 530 335 530 328 546 c 0,27,28
 319 560 319 560 307 570 c 1,29,-1
 195 38 l 1,30,31
 213 32 213 32 232 32 c 0,32,33
 268 32 268 32 296 52 c 128,-1,34
 324 72 324 72 342 109 c 1,35,-1
 374 83 l 1,36,37
 349 36 349 36 316.5 13 c 128,-1,38
 284 -10 284 -10 233 -10 c 0,39,40
 208 -10 208 -10 186 -4 c 1,41,-1
 172 -73 l 1,42,-1
 143 -73 l 1,43,-1
 160 6 l 1,44,45
 146 13 146 13 133 24 c 1,46,-1
 113 -73 l 1,47,-1
 85 -73 l 1,0,-1
83 321 m 0,48,49
 83 250 83 250 93.5 196.5 c 128,-1,50
 104 143 104 143 123 108 c 1,51,-1
 227 602 l 1,52,53
 187 601 187 601 154.5 573.5 c 128,-1,54
 122 546 122 546 102.5 484 c 128,-1,55
 83 422 83 422 83 321 c 0,48,49
144 76 m 1,56,57
 155 62 155 62 170 51 c 1,58,-1
 284 590 l 1,59,60
 271 597 271 597 255 600 c 1,61,-1
 144 76 l 1,56,57
EndSplineSet
Validated: 1048577
EndChar

StartChar: currency
Encoding: 164 164 597
Width: 409
Flags: W
LayerCount: 2
Fore
SplineSet
82 173 m 1,0,-1
 57 200 l 1,1,-1
 104 260 l 1,2,3
 79 301 79 301 80 353 c 0,4,5
 80 379 80 379 86 402 c 128,-1,6
 92 425 92 425 105 446 c 1,7,-1
 57 508 l 1,8,-1
 82 536 l 1,9,-1
 127 477 l 1,10,11
 161 510 161 510 206 510 c 0,12,13
 225 510 225 510 245 502.5 c 128,-1,14
 265 495 265 495 283 478 c 1,15,-1
 328 536 l 1,16,-1
 352 510 l 1,17,-1
 306 450 l 1,18,19
 332 407 332 407 332 353 c 256,20,21
 332 300 332 300 307 258 c 1,22,-1
 352 200 l 1,23,-1
 328 173 l 1,24,-1
 284 229 l 1,25,26
 267 213 267 213 246.5 205 c 128,-1,27
 226 197 226 197 206 197 c 0,28,29
 163 197 163 197 126 230 c 1,30,-1
 82 173 l 1,0,-1
205 237 m 0,31,32
 248 237 248 237 271 272.5 c 128,-1,33
 294 308 294 308 294 353 c 0,34,35
 294 401 294 401 271 435 c 128,-1,36
 248 469 248 469 205 469 c 0,37,38
 164 469 164 469 140.5 435 c 128,-1,39
 117 401 117 401 117 353 c 0,40,41
 117 307 117 307 140 272 c 128,-1,42
 163 237 163 237 205 237 c 0,31,32
EndSplineSet
Validated: 33
EndChar

StartChar: dollar
Encoding: 36 36 598
Width: 409
Flags: W
LayerCount: 2
Fore
SplineSet
197 -48 m 1,0,-1
 197 14 l 1,1,2
 151 18 151 18 114.5 38 c 128,-1,3
 78 58 78 58 52 92 c 1,4,-1
 83 138 l 1,5,6
 86 135 86 135 85.5 128 c 128,-1,7
 85 121 85 121 88 117 c 0,8,9
 105 91 105 91 134.5 75 c 128,-1,10
 164 59 164 59 197 55 c 1,11,-1
 197 307 l 1,12,13
 137 333 137 333 103 366 c 128,-1,14
 69 399 69 399 69 459 c 0,15,16
 69 524 69 524 104.5 561 c 128,-1,17
 140 598 140 598 197 605 c 1,18,-1
 197 667 l 1,19,-1
 242 667 l 2,20,21
 242 666 242 666 242 664 c 256,22,23
 242 662 242 662 239.5 657 c 128,-1,24
 237 652 237 652 237 645 c 2,25,-1
 237 606 l 1,26,27
 317 597 317 597 356 535 c 1,28,-1
 330 493 l 1,29,30
 326 495 326 495 325.5 502 c 128,-1,31
 325 509 325 509 321 514 c 0,32,33
 310 532 310 532 287.5 546.5 c 128,-1,34
 265 561 265 561 237 565 c 1,35,-1
 237 339 l 1,36,37
 302 312 302 312 338 279 c 128,-1,38
 374 246 374 246 374 181 c 0,39,40
 374 114 374 114 337 69 c 128,-1,41
 300 24 300 24 237 16 c 1,42,-1
 237 -48 l 1,43,-1
 197 -48 l 1,0,-1
197 355 m 1,44,-1
 197 565 l 1,45,46
 157 559 157 559 134 533.5 c 128,-1,47
 111 508 111 508 111 466 c 0,48,49
 111 425 111 425 132 401 c 128,-1,50
 153 377 153 377 197 355 c 1,44,-1
237 56 m 1,51,52
 277 64 277 64 304 95 c 128,-1,53
 331 126 331 126 331 177 c 0,54,55
 331 223 331 223 306.5 248 c 128,-1,56
 282 273 282 273 237 292 c 1,57,-1
 237 56 l 1,51,52
EndSplineSet
Validated: 1
EndChar

StartChar: dong
Encoding: 8363 8363 599
Width: 409
GlyphClass: 2
Flags: W
AnchorPoint: "Anchor-4" 260 559 basechar 0
AnchorPoint: "Anchor-2" 188 110 basechar 0
AnchorPoint: "Anchor-1" 332 484 basechar 0
AnchorPoint: "Anchor-0" 188 482 basechar 0
LayerCount: 2
Fore
SplineSet
180 101 m 0,0,1
 149 101 149 101 120.5 120.5 c 128,-1,2
 92 140 92 140 74 183.5 c 128,-1,3
 56 227 56 227 56 300 c 0,4,5
 56 371 56 371 74.5 412.5 c 128,-1,6
 93 454 93 454 122 472 c 128,-1,7
 151 490 151 490 183 490 c 0,8,9
 217 490 217 490 241.5 468 c 128,-1,10
 266 446 266 446 275 415 c 1,11,-1
 275 535 l 1,12,-1
 142 535 l 1,13,-1
 142 572 l 1,14,-1
 275 572 l 1,15,-1
 275 654 l 1,16,-1
 315 654 l 1,17,-1
 315 648 l 1,18,19
 308 643 308 643 308 621 c 2,20,-1
 308 572 l 1,21,-1
 361 572 l 1,22,-1
 361 535 l 1,23,-1
 309 535 l 1,24,-1
 309 168 l 2,25,26
 309 154 309 154 310 139 c 128,-1,27
 311 124 311 124 315 110 c 1,28,-1
 282 110 l 1,29,30
 277 123 277 123 275.5 141.5 c 128,-1,31
 274 160 274 160 274 174 c 1,32,33
 263 144 263 144 239.5 122.5 c 128,-1,34
 216 101 216 101 180 101 c 0,0,1
186 135 m 0,35,36
 273 135 273 135 273 299 c 0,37,38
 273 383 273 383 247 420 c 128,-1,39
 221 457 221 457 184 457 c 0,40,41
 143 457 143 457 117 421.5 c 128,-1,42
 91 386 91 386 91 307 c 0,43,44
 91 212 91 212 118.5 173.5 c 128,-1,45
 146 135 146 135 186 135 c 0,35,36
70 44 m 1,46,-1
 335 44 l 1,47,-1
 335 5 l 1,48,-1
 70 5 l 1,49,-1
 70 44 l 1,46,-1
EndSplineSet
Validated: 1048577
EndChar

StartChar: Euro
Encoding: 8364 8364 600
Width: 409
Flags: W
LayerCount: 2
Fore
SplineSet
266 -10 m 0,0,1
 195 -10 195 -10 142 49.5 c 128,-1,2
 89 109 89 109 78 233 c 1,3,-1
 31 233 l 1,4,-1
 39 273 l 1,5,-1
 75 273 l 1,6,7
 74 291 74 291 74.5 323 c 128,-1,8
 75 355 75 355 77 375 c 1,9,-1
 31 375 l 1,10,-1
 39 416 l 1,11,-1
 82 416 l 1,12,13
 94 500 94 500 124.5 549.5 c 128,-1,14
 155 599 155 599 193.5 621 c 128,-1,15
 232 643 232 643 272 643 c 0,16,17
 309 643 309 643 335.5 631.5 c 128,-1,18
 362 620 362 620 381 598 c 1,19,-1
 367 553 l 1,20,21
 359 556 359 556 353 563.5 c 128,-1,22
 347 571 347 571 339 580 c 128,-1,23
 331 589 331 589 314.5 595.5 c 128,-1,24
 298 602 298 602 268 602 c 0,25,26
 218 602 218 602 178.5 556.5 c 128,-1,27
 139 511 139 511 124 416 c 1,28,-1
 327 416 l 1,29,-1
 313 375 l 1,30,-1
 119 375 l 1,31,32
 117 356 117 356 116.5 328 c 128,-1,33
 116 300 116 300 117 273 c 1,34,-1
 283 273 l 1,35,-1
 270 233 l 1,36,-1
 120 233 l 1,37,38
 131 132 131 132 171.5 82 c 128,-1,39
 212 32 212 32 269 32 c 0,40,41
 295 32 295 32 317.5 41 c 128,-1,42
 340 50 340 50 357 70 c 1,43,-1
 379 36 l 1,44,45
 356 10 356 10 327 0 c 128,-1,46
 298 -10 298 -10 266 -10 c 0,0,1
EndSplineSet
Validated: 33
EndChar

StartChar: florin
Encoding: 402 402 601
Width: 409
Flags: W
LayerCount: 2
Fore
SplineSet
80 -179 m 0,0,1
 40 -179 40 -179 17 -151 c 1,2,-1
 42 -105 l 2,3,4
 45 -106 45 -106 48 -113.5 c 128,-1,5
 51 -121 51 -121 59.5 -127 c 128,-1,6
 68 -133 68 -133 86 -133 c 0,7,8
 111 -133 111 -133 129 -97 c 128,-1,9
 147 -61 147 -61 153 27 c 2,10,-1
 171 343 l 1,11,-1
 68 343 l 1,12,-1
 68 383 l 1,13,-1
 173 383 l 1,14,-1
 179 485 l 2,15,16
 186 597 186 597 218 642.5 c 128,-1,17
 250 688 250 688 303 688 c 256,18,19
 356 688 356 688 391 642 c 1,20,-1
 371 591 l 1,21,22
 366 591 366 591 364 601 c 0,23,24
 358 625 358 625 341.5 636.5 c 128,-1,25
 325 648 325 648 304 648 c 0,26,27
 269 648 269 648 249.5 610.5 c 128,-1,28
 230 573 230 573 224 476 c 2,29,-1
 218 383 l 1,30,-1
 324 383 l 1,31,-1
 324 343 l 1,32,-1
 215 343 l 1,33,-1
 196 24 l 2,34,35
 191 -57 191 -57 175 -101 c 128,-1,36
 159 -145 159 -145 134.5 -162 c 128,-1,37
 110 -179 110 -179 80 -179 c 0,0,1
EndSplineSet
Validated: 1
EndChar

StartChar: uni20B2
Encoding: 8370 8370 603
Width: 409
Flags: W
LayerCount: 2
Fore
SplineSet
199 -73 m 1,0,-1
 199 -6 l 1,1,2
 122 7 122 7 77.5 89 c 128,-1,3
 33 171 33 171 33 310 c 0,4,5
 33 406 33 406 48 469 c 128,-1,6
 63 532 63 532 88 569 c 128,-1,7
 113 606 113 606 142 622.5 c 128,-1,8
 171 639 171 639 199 642 c 1,9,-1
 199 691 l 1,10,-1
 239 691 l 1,11,-1
 239 642 l 1,12,13
 297 638 297 638 327 612 c 128,-1,14
 357 586 357 586 374 548 c 1,15,-1
 348 512 l 1,16,17
 343 515 343 515 338.5 527.5 c 128,-1,18
 334 540 334 540 324 555 c 128,-1,19
 314 570 314 570 294 583 c 128,-1,20
 274 596 274 596 239 599 c 1,21,-1
 239 35 l 1,22,23
 267 37 267 37 291.5 49.5 c 128,-1,24
 316 62 316 62 337 81 c 1,25,-1
 337 257 l 1,26,-1
 276 257 l 1,27,-1
 276 299 l 1,28,-1
 378 299 l 1,29,-1
 378 56 l 1,30,31
 309 -4 309 -4 239 -8 c 1,32,-1
 239 -73 l 1,33,-1
 199 -73 l 1,0,-1
78 325 m 0,34,35
 78 200 78 200 110.5 126.5 c 128,-1,36
 143 53 143 53 199 38 c 1,37,-1
 199 598 l 1,38,39
 168 593 168 593 140.5 566 c 128,-1,40
 113 539 113 539 95.5 480.5 c 128,-1,41
 78 422 78 422 78 325 c 0,34,35
EndSplineSet
Validated: 1
EndChar

StartChar: uni20AD
Encoding: 8365 8365 604
Width: 409
Flags: W
LayerCount: 2
Fore
SplineSet
14 340 m 1,0,-1
 14 377 l 1,1,-1
 58 377 l 1,2,-1
 58 638 l 1,3,-1
 113 638 l 1,4,-1
 113 631 l 1,5,6
 108 627 108 627 106 619.5 c 128,-1,7
 104 612 104 612 104 596 c 2,8,-1
 104 330 l 1,9,-1
 335 642 l 1,10,11
 348 638 348 638 369 638 c 2,12,-1
 384 638 l 1,13,-1
 193 377 l 1,14,-1
 362 377 l 1,15,-1
 362 340 l 1,16,-1
 190 340 l 1,17,-1
 396 0 l 1,18,-1
 342 -4 l 1,19,-1
 146 326 l 1,20,-1
 104 269 l 1,21,-1
 104 0 l 1,22,-1
 58 0 l 1,23,-1
 58 340 l 1,24,-1
 14 340 l 1,0,-1
EndSplineSet
Validated: 1
EndChar

StartChar: uni20BA
Encoding: 8378 8378 606
Width: 409
Flags: W
LayerCount: 2
Fore
SplineSet
91 0 m 1,0,-1
 91 289 l 1,1,-1
 20 258 l 1,2,-1
 20 300 l 1,3,-1
 91 331 l 1,4,-1
 91 412 l 1,5,-1
 20 380 l 1,6,-1
 20 422 l 1,7,-1
 91 453 l 1,8,-1
 91 638 l 1,9,-1
 144 638 l 1,10,11
 144 628 144 628 140.5 623 c 128,-1,12
 137 618 137 618 137 603 c 2,13,-1
 137 473 l 1,14,-1
 300 545 l 1,15,-1
 300 503 l 1,16,-1
 137 431 l 1,17,-1
 137 351 l 1,18,-1
 300 423 l 1,19,-1
 300 381 l 1,20,-1
 137 309 l 1,21,-1
 137 43 l 1,22,23
 189 42 189 42 229 59 c 128,-1,24
 269 76 269 76 291 118 c 128,-1,25
 313 160 313 160 313 234 c 1,26,-1
 354 234 l 1,27,28
 354 146 354 146 327 94.5 c 128,-1,29
 300 43 300 43 251.5 21.5 c 128,-1,30
 203 0 203 0 138 0 c 2,31,-1
 91 0 l 1,0,-1
EndSplineSet
Validated: 33
EndChar

StartChar: uni20BC
Encoding: 8380 8380 607
Width: 409
Flags: W
LayerCount: 2
Fore
SplineSet
184 103 m 1,0,-1
 184 543 l 1,1,2
 133 536 133 536 112 491 c 128,-1,3
 91 446 91 446 91 362 c 2,4,-1
 91 32 l 2,5,6
 91 19 91 19 94 13 c 128,-1,7
 97 7 97 7 97 0 c 1,8,-1
 47 0 l 1,9,-1
 47 361 l 2,10,11
 47 473 47 473 81.5 526 c 128,-1,12
 116 579 116 579 184 585 c 1,13,-1
 184 679 l 1,14,-1
 226 679 l 1,15,-1
 226 585 l 1,16,17
 292 580 292 580 329 529 c 128,-1,18
 366 478 366 478 366 358 c 2,19,-1
 366 0 l 1,20,-1
 324 0 l 1,21,-1
 324 359 l 2,22,23
 324 446 324 446 301.5 491.5 c 128,-1,24
 279 537 279 537 226 544 c 1,25,-1
 226 103 l 1,26,-1
 184 103 l 1,0,-1
EndSplineSet
Validated: 1
EndChar

StartChar: uni20A6
Encoding: 8358 8358 608
Width: 409
GlyphClass: 2
Flags: W
AnchorPoint: "Anchor-2" 204 0 basechar 0
AnchorPoint: "Anchor-0" 204 638 basechar 0
LayerCount: 2
Fore
SplineSet
11 334 m 1,0,-1
 62 334 l 1,1,-1
 62 638 l 1,2,-1
 100 638 l 1,3,-1
 222 334 l 1,4,-1
 305 334 l 1,5,-1
 305 638 l 1,6,-1
 351 638 l 1,7,-1
 351 631 l 1,8,9
 346 627 346 627 344.5 619.5 c 128,-1,10
 343 612 343 612 344 596 c 2,11,-1
 344 334 l 1,12,-1
 400 334 l 1,13,-1
 400 297 l 1,14,-1
 344 297 l 1,15,-1
 344 0 l 1,16,-1
 312 0 l 1,17,-1
 194 297 l 1,18,-1
 100 297 l 1,19,-1
 100 0 l 1,20,-1
 62 0 l 1,21,-1
 62 297 l 1,22,-1
 11 297 l 1,23,-1
 11 334 l 1,0,-1
100 531 m 1,24,-1
 100 334 l 1,25,-1
 179 334 l 1,26,-1
 100 531 l 1,24,-1
305 128 m 1,27,-1
 305 297 l 1,28,-1
 238 297 l 1,29,-1
 305 128 l 1,27,-1
EndSplineSet
Validated: 1048577
EndChar

StartChar: peseta
Encoding: 8359 8359 609
Width: 409
Flags: W
LayerCount: 2
Fore
SplineSet
44 638 m 1,0,-1
 102 638 l 2,1,2
 140 638 140 638 165 617 c 128,-1,3
 190 596 190 596 202.5 561.5 c 128,-1,4
 215 527 215 527 215 486 c 0,5,6
 215 416 215 416 189 373 c 128,-1,7
 163 330 163 330 106 330 c 2,8,-1
 83 330 l 1,9,-1
 83 0 l 1,10,-1
 44 0 l 1,11,-1
 44 638 l 1,0,-1
100 367 m 2,12,13
 146 367 146 367 161 399 c 128,-1,14
 176 431 176 431 176 484 c 0,15,16
 176 528 176 528 159 563 c 128,-1,17
 142 598 142 598 101 598 c 2,18,-1
 83 598 l 1,19,-1
 83 367 l 1,20,-1
 100 367 l 2,12,13
202 -12 m 0,21,22
 164 -12 164 -12 152.5 18.5 c 128,-1,23
 141 49 141 49 144 125 c 2,24,-1
 147 226 l 1,25,-1
 100 226 l 1,26,-1
 105 261 l 1,27,-1
 147 261 l 1,28,-1
 150 312 l 1,29,-1
 184 323 l 1,30,-1
 194 325 l 1,31,-1
 196 318 l 1,32,33
 191 312 191 312 187 304.5 c 128,-1,34
 183 297 183 297 183 280 c 2,35,-1
 183 261 l 1,36,-1
 241 261 l 1,37,-1
 234 226 l 1,38,-1
 182 226 l 1,39,-1
 179 131 l 2,40,41
 177 86 177 86 179.5 63 c 128,-1,42
 182 40 182 40 189.5 32.5 c 128,-1,43
 197 25 197 25 209 24 c 0,44,45
 222 24 222 24 238 38 c 1,46,-1
 252 69 l 1,47,-1
 256 76 l 1,48,-1
 261 74 l 1,49,50
 262 68 262 68 263 59.5 c 128,-1,51
 264 51 264 51 271 40 c 0,52,53
 287 22 287 22 317 22 c 0,54,55
 339 22 339 22 352.5 33.5 c 128,-1,56
 366 45 366 45 366 67 c 0,57,58
 366 84 366 84 355 98 c 128,-1,59
 344 112 344 112 318 123 c 0,60,61
 281 138 281 138 264 155.5 c 128,-1,62
 247 173 247 173 247 201 c 0,63,64
 247 236 247 236 267.5 253.5 c 128,-1,65
 288 271 288 271 319 271 c 0,66,67
 369 271 369 271 398 228 c 1,68,-1
 379 199 l 1,69,-1
 374 191 l 1,70,-1
 370 195 l 1,71,72
 370 201 370 201 368.5 207 c 128,-1,73
 367 213 367 213 358 223 c 0,74,75
 348 232 348 232 338.5 234.5 c 128,-1,76
 329 237 329 237 318 237 c 0,77,78
 300 237 300 237 291 227.5 c 128,-1,79
 282 218 282 218 282 203 c 0,80,81
 282 187 282 187 293.5 177 c 128,-1,82
 305 167 305 167 330 156 c 0,83,84
 367 138 367 138 383 118.5 c 128,-1,85
 399 99 399 99 399 71 c 0,86,87
 399 31 399 31 377 8.5 c 128,-1,88
 355 -14 355 -14 317 -14 c 256,89,90
 279 -14 279 -14 253 7 c 1,91,92
 230 -12 230 -12 202 -12 c 0,21,22
EndSplineSet
Validated: 33
EndChar

StartChar: uni20B1
Encoding: 8369 8369 610
Width: 409
GlyphClass: 2
Flags: W
AnchorPoint: "Anchor-2" 75 0 basechar 0
AnchorPoint: "Anchor-0" 205 638 basechar 0
LayerCount: 2
Fore
SplineSet
54 0 m 1,0,-1
 54 404 l 1,1,-1
 13 404 l 1,2,-1
 13 435 l 1,3,-1
 54 435 l 1,4,-1
 54 492 l 1,5,-1
 13 492 l 1,6,-1
 13 523 l 1,7,-1
 54 523 l 1,8,-1
 54 638 l 1,9,-1
 207 638 l 2,10,11
 273 638 273 638 311 608 c 128,-1,12
 349 578 349 578 361 523 c 1,13,-1
 407 523 l 1,14,-1
 407 492 l 1,15,-1
 367 492 l 1,16,17
 368 479 368 479 368 464 c 256,18,19
 368 450 368 450 367 435 c 1,20,-1
 407 435 l 1,21,-1
 407 404 l 1,22,-1
 360 404 l 1,23,24
 347 351 347 351 309 321.5 c 128,-1,25
 271 292 271 292 211 292 c 2,26,-1
 99 292 l 1,27,-1
 99 0 l 1,28,-1
 54 0 l 1,0,-1
99 595 m 1,29,-1
 99 523 l 1,30,-1
 314 523 l 1,31,32
 303 557 303 557 276 576 c 128,-1,33
 249 595 249 595 205 595 c 2,34,-1
 99 595 l 1,29,-1
323 463 m 0,35,36
 323 478 323 478 321 492 c 1,37,-1
 99 492 l 1,38,-1
 99 435 l 1,39,-1
 322 435 l 1,40,41
 323 449 323 449 323 463 c 0,35,36
99 334 m 1,42,-1
 205 334 l 2,43,44
 249 334 249 334 276 352.5 c 128,-1,45
 303 371 303 371 314 404 c 1,46,-1
 99 404 l 1,47,-1
 99 334 l 1,42,-1
EndSplineSet
Validated: 1048577
EndChar

StartChar: uni20BD
Encoding: 8381 8381 611
Width: 409
GlyphClass: 2
Flags: W
AnchorPoint: "Anchor-2" 83 0 basechar 0
AnchorPoint: "Anchor-0" 213 638 basechar 0
LayerCount: 2
Fore
SplineSet
62 0 m 1,0,-1
 62 177 l 1,1,-1
 16 177 l 1,2,-1
 16 219 l 1,3,-1
 62 219 l 1,4,-1
 62 292 l 1,5,-1
 16 292 l 1,6,-1
 16 334 l 1,7,-1
 62 334 l 1,8,-1
 62 638 l 1,9,-1
 215 638 l 2,10,11
 297 638 297 638 336.5 591.5 c 128,-1,12
 376 545 376 545 376 464 c 0,13,14
 376 384 376 384 335.5 338 c 128,-1,15
 295 292 295 292 219 292 c 2,16,-1
 108 292 l 1,17,-1
 108 219 l 1,18,-1
 245 219 l 1,19,-1
 245 177 l 1,20,-1
 108 177 l 1,21,-1
 108 0 l 1,22,-1
 62 0 l 1,0,-1
108 334 m 1,23,-1
 213 334 l 2,24,25
 274 334 274 334 302.5 368.5 c 128,-1,26
 331 403 331 403 331 463 c 0,27,28
 331 524 331 524 302.5 559.5 c 128,-1,29
 274 595 274 595 213 595 c 2,30,-1
 108 595 l 1,31,-1
 108 334 l 1,23,-1
EndSplineSet
Validated: 1048577
EndChar

StartChar: uni20B9
Encoding: 8377 8377 612
Width: 409
Flags: W
LayerCount: 2
Fore
SplineSet
43 334 m 1,0,-1
 159 334 l 2,1,2
 214 334 214 334 241 361.5 c 128,-1,3
 268 389 268 389 274 433 c 1,4,-1
 42 433 l 1,5,-1
 42 475 l 1,6,-1
 274 475 l 1,7,8
 272 505 272 505 259 532 c 128,-1,9
 246 559 246 559 221.5 576 c 128,-1,10
 197 593 197 593 159 593 c 2,11,-1
 42 593 l 1,12,-1
 42 637 l 1,13,-1
 381 637 l 1,14,-1
 381 596 l 1,15,-1
 255 596 l 1,16,17
 285 576 285 576 300 544.5 c 128,-1,18
 315 513 315 513 319 475 c 1,19,-1
 381 475 l 1,20,-1
 381 433 l 1,21,-1
 319 433 l 1,22,23
 315 387 315 387 287 347 c 128,-1,24
 259 307 259 307 213 296 c 1,25,-1
 331 0 l 1,26,-1
 285 0 l 1,27,-1
 169 292 l 1,28,-1
 43 292 l 1,29,-1
 43 334 l 1,0,-1
EndSplineSet
Validated: 1
EndChar

StartChar: sterling
Encoding: 163 163 613
Width: 409
Flags: W
LayerCount: 2
Fore
SplineSet
59 -8 m 1,0,-1
 42 32 l 1,1,2
 91 62 91 62 109 109 c 128,-1,3
 127 156 127 156 127 227 c 0,4,5
 127 246 127 246 123 276.5 c 128,-1,6
 119 307 119 307 113 339 c 1,7,-1
 54 339 l 1,8,-1
 54 379 l 1,9,-1
 104 379 l 1,10,11
 101 397 101 397 99 417 c 128,-1,12
 97 437 97 437 97 453 c 0,13,14
 97 544 97 544 136 591 c 128,-1,15
 175 638 175 638 236 638 c 256,16,17
 297 638 297 638 343 585 c 1,18,-1
 314 549 l 1,19,20
 300 571 300 571 281 584.5 c 128,-1,21
 262 598 262 598 228 598 c 0,22,23
 187 598 187 598 164 560 c 128,-1,24
 141 522 141 522 141 454 c 0,25,26
 141 439 141 439 143 419.5 c 128,-1,27
 145 400 145 400 148 379 c 1,28,-1
 259 379 l 1,29,-1
 259 339 l 1,30,-1
 158 339 l 1,31,32
 170 277 170 277 170 229 c 0,33,34
 170 190 170 190 163 144.5 c 128,-1,35
 156 99 156 99 136 70 c 1,36,37
 166 77 166 77 195 66 c 128,-1,38
 224 55 224 55 251.5 42.5 c 128,-1,39
 279 30 279 30 302 30 c 0,40,41
 336 30 336 30 366 58 c 1,42,-1
 383 22 l 1,43,44
 343 -15 343 -15 300 -15 c 0,45,46
 282 -15 282 -15 254.5 -3.5 c 128,-1,47
 227 8 227 8 198.5 19.5 c 128,-1,48
 170 31 170 31 147 31 c 0,49,50
 129 31 129 31 108.5 21 c 128,-1,51
 88 11 88 11 59 -8 c 1,0,-1
EndSplineSet
Validated: 33
EndChar

StartChar: uni20A9
Encoding: 8361 8361 614
Width: 409
GlyphClass: 2
Flags: W
AnchorPoint: "Anchor-2" 205 0 basechar 0
AnchorPoint: "Anchor-0" 209 638 basechar 0
LayerCount: 2
Fore
SplineSet
111 0 m 1,0,-1
 75 302 l 1,1,-1
 11 302 l 1,2,-1
 11 333 l 1,3,-1
 72 333 l 1,4,-1
 36 638 l 1,5,-1
 74 638 l 1,6,-1
 109 333 l 1,7,-1
 157 333 l 1,8,-1
 201 591 l 1,9,-1
 218 591 l 1,10,-1
 259 333 l 1,11,-1
 304 333 l 1,12,-1
 337 638 l 1,13,-1
 371 638 l 1,14,-1
 336 333 l 1,15,-1
 400 333 l 1,16,-1
 400 302 l 1,17,-1
 333 302 l 1,18,-1
 298 0 l 1,19,-1
 280 0 l 1,20,-1
 231 302 l 1,21,-1
 181 302 l 1,22,-1
 130 0 l 1,23,-1
 111 0 l 1,0,-1
207 456 m 1,24,-1
 186 333 l 1,25,-1
 226 333 l 1,26,-1
 207 456 l 1,24,-1
127 163 m 1,27,-1
 151 302 l 1,28,-1
 112 302 l 1,29,-1
 127 163 l 1,27,-1
287 165 m 1,30,-1
 301 302 l 1,31,-1
 264 302 l 1,32,-1
 287 165 l 1,30,-1
EndSplineSet
Validated: 1048577
EndChar

StartChar: yen
Encoding: 165 165 615
Width: 409
Flags: W
LayerCount: 2
Fore
SplineSet
233 0 m 1,0,-1
 189 0 l 1,1,-1
 189 101 l 1,2,-1
 72 101 l 1,3,-1
 72 140 l 1,4,-1
 189 140 l 1,5,-1
 189 226 l 1,6,-1
 72 226 l 1,7,-1
 72 266 l 1,8,-1
 189 266 l 1,9,-1
 189 306 l 1,10,-1
 35 640 l 1,11,-1
 83 640 l 1,12,-1
 212 358 l 1,13,-1
 332 638 l 1,14,-1
 377 638 l 1,15,-1
 233 304 l 1,16,-1
 233 266 l 1,17,-1
 346 266 l 1,18,-1
 346 226 l 1,19,-1
 233 226 l 1,20,-1
 233 140 l 1,21,-1
 346 140 l 1,22,-1
 346 101 l 1,23,-1
 233 101 l 1,24,-1
 233 0 l 1,0,-1
EndSplineSet
Validated: 1
EndChar

StartChar: asteriskmath
Encoding: 8727 8727 616
Width: 409
Flags: W
LayerCount: 2
Fore
SplineSet
109 145 m 1,0,-1
 74 174 l 1,1,-1
 180 339 l 1,2,-1
 39 401 l 1,3,-1
 58 443 l 1,4,-1
 190 371 l 1,5,-1
 182 562 l 1,6,-1
 230 562 l 1,7,-1
 220 371 l 1,8,-1
 354 442 l 1,9,-1
 371 400 l 1,10,-1
 228 339 l 1,11,-1
 335 175 l 1,12,-1
 300 145 l 1,13,-1
 205 315 l 1,14,-1
 109 145 l 1,0,-1
EndSplineSet
Validated: 1
EndChar

StartChar: uni2219
Encoding: 8729 8729 617
Width: 409
Flags: W
LayerCount: 2
Fore
SplineSet
205 200 m 0,0,1
 175 200 175 200 155 221.5 c 128,-1,2
 135 243 135 243 135 273 c 256,3,4
 135 304 135 304 155.5 325.5 c 128,-1,5
 176 347 176 347 205 347 c 0,6,7
 233 347 233 347 254 325.5 c 128,-1,8
 275 304 275 304 275 273 c 256,9,10
 275 242 275 242 254.5 221 c 128,-1,11
 234 200 234 200 205 200 c 0,0,1
EndSplineSet
Validated: 1
EndChar

StartChar: uni2215
Encoding: 8725 8725 618
Width: 409
Flags: W
LayerCount: 2
Fore
SplineSet
77 -157 m 1,0,-1
 41 -144 l 1,1,-1
 311 793 l 1,2,-1
 347 779 l 1,3,-1
 77 -157 l 1,0,-1
EndSplineSet
Validated: 1
EndChar

StartChar: element
Encoding: 8712 8712 619
Width: 409
Flags: W
LayerCount: 2
Fore
SplineSet
231 9 m 2,0,1
 139 9 139 9 87.5 65.5 c 128,-1,2
 36 122 36 122 36 230 c 256,3,4
 36 339 36 339 88.5 399 c 128,-1,5
 141 459 141 459 230 459 c 2,6,-1
 368 459 l 1,7,-1
 368 428 l 1,8,-1
 244 428 l 2,9,10
 163 428 163 428 118 381.5 c 128,-1,11
 73 335 73 335 69 247 c 1,12,-1
 368 247 l 1,13,-1
 368 216 l 1,14,-1
 69 216 l 1,15,16
 75 40 75 40 244 40 c 2,17,-1
 368 40 l 1,18,-1
 368 9 l 1,19,-1
 231 9 l 2,0,1
EndSplineSet
Validated: 1
EndChar

StartChar: plus
Encoding: 43 43 621
Width: 409
Flags: W
LayerCount: 2
Fore
SplineSet
187 106 m 1,0,-1
 187 308 l 1,1,-1
 40 308 l 1,2,-1
 40 350 l 1,3,-1
 187 350 l 1,4,-1
 187 536 l 1,5,-1
 228 536 l 1,6,-1
 228 350 l 1,7,-1
 371 350 l 1,8,-1
 371 308 l 1,9,-1
 228 308 l 1,10,-1
 228 106 l 1,11,-1
 187 106 l 1,0,-1
EndSplineSet
Validated: 1
EndChar

StartChar: minus
Encoding: 8722 8722 622
Width: 409
Flags: W
LayerCount: 2
Fore
SplineSet
40 308 m 1,0,-1
 40 350 l 1,1,-1
 371 350 l 1,2,-1
 371 308 l 1,3,-1
 40 308 l 1,0,-1
EndSplineSet
Validated: 1
Substitution2: "'sups' Superscript in Latin lookup 20 subtable" uni207B
Substitution2: "'aalt' Access All Alternates in Latin lookup 0 subtable" uni207B
EndChar

StartChar: multiply
Encoding: 215 215 623
Width: 409
Flags: W
LayerCount: 2
Fore
SplineSet
317 154 m 1,0,-1
 210 297 l 1,1,-1
 102 156 l 1,2,-1
 75 187 l 1,3,-1
 183 332 l 1,4,-1
 75 478 l 1,5,-1
 104 510 l 1,6,-1
 211 369 l 1,7,-1
 318 510 l 1,8,-1
 349 480 l 1,9,-1
 238 333 l 1,10,-1
 347 185 l 1,11,-1
 317 154 l 1,0,-1
EndSplineSet
Validated: 1
EndChar

StartChar: divide
Encoding: 247 247 624
Width: 409
Flags: W
LayerCount: 2
Fore
SplineSet
209 456 m 256,0,1
 197 456 197 456 188.5 465 c 128,-1,2
 180 474 180 474 180 487 c 256,3,4
 180 500 180 500 189 510 c 128,-1,5
 198 520 198 520 209 520 c 0,6,7
 221 520 221 520 230 510 c 128,-1,8
 239 500 239 500 239 487 c 256,9,10
 239 474 239 474 230 465 c 128,-1,11
 221 456 221 456 209 456 c 256,0,1
62 299 m 1,12,-1
 62 345 l 1,13,-1
 349 345 l 1,14,-1
 349 299 l 1,15,-1
 62 299 l 1,12,-1
209 120 m 0,16,17
 198 120 198 120 188.5 129 c 128,-1,18
 179 138 179 138 179 152 c 256,19,20
 179 165 179 165 188.5 174.5 c 128,-1,21
 198 184 198 184 209 184 c 0,22,23
 221 184 221 184 230 174 c 128,-1,24
 239 164 239 164 239 152 c 0,25,26
 239 139 239 139 230 129.5 c 128,-1,27
 221 120 221 120 209 120 c 0,16,17
EndSplineSet
Validated: 1
EndChar

StartChar: equal
Encoding: 61 61 625
Width: 409
Flags: W
LayerCount: 2
Fore
SplineSet
43 409 m 1,0,-1
 43 452 l 1,1,-1
 369 452 l 1,2,-1
 369 409 l 1,3,-1
 43 409 l 1,0,-1
43 197 m 1,4,-1
 43 240 l 1,5,-1
 369 240 l 1,6,-1
 369 197 l 1,7,-1
 43 197 l 1,4,-1
EndSplineSet
Validated: 1
EndChar

StartChar: notequal
Encoding: 8800 8800 626
Width: 409
Flags: W
LayerCount: 2
Fore
SplineSet
43 197 m 1,0,-1
 43 240 l 1,1,-1
 147 240 l 1,2,-1
 223 409 l 1,3,-1
 43 409 l 1,4,-1
 43 452 l 1,5,-1
 243 452 l 1,6,-1
 313 609 l 1,7,-1
 345 591 l 1,8,-1
 282 452 l 1,9,-1
 369 452 l 1,10,-1
 369 409 l 1,11,-1
 263 409 l 1,12,-1
 186 240 l 1,13,-1
 369 240 l 1,14,-1
 369 197 l 1,15,-1
 167 197 l 1,16,-1
 96 39 l 1,17,-1
 65 56 l 1,18,-1
 128 197 l 1,19,-1
 43 197 l 1,0,-1
EndSplineSet
Validated: 1
EndChar

StartChar: greater
Encoding: 62 62 627
Width: 409
Flags: W
LayerCount: 2
Fore
SplineSet
36 48 m 1,0,-1
 36 103 l 1,1,-1
 333 327 l 1,2,-1
 38 529 l 1,3,-1
 38 581 l 1,4,-1
 379 344 l 1,5,-1
 379 311 l 1,6,-1
 36 48 l 1,0,-1
EndSplineSet
Validated: 1
EndChar

StartChar: less
Encoding: 60 60 628
Width: 409
Flags: W
LayerCount: 2
Fore
SplineSet
375 48 m 1,0,-1
 32 311 l 1,1,-1
 32 344 l 1,2,-1
 372 581 l 1,3,-1
 372 529 l 1,4,-1
 77 327 l 1,5,-1
 375 102 l 1,6,-1
 375 48 l 1,0,-1
EndSplineSet
Validated: 1
EndChar

StartChar: greaterequal
Encoding: 8805 8805 629
Width: 409
Flags: W
LayerCount: 2
Fore
SplineSet
32 103 m 1,0,-1
 32 153 l 1,1,-1
 330 331 l 1,2,-1
 32 475 l 1,3,-1
 32 526 l 1,4,-1
 375 348 l 1,5,-1
 375 314 l 1,6,-1
 32 103 l 1,0,-1
367 26 m 1,7,-1
 33 26 l 1,8,-1
 33 69 l 1,9,-1
 367 69 l 1,10,-1
 367 26 l 1,7,-1
EndSplineSet
Validated: 1
EndChar

StartChar: lessequal
Encoding: 8804 8804 630
Width: 409
Flags: W
LayerCount: 2
Fore
SplineSet
373 103 m 1,0,-1
 29 314 l 1,1,-1
 29 348 l 1,2,-1
 373 526 l 1,3,-1
 373 475 l 1,4,-1
 74 331 l 1,5,-1
 373 153 l 1,6,-1
 373 103 l 1,0,-1
37 26 m 1,7,-1
 37 69 l 1,8,-1
 372 69 l 1,9,-1
 372 26 l 1,10,-1
 37 26 l 1,7,-1
EndSplineSet
Validated: 1
EndChar

StartChar: plusminus
Encoding: 177 177 631
Width: 409
Flags: W
LayerCount: 2
Fore
SplineSet
186 161 m 1,0,-1
 186 361 l 1,1,-1
 42 361 l 1,2,-1
 42 406 l 1,3,-1
 186 406 l 1,4,-1
 186 590 l 1,5,-1
 228 590 l 1,6,-1
 228 406 l 1,7,-1
 369 406 l 1,8,-1
 369 361 l 1,9,-1
 228 361 l 1,10,-1
 228 161 l 1,11,-1
 186 161 l 1,0,-1
42 23 m 1,12,-1
 42 69 l 1,13,-1
 370 69 l 1,14,-1
 370 23 l 1,15,-1
 42 23 l 1,12,-1
EndSplineSet
Validated: 1
EndChar

StartChar: asciitilde
Encoding: 126 126 633
Width: 409
Flags: W
LayerCount: 2
Fore
SplineSet
286 278 m 0,0,1
 257 278 257 278 236 293 c 128,-1,2
 215 308 215 308 197.5 323.5 c 128,-1,3
 180 339 180 339 160 339 c 0,4,5
 137 339 137 339 121.5 325.5 c 128,-1,6
 106 312 106 312 92 285 c 1,7,-1
 60 302 l 1,8,9
 73 334 73 334 96.5 356.5 c 128,-1,10
 120 379 120 379 158 379 c 0,11,12
 180 379 180 379 196 369 c 128,-1,13
 212 359 212 359 225.5 347 c 128,-1,14
 239 335 239 335 252 325.5 c 128,-1,15
 265 316 265 316 283 316 c 0,16,17
 302 316 302 316 316.5 330 c 128,-1,18
 331 344 331 344 346 372 c 1,19,-1
 377 351 l 1,20,21
 359 314 359 314 337.5 296 c 128,-1,22
 316 278 316 278 286 278 c 0,0,1
EndSplineSet
Validated: 1
Substitution2: "'ss01' Style Set 1 in Latin lookup 35 subtable" asciitilde.ss01
Substitution2: "'salt' Stylistic Alternatives in Latin lookup 34 subtable" asciitilde.ss01
Substitution2: "'aalt' Access All Alternates in Latin lookup 0 subtable" asciitilde.ss01
EndChar

StartChar: logicalnot
Encoding: 172 172 634
Width: 409
Flags: W
LayerCount: 2
Fore
SplineSet
295 162 m 1,0,-1
 295 300 l 1,1,-1
 78 300 l 1,2,-1
 78 345 l 1,3,-1
 337 345 l 1,4,-1
 337 162 l 1,5,-1
 295 162 l 1,0,-1
EndSplineSet
Validated: 1
EndChar

StartChar: infinity
Encoding: 8734 8734 636
Width: 409
Flags: W
LayerCount: 2
Fore
SplineSet
401 310 m 0,0,1
 401 255 401 255 374.5 220 c 128,-1,2
 348 185 348 185 305 185 c 0,3,4
 274 185 274 185 249.5 205.5 c 128,-1,5
 225 226 225 226 205 271 c 1,6,7
 182 225 182 225 158 205 c 128,-1,8
 134 185 134 185 105 185 c 0,9,10
 63 185 63 185 36 219.5 c 128,-1,11
 9 254 9 254 9 310 c 256,12,13
 9 366 9 366 36 401 c 128,-1,14
 63 436 63 436 105 436 c 0,15,16
 135 436 135 436 159.5 417 c 128,-1,17
 184 398 184 398 206 350 c 1,18,19
 226 395 226 395 250.5 415.5 c 128,-1,20
 275 436 275 436 306 436 c 0,21,22
 347 436 347 436 374 402.5 c 128,-1,23
 401 369 401 369 401 310 c 0,0,1
184 311 m 1,24,25
 167 355 167 355 148 375 c 128,-1,26
 129 395 129 395 109 395 c 0,27,28
 79 395 79 395 63.5 370.5 c 128,-1,29
 48 346 48 346 48 311 c 0,30,31
 48 275 48 275 64 251 c 128,-1,32
 80 227 80 227 108 227 c 0,33,34
 134 227 134 227 152 250.5 c 128,-1,35
 170 274 170 274 184 311 c 1,24,25
362 310 m 0,36,37
 362 346 362 346 346.5 370 c 128,-1,38
 331 394 331 394 304 394 c 0,39,40
 280 394 280 394 261.5 372 c 128,-1,41
 243 350 243 350 227 310 c 1,42,43
 242 270 242 270 261.5 248 c 128,-1,44
 281 226 281 226 303 226 c 0,45,46
 333 226 333 226 347.5 251 c 128,-1,47
 362 276 362 276 362 310 c 0,36,37
EndSplineSet
Validated: 1
EndChar

StartChar: emptyset
Encoding: 8709 8709 637
Width: 409
Flags: W
LayerCount: 2
Fore
SplineSet
36 110 m 1,0,-1
 14 131 l 1,1,-1
 66 191 l 1,2,3
 47 220 47 220 36.5 256.5 c 128,-1,4
 26 293 26 293 26 334 c 0,5,6
 26 396 26 396 49.5 447 c 128,-1,7
 73 498 73 498 113.5 528 c 128,-1,8
 154 558 154 558 205 558 c 0,9,10
 241 558 241 558 272 542.5 c 128,-1,11
 303 527 303 527 328 501 c 1,12,-1
 379 561 l 1,13,-1
 399 540 l 1,14,-1
 346 476 l 1,15,16
 364 447 364 447 375 411 c 128,-1,17
 386 375 386 375 386 334 c 0,18,19
 386 273 386 273 362 221.5 c 128,-1,20
 338 170 338 170 297.5 139.5 c 128,-1,21
 257 109 257 109 205 109 c 0,22,23
 169 109 169 109 138.5 124 c 128,-1,24
 108 139 108 139 84 167 c 1,25,-1
 36 110 l 1,0,-1
62 334 m 0,26,27
 62 272 62 272 91 221 c 1,28,-1
 302 471 l 1,29,30
 284 494 284 494 258.5 506.5 c 128,-1,31
 233 519 233 519 205 519 c 0,32,33
 164 519 164 519 131.5 493.5 c 128,-1,34
 99 468 99 468 80.5 426 c 128,-1,35
 62 384 62 384 62 334 c 0,26,27
205 146 m 0,36,37
 247 146 247 146 279 172 c 128,-1,38
 311 198 311 198 330 240.5 c 128,-1,39
 349 283 349 283 349 334 c 0,40,41
 349 396 349 396 319 445 c 1,42,-1
 109 196 l 1,43,44
 127 173 127 173 151.5 159.5 c 128,-1,45
 176 146 176 146 205 146 c 0,36,37
EndSplineSet
Validated: 1
EndChar

StartChar: integral
Encoding: 8747 8747 638
Width: 409
Flags: W
LayerCount: 2
Fore
SplineSet
121 -246 m 0,0,1
 92 -246 92 -246 66 -233 c 1,2,-1
 67 -188 l 1,3,4
 77 -194 77 -194 88.5 -198 c 128,-1,5
 100 -202 100 -202 116 -202 c 0,6,7
 152 -202 152 -202 171 -168.5 c 128,-1,8
 190 -135 190 -135 190 -58 c 2,9,-1
 190 589 l 2,10,11
 190 686 190 686 219.5 732 c 128,-1,12
 249 778 249 778 307 778 c 0,13,14
 322 778 322 778 334 775 c 128,-1,15
 346 772 346 772 356 768 c 1,16,-1
 356 722 l 1,17,18
 333 734 333 734 310 734 c 0,19,20
 272 734 272 734 254 701 c 128,-1,21
 236 668 236 668 236 582 c 2,22,-1
 236 -65 l 2,23,24
 236 -158 236 -158 204 -202 c 128,-1,25
 172 -246 172 -246 121 -246 c 0,0,1
EndSplineSet
Validated: 1
EndChar

StartChar: uni2126
Encoding: 8486 8486 639
Width: 409
Flags: W
LayerCount: 2
Fore
SplineSet
210 645 m 256,0,1
 138 645 138 645 99.5 567.5 c 128,-1,2
 61 490 61 490 61 352 c 0,3,4
 61 243 61 243 94.5 162.5 c 128,-1,5
 128 82 128 82 180 45 c 1,6,-1
 180 0 l 1,7,-1
 40 0 l 1,8,-1
 40 45 l 1,9,-1
 129 45 l 1,10,11
 81 85 81 85 48.5 164.5 c 128,-1,12
 16 244 16 244 16 357 c 0,13,14
 16 525 16 525 68.5 608 c 128,-1,15
 121 691 121 691 211 691 c 0,16,17
 298 691 298 691 349 609 c 128,-1,18
 400 527 400 527 400 356 c 0,19,20
 400 245 400 245 369.5 164 c 128,-1,21
 339 83 339 83 289 45 c 1,22,-1
 378 45 l 1,23,-1
 378 0 l 1,24,-1
 237 0 l 1,25,-1
 237 45 l 1,26,27
 297 81 297 81 326.5 162.5 c 128,-1,28
 356 244 356 244 356 350 c 0,29,30
 356 492 356 492 319 568.5 c 128,-1,31
 282 645 282 645 210 645 c 256,0,1
EndSplineSet
Validated: 1
EndChar

StartChar: uni2206
Encoding: 8710 8710 640
Width: 409
Flags: W
LayerCount: 2
Fore
SplineSet
229 679 m 1,0,-1
 378 34 l 1,1,-1
 378 1 l 1,2,-1
 32 1 l 1,3,-1
 32 35 l 1,4,-1
 180 679 l 1,5,-1
 229 679 l 1,0,-1
333 42 m 1,6,-1
 206 613 l 1,7,-1
 77 42 l 1,8,-1
 333 42 l 1,6,-1
EndSplineSet
Validated: 1
EndChar

StartChar: product
Encoding: 8719 8719 641
Width: 409
Flags: W
LayerCount: 2
Fore
SplineSet
47 -195 m 1,0,-1
 47 638 l 1,1,-1
 361 638 l 1,2,3
 361 632 361 632 359 628 c 128,-1,4
 357 624 357 624 357 620 c 2,5,-1
 357 -195 l 1,6,-1
 313 -195 l 1,7,-1
 313 597 l 1,8,-1
 93 597 l 1,9,-1
 93 -195 l 1,10,-1
 47 -195 l 1,0,-1
EndSplineSet
Validated: 1
EndChar

StartChar: summation
Encoding: 8721 8721 642
Width: 409
Flags: W
LayerCount: 2
Fore
SplineSet
37 -175 m 1,0,-1
 37 -139 l 1,1,-1
 206 256 l 1,2,-1
 35 645 l 1,3,-1
 35 684 l 1,4,-1
 376 684 l 1,5,-1
 376 643 l 1,6,-1
 85 643 l 1,7,-1
 253 257 l 1,8,-1
 82 -133 l 1,9,-1
 370 -133 l 1,10,-1
 370 -175 l 1,11,-1
 37 -175 l 1,0,-1
EndSplineSet
Validated: 1
EndChar

StartChar: radical
Encoding: 8730 8730 643
Width: 409
Flags: W
LayerCount: 2
Fore
SplineSet
175 -7 m 1,0,-1
 83 305 l 1,1,-1
 10 305 l 1,2,-1
 10 345 l 1,3,-1
 112 345 l 1,4,-1
 194 63 l 1,5,-1
 362 691 l 1,6,-1
 402 691 l 1,7,-1
 213 -7 l 1,8,-1
 175 -7 l 1,0,-1
EndSplineSet
Validated: 1
EndChar

StartChar: uni00B5
Encoding: 181 181 644
Width: 409
Flags: W
LayerCount: 2
Fore
SplineSet
23 -175 m 1,0,1
 23 -158 23 -158 24.5 -119 c 128,-1,2
 26 -80 26 -80 28 -31.5 c 128,-1,3
 30 17 30 17 32.5 65.5 c 128,-1,4
 35 114 35 114 36.5 151.5 c 128,-1,5
 38 189 38 189 38 207 c 2,6,-1
 38 464 l 1,7,-1
 80 464 l 1,8,-1
 80 189 l 2,9,10
 80 127 80 127 92 91.5 c 128,-1,11
 104 56 104 56 123.5 42 c 128,-1,12
 143 28 143 28 166 28 c 0,13,14
 214 28 214 28 236 76 c 128,-1,15
 258 124 258 124 258 199 c 2,16,-1
 258 464 l 1,17,-1
 299 464 l 1,18,-1
 299 116 l 2,19,20
 299 71 299 71 309 50.5 c 128,-1,21
 319 30 319 30 339 30 c 0,22,23
 350 30 350 30 361 39.5 c 128,-1,24
 372 49 372 49 378 62 c 2,25,-1
 383 73 l 1,26,-1
 401 40 l 1,27,28
 373 -10 373 -10 335 -10 c 0,29,30
 306 -10 306 -10 287 12.5 c 128,-1,31
 268 35 268 35 266 73 c 1,32,33
 254 30 254 30 224.5 10 c 128,-1,34
 195 -10 195 -10 163 -10 c 0,35,36
 128 -10 128 -10 102.5 10.5 c 128,-1,37
 77 31 77 31 67 69 c 1,38,39
 67 7 67 7 65 -52 c 128,-1,40
 63 -111 63 -111 62 -175 c 1,41,-1
 23 -175 l 1,0,1
EndSplineSet
Validated: 1
EndChar

StartChar: partialdiff
Encoding: 8706 8706 645
Width: 409
Flags: W
LayerCount: 2
Fore
SplineSet
183 -11 m 0,0,1
 113 -11 113 -11 77 40 c 128,-1,2
 41 91 41 91 34 171 c 0,3,4
 30 221 30 221 37 272 c 128,-1,5
 44 323 44 323 64.5 365.5 c 128,-1,6
 85 408 85 408 118.5 434 c 128,-1,7
 152 460 152 460 200 460 c 0,8,9
 243 460 243 460 278 437 c 128,-1,10
 313 414 313 414 335 370 c 1,11,12
 336 385 336 385 335 399 c 128,-1,13
 334 413 334 413 332 427 c 0,14,15
 325 490 325 490 310 537.5 c 128,-1,16
 295 585 295 585 267 611 c 128,-1,17
 239 637 239 637 193 637 c 0,18,19
 170 637 170 637 144.5 630 c 128,-1,20
 119 623 119 623 100 609 c 1,21,-1
 95 653 l 1,22,23
 120 665 120 665 144.5 671 c 128,-1,24
 169 677 169 677 193 677 c 0,25,26
 279 677 279 677 321.5 614.5 c 128,-1,27
 364 552 364 552 376 428 c 0,28,29
 381 368 381 368 378.5 306 c 128,-1,30
 376 244 376 244 363.5 187 c 128,-1,31
 351 130 351 130 328 85.5 c 128,-1,32
 305 41 305 41 269 15 c 128,-1,33
 233 -11 233 -11 183 -11 c 0,0,1
185 29 m 0,34,35
 226 29 226 29 254 55 c 128,-1,36
 282 81 282 81 298 123.5 c 128,-1,37
 314 166 314 166 322.5 214.5 c 128,-1,38
 331 263 331 263 334 307 c 1,39,40
 312 362 312 362 279.5 391.5 c 128,-1,41
 247 421 247 421 210 421 c 0,42,43
 170 421 170 421 143.5 398 c 128,-1,44
 117 375 117 375 101.5 337 c 128,-1,45
 86 299 86 299 81 255 c 128,-1,46
 76 211 76 211 80 170 c 0,47,48
 86 105 86 105 111.5 67 c 128,-1,49
 137 29 137 29 185 29 c 0,34,35
EndSplineSet
Validated: 33
EndChar

StartChar: percent
Encoding: 37 37 646
Width: 409
Flags: W
LayerCount: 2
Fore
SplineSet
115 382 m 0,0,1
 79 382 79 382 53 419 c 128,-1,2
 27 456 27 456 27 516 c 0,3,4
 27 575 27 575 51.5 612 c 128,-1,5
 76 649 76 649 115 649 c 0,6,7
 153 649 153 649 178 612 c 128,-1,8
 203 575 203 575 203 515 c 0,9,10
 203 454 203 454 178 418 c 128,-1,11
 153 382 153 382 115 382 c 0,0,1
43 0 m 1,12,-1
 326 638 l 1,13,-1
 365 638 l 1,14,-1
 79 0 l 1,15,-1
 43 0 l 1,12,-1
115 420 m 256,16,17
 134 420 134 420 149.5 442.5 c 128,-1,18
 165 465 165 465 165 516 c 0,19,20
 165 565 165 565 149 588.5 c 128,-1,21
 133 612 133 612 114 612 c 256,22,23
 95 612 95 612 80 587 c 128,-1,24
 65 562 65 562 65 516 c 0,25,26
 65 469 65 469 80.5 444.5 c 128,-1,27
 96 420 96 420 115 420 c 256,16,17
304 -10 m 256,28,29
 267 -10 267 -10 241.5 26 c 128,-1,30
 216 62 216 62 216 122 c 256,31,32
 216 181 216 181 240.5 218 c 128,-1,33
 265 255 265 255 304 255 c 256,34,35
 343 255 343 255 367 217.5 c 128,-1,36
 391 180 391 180 391 122 c 0,37,38
 391 63 391 63 366 26.5 c 128,-1,39
 341 -10 341 -10 304 -10 c 256,28,29
305 26 m 0,40,41
 324 26 324 26 339 50.5 c 128,-1,42
 354 75 354 75 354 121 c 0,43,44
 354 162 354 162 341 190.5 c 128,-1,45
 328 219 328 219 303 219 c 0,46,47
 281 219 281 219 267 193.5 c 128,-1,48
 253 168 253 168 253 123 c 0,49,50
 253 77 253 77 268 51.5 c 128,-1,51
 283 26 283 26 305 26 c 0,40,41
EndSplineSet
Validated: 1
EndChar

StartChar: perthousand
Encoding: 8240 8240 647
Width: 409
Flags: W
LayerCount: 2
Fore
SplineSet
108 401 m 256,0,1
 72 401 72 401 47 435 c 128,-1,2
 22 469 22 469 22 527 c 0,3,4
 22 583 22 583 47 616.5 c 128,-1,5
 72 650 72 650 106 650 c 256,6,7
 141 650 141 650 167 616 c 128,-1,8
 193 582 193 582 193 525 c 0,9,10
 193 467 193 467 168.5 434 c 128,-1,11
 144 401 144 401 108 401 c 256,0,1
108 438 m 0,12,13
 125 438 125 438 140 458.5 c 128,-1,14
 155 479 155 479 155 526 c 0,15,16
 155 572 155 572 139 592.5 c 128,-1,17
 123 613 123 613 105 613 c 256,18,19
 87 613 87 613 72.5 592 c 128,-1,20
 58 571 58 571 58 526 c 0,21,22
 58 480 58 480 73.5 459 c 128,-1,23
 89 438 89 438 108 438 c 0,12,13
16 241 m 1,24,-1
 16 283 l 1,25,-1
 393 553 l 1,26,-1
 393 510 l 1,27,-1
 16 241 l 1,24,-1
108 -11 m 256,28,29
 72 -11 72 -11 47 22.5 c 128,-1,30
 22 56 22 56 22 115 c 0,31,32
 22 171 22 171 47 204.5 c 128,-1,33
 72 238 72 238 106 238 c 256,34,35
 141 238 141 238 167 203 c 128,-1,36
 193 168 193 168 193 113 c 0,37,38
 193 55 193 55 168.5 22 c 128,-1,39
 144 -11 144 -11 108 -11 c 256,28,29
310 -11 m 0,40,41
 275 -11 275 -11 250 22.5 c 128,-1,42
 225 56 225 56 225 115 c 0,43,44
 224 170 224 170 249 204 c 128,-1,45
 274 238 274 238 310 238 c 0,46,47
 344 238 344 238 369.5 203.5 c 128,-1,48
 395 169 395 169 395 113 c 0,49,50
 395 55 395 55 371 22 c 128,-1,51
 347 -11 347 -11 310 -11 c 0,40,41
108 26 m 0,52,53
 125 26 125 26 140 47 c 128,-1,54
 155 68 155 68 155 114 c 256,55,56
 155 160 155 160 139 181 c 128,-1,57
 123 202 123 202 105 202 c 256,58,59
 87 202 87 202 72.5 180.5 c 128,-1,60
 58 159 58 159 58 114 c 0,61,62
 58 68 58 68 73.5 47 c 128,-1,63
 89 26 89 26 108 26 c 0,52,53
310 26 m 256,64,65
 328 26 328 26 343 47 c 128,-1,66
 358 68 358 68 358 114 c 256,67,68
 358 160 358 160 342 181 c 128,-1,69
 326 202 326 202 308 202 c 256,70,71
 291 202 291 202 276 180.5 c 128,-1,72
 261 159 261 159 261 114 c 0,73,74
 261 68 261 68 276.5 47 c 128,-1,75
 292 26 292 26 310 26 c 256,64,65
EndSplineSet
Validated: 33
EndChar

StartChar: circleplus
Encoding: 8853 8853 648
Width: 409
Flags: W
LayerCount: 2
Fore
SplineSet
204 105 m 256,0,1
 155 105 155 105 115.5 133.5 c 128,-1,2
 76 162 76 162 53 209.5 c 128,-1,3
 30 257 30 257 30 315 c 0,4,5
 30 374 30 374 53 421.5 c 128,-1,6
 76 469 76 469 115.5 497 c 128,-1,7
 155 525 155 525 204 525 c 256,8,9
 253 525 253 525 293 497 c 128,-1,10
 333 469 333 469 356 422 c 128,-1,11
 379 375 379 375 379 315 c 0,12,13
 379 257 379 257 356 209.5 c 128,-1,14
 333 162 333 162 293 133.5 c 128,-1,15
 253 105 253 105 204 105 c 256,0,1
204 136 m 0,16,17
 245 136 245 136 277.5 160 c 128,-1,18
 310 184 310 184 329.5 225 c 128,-1,19
 349 266 349 266 349 315 c 256,20,21
 349 364 349 364 329.5 404.5 c 128,-1,22
 310 445 310 445 277.5 469.5 c 128,-1,23
 245 494 245 494 204 494 c 0,24,25
 164 494 164 494 131 469.5 c 128,-1,26
 98 445 98 445 79 405 c 128,-1,27
 60 365 60 365 60 315 c 256,28,29
 60 266 60 266 79 225 c 128,-1,30
 98 184 98 184 131 160 c 128,-1,31
 164 136 164 136 204 136 c 0,16,17
191 174 m 1,32,-1
 191 303 l 1,33,-1
 95 303 l 1,34,-1
 95 334 l 1,35,-1
 191 334 l 1,36,-1
 191 453 l 1,37,-1
 221 453 l 1,38,-1
 221 334 l 1,39,-1
 314 334 l 1,40,-1
 314 303 l 1,41,-1
 221 303 l 1,42,-1
 221 174 l 1,43,-1
 191 174 l 1,32,-1
EndSplineSet
Validated: 1
EndChar

StartChar: arrowup
Encoding: 8593 8593 651
Width: 409
Flags: W
LayerCount: 2
Fore
SplineSet
184 10 m 1,0,-1
 184 473 l 1,1,-1
 87 322 l 1,2,-1
 56 344 l 1,3,-1
 202 584 l 1,4,-1
 213 584 l 1,5,-1
 352 343 l 1,6,-1
 321 322 l 1,7,-1
 226 473 l 1,8,-1
 226 10 l 1,9,-1
 184 10 l 1,0,-1
EndSplineSet
Validated: 1
EndChar

StartChar: uni2197
Encoding: 8599 8599 652
Width: 409
Flags: W
LayerCount: 2
Fore
SplineSet
24 153 m 1,0,-1
 305 512 l 1,1,-1
 138 479 l 1,2,-1
 134 521 l 1,3,-1
 378 569 l 1,4,-1
 385 559 l 1,5,-1
 349 273 l 1,6,-1
 310 279 l 1,7,-1
 335 480 l 1,8,-1
 53 125 l 1,9,-1
 24 153 l 1,0,-1
EndSplineSet
Validated: 1
EndChar

StartChar: arrowright
Encoding: 8594 8594 653
Width: 409
Flags: W
LayerCount: 2
Fore
SplineSet
18 324 m 1,0,-1
 312 324 l 1,1,-1
 171 457 l 1,2,-1
 198 486 l 1,3,-1
 390 305 l 1,4,-1
 390 292 l 1,5,-1
 200 119 l 1,6,-1
 175 150 l 1,7,-1
 312 279 l 1,8,-1
 18 279 l 1,9,-1
 18 324 l 1,0,-1
EndSplineSet
Validated: 1
EndChar

StartChar: uni2198
Encoding: 8600 8600 654
Width: 409
Flags: W
LayerCount: 2
Fore
SplineSet
24 461 m 1,0,-1
 53 488 l 1,1,-1
 335 134 l 1,2,-1
 310 335 l 1,3,-1
 349 341 l 1,4,-1
 385 54 l 1,5,-1
 378 45 l 1,6,-1
 134 92 l 1,7,-1
 138 134 l 1,8,-1
 305 101 l 1,9,-1
 24 461 l 1,0,-1
EndSplineSet
Validated: 1
EndChar

StartChar: arrowdown
Encoding: 8595 8595 655
Width: 409
Flags: W
LayerCount: 2
Fore
SplineSet
184 615 m 1,0,-1
 226 615 l 1,1,-1
 226 153 l 1,2,-1
 321 303 l 1,3,-1
 352 282 l 1,4,-1
 213 42 l 1,5,-1
 202 42 l 1,6,-1
 56 281 l 1,7,-1
 87 303 l 1,8,-1
 184 152 l 1,9,-1
 184 615 l 1,0,-1
EndSplineSet
Validated: 1
EndChar

StartChar: uni2199
Encoding: 8601 8601 656
Width: 409
Flags: W
LayerCount: 2
Fore
SplineSet
377 461 m 1,0,-1
 94 101 l 1,1,-1
 261 134 l 1,2,-1
 265 92 l 1,3,-1
 23 45 l 1,4,-1
 14 54 l 1,5,-1
 50 341 l 1,6,-1
 90 335 l 1,7,-1
 65 134 l 1,8,-1
 347 488 l 1,9,-1
 377 461 l 1,0,-1
EndSplineSet
Validated: 1
EndChar

StartChar: arrowleft
Encoding: 8592 8592 657
Width: 409
Flags: W
LayerCount: 2
Fore
SplineSet
388 324 m 1,0,-1
 388 279 l 1,1,-1
 94 279 l 1,2,-1
 231 150 l 1,3,-1
 207 119 l 1,4,-1
 16 292 l 1,5,-1
 16 305 l 1,6,-1
 209 486 l 1,7,-1
 236 457 l 1,8,-1
 94 324 l 1,9,-1
 388 324 l 1,0,-1
EndSplineSet
Validated: 1
EndChar

StartChar: uni2196
Encoding: 8598 8598 658
Width: 409
Flags: W
LayerCount: 2
Fore
SplineSet
377 154 m 1,0,-1
 347 126 l 1,1,-1
 65 481 l 1,2,-1
 90 280 l 1,3,-1
 50 274 l 1,4,-1
 14 560 l 1,5,-1
 23 570 l 1,6,-1
 265 522 l 1,7,-1
 261 480 l 1,8,-1
 94 513 l 1,9,-1
 377 154 l 1,0,-1
EndSplineSet
Validated: 1
EndChar

StartChar: arrowboth
Encoding: 8596 8596 659
Width: 409
Flags: W
LayerCount: 2
Fore
SplineSet
264 500 m 1,0,-1
 401 309 l 1,1,-1
 401 293 l 1,2,-1
 262 109 l 1,3,-1
 233 140 l 1,4,-1
 336 280 l 1,5,-1
 74 280 l 1,6,-1
 175 142 l 1,7,-1
 147 109 l 1,8,-1
 8 293 l 1,9,-1
 8 309 l 1,10,-1
 146 500 l 1,11,-1
 177 472 l 1,12,-1
 74 325 l 1,13,-1
 336 325 l 1,14,-1
 234 471 l 1,15,-1
 264 500 l 1,0,-1
EndSplineSet
Validated: 1
EndChar

StartChar: arrowupdn
Encoding: 8597 8597 660
Width: 409
Flags: W
LayerCount: 2
Fore
SplineSet
364 224 m 1,0,-1
 209 49 l 1,1,-1
 196 49 l 1,2,-1
 45 226 l 1,3,-1
 77 255 l 1,4,-1
 181 135 l 1,5,-1
 181 467 l 1,6,-1
 80 347 l 1,7,-1
 46 377 l 1,8,-1
 196 553 l 1,9,-1
 209 553 l 1,10,-1
 364 378 l 1,11,-1
 335 346 l 1,12,-1
 225 468 l 1,13,-1
 225 134 l 1,14,-1
 333 254 l 1,15,-1
 364 224 l 1,0,-1
EndSplineSet
Validated: 1
EndChar

StartChar: uni21E7
Encoding: 8679 8679 661
Width: 409
Flags: W
LayerCount: 2
Fore
SplineSet
115 0 m 1,0,-1
 115 374 l 1,1,-1
 28 374 l 1,2,-1
 28 409 l 1,3,-1
 195 651 l 1,4,-1
 217 651 l 1,5,-1
 383 409 l 1,6,-1
 383 374 l 1,7,-1
 297 374 l 1,8,-1
 297 0 l 1,9,-1
 115 0 l 1,0,-1
147 33 m 1,10,-1
 264 33 l 1,11,-1
 264 408 l 1,12,-1
 344 408 l 1,13,-1
 206 607 l 1,14,-1
 70 408 l 1,15,-1
 147 408 l 1,16,-1
 147 33 l 1,10,-1
EndSplineSet
Validated: 1
EndChar

StartChar: uni21E8
Encoding: 8680 8680 662
Width: 409
Flags: W
LayerCount: 2
Fore
SplineSet
8 404 m 1,0,-1
 179 404 l 1,1,-1
 179 513 l 1,2,-1
 209 513 l 1,3,-1
 401 304 l 1,4,-1
 401 276 l 1,5,-1
 209 69 l 1,6,-1
 179 69 l 1,7,-1
 179 176 l 1,8,-1
 8 176 l 1,9,-1
 8 404 l 1,0,-1
41 371 m 1,10,-1
 41 210 l 1,11,-1
 213 210 l 1,12,-1
 213 126 l 1,13,-1
 368 291 l 1,14,-1
 213 457 l 1,15,-1
 213 371 l 1,16,-1
 41 371 l 1,10,-1
EndSplineSet
Validated: 1
EndChar

StartChar: uni21E9
Encoding: 8681 8681 663
Width: 409
Flags: W
LayerCount: 2
Fore
SplineSet
115 651 m 1,0,-1
 298 651 l 1,1,-1
 298 278 l 1,2,-1
 383 278 l 1,3,-1
 383 243 l 1,4,-1
 217 0 l 1,5,-1
 195 0 l 1,6,-1
 28 243 l 1,7,-1
 28 278 l 1,8,-1
 115 278 l 1,9,-1
 115 651 l 1,0,-1
147 618 m 1,10,-1
 147 244 l 1,11,-1
 70 244 l 1,12,-1
 206 44 l 1,13,-1
 344 244 l 1,14,-1
 264 244 l 1,15,-1
 264 618 l 1,16,-1
 147 618 l 1,10,-1
EndSplineSet
Validated: 1
EndChar

StartChar: uni21E6
Encoding: 8678 8678 664
Width: 409
Flags: W
LayerCount: 2
Fore
SplineSet
401 404 m 1,0,-1
 401 176 l 1,1,-1
 230 176 l 1,2,-1
 230 69 l 1,3,-1
 200 69 l 1,4,-1
 8 276 l 1,5,-1
 8 304 l 1,6,-1
 200 513 l 1,7,-1
 230 513 l 1,8,-1
 230 404 l 1,9,-1
 401 404 l 1,0,-1
369 371 m 1,10,-1
 197 371 l 1,11,-1
 197 457 l 1,12,-1
 42 291 l 1,13,-1
 197 126 l 1,14,-1
 197 210 l 1,15,-1
 369 210 l 1,16,-1
 369 371 l 1,10,-1
EndSplineSet
Validated: 1
EndChar

StartChar: uni2B06
Encoding: 11014 11014 665
Width: 409
Flags: W
LayerCount: 2
Fore
SplineSet
383 419 m 1,0,-1
 383 374 l 1,1,-1
 297 374 l 1,2,-1
 297 0 l 1,3,-1
 115 0 l 1,4,-1
 115 374 l 1,5,-1
 28 374 l 1,6,-1
 28 419 l 1,7,-1
 195 651 l 1,8,-1
 217 651 l 1,9,-1
 383 419 l 1,0,-1
EndSplineSet
Validated: 1
EndChar

StartChar: uni2B95
Encoding: 11157 11157 666
Width: 409
Flags: W
LayerCount: 2
Fore
SplineSet
8 176 m 1,0,-1
 8 404 l 1,1,-1
 179 404 l 1,2,-1
 179 513 l 1,3,-1
 215 513 l 1,4,-1
 401 304 l 1,5,-1
 401 276 l 1,6,-1
 215 69 l 1,7,-1
 179 69 l 1,8,-1
 179 176 l 1,9,-1
 8 176 l 1,0,-1
EndSplineSet
Validated: 1
EndChar

StartChar: uni2B07
Encoding: 11015 11015 667
Width: 409
Flags: W
LayerCount: 2
Fore
SplineSet
383 232 m 1,0,-1
 217 0 l 1,1,-1
 195 0 l 1,2,-1
 28 232 l 1,3,-1
 28 278 l 1,4,-1
 115 278 l 1,5,-1
 115 651 l 1,6,-1
 298 651 l 1,7,-1
 298 278 l 1,8,-1
 383 278 l 1,9,-1
 383 232 l 1,0,-1
EndSplineSet
Validated: 1
EndChar

StartChar: uni2B05
Encoding: 11013 11013 668
Width: 409
Flags: W
LayerCount: 2
Fore
SplineSet
401 176 m 1,0,-1
 230 176 l 1,1,-1
 230 69 l 1,2,-1
 195 69 l 1,3,-1
 8 276 l 1,4,-1
 8 304 l 1,5,-1
 195 513 l 1,6,-1
 230 513 l 1,7,-1
 230 404 l 1,8,-1
 401 404 l 1,9,-1
 401 176 l 1,0,-1
EndSplineSet
Validated: 1
EndChar

StartChar: dneighthblock
Encoding: 9601 9601 669
Width: 409
Flags: W
LayerCount: 2
Fore
SplineSet
0 -410 m 1,0,-1
 0 -230 l 1,1,-1
 410 -230 l 1,2,-1
 410 -410 l 1,3,-1
 0 -410 l 1,0,-1
EndSplineSet
Validated: 1
EndChar

StartChar: dnquarterblock
Encoding: 9602 9602 670
Width: 409
Flags: W
LayerCount: 2
Fore
SplineSet
0 -410 m 1,0,-1
 0 -51 l 1,1,-1
 410 -51 l 1,2,-1
 410 -410 l 1,3,-1
 0 -410 l 1,0,-1
EndSplineSet
Validated: 1
EndChar

StartChar: dnthreeeighthsblock
Encoding: 9603 9603 671
Width: 409
Flags: W
LayerCount: 2
Fore
SplineSet
0 -410 m 1,0,-1
 0 128 l 1,1,-1
 410 128 l 1,2,-1
 410 -410 l 1,3,-1
 0 -410 l 1,0,-1
EndSplineSet
Validated: 1
EndChar

StartChar: dnhalfblock
Encoding: 9604 9604 672
Width: 409
Flags: W
LayerCount: 2
Fore
SplineSet
0 -410 m 1,0,-1
 0 307 l 1,1,-1
 410 307 l 1,2,-1
 410 -410 l 1,3,-1
 0 -410 l 1,0,-1
EndSplineSet
Validated: 1
EndChar

StartChar: dnfiveeighthsblock
Encoding: 9605 9605 673
Width: 409
Flags: W
LayerCount: 2
Fore
SplineSet
0 -410 m 1,0,-1
 0 486 l 1,1,-1
 410 486 l 1,2,-1
 410 -410 l 1,3,-1
 0 -410 l 1,0,-1
EndSplineSet
Validated: 1
EndChar

StartChar: dnthreequartersblock
Encoding: 9606 9606 674
Width: 409
Flags: W
LayerCount: 2
Fore
SplineSet
0 -410 m 1,0,-1
 0 666 l 1,1,-1
 410 666 l 1,2,-1
 410 -410 l 1,3,-1
 0 -410 l 1,0,-1
EndSplineSet
Validated: 1
EndChar

StartChar: dnseveneighthsblock
Encoding: 9607 9607 675
Width: 409
Flags: W
LayerCount: 2
Fore
SplineSet
0 -410 m 1,0,-1
 0 845 l 1,1,-1
 410 845 l 1,2,-1
 410 -410 l 1,3,-1
 0 -410 l 1,0,-1
EndSplineSet
Validated: 1
EndChar

StartChar: fullblock
Encoding: 9608 9608 676
Width: 409
Flags: W
LayerCount: 2
Fore
SplineSet
0 -410 m 1,0,-1
 0 1024 l 1,1,-1
 410 1024 l 1,2,-1
 410 -410 l 1,3,-1
 0 -410 l 1,0,-1
EndSplineSet
Validated: 1
EndChar

StartChar: uphalfblock
Encoding: 9600 9600 677
Width: 409
Flags: W
LayerCount: 2
Fore
SplineSet
0 307 m 1,0,-1
 0 1024 l 1,1,-1
 410 1024 l 1,2,-1
 410 307 l 1,3,-1
 0 307 l 1,0,-1
EndSplineSet
Validated: 1
EndChar

StartChar: upeighthblock
Encoding: 9620 9620 678
Width: 409
Flags: W
LayerCount: 2
Fore
SplineSet
0 845 m 1,0,-1
 0 1024 l 1,1,-1
 410 1024 l 1,2,-1
 410 845 l 1,3,-1
 0 845 l 1,0,-1
EndSplineSet
Validated: 1
EndChar

StartChar: lefteighthblock
Encoding: 9615 9615 679
Width: 409
Flags: W
LayerCount: 2
Fore
SplineSet
0 -410 m 1,0,-1
 0 1024 l 1,1,-1
 51 1024 l 1,2,-1
 51 -410 l 1,3,-1
 0 -410 l 1,0,-1
EndSplineSet
Validated: 1
EndChar

StartChar: leftquarterblock
Encoding: 9614 9614 680
Width: 409
Flags: W
LayerCount: 2
Fore
SplineSet
0 -410 m 1,0,-1
 0 1024 l 1,1,-1
 102 1024 l 1,2,-1
 102 -410 l 1,3,-1
 0 -410 l 1,0,-1
EndSplineSet
Validated: 1
EndChar

StartChar: leftthreeeighthsblock
Encoding: 9613 9613 681
Width: 409
Flags: W
LayerCount: 2
Fore
SplineSet
0 -410 m 1,0,-1
 0 1024 l 1,1,-1
 154 1024 l 1,2,-1
 154 -410 l 1,3,-1
 0 -410 l 1,0,-1
EndSplineSet
Validated: 1
EndChar

StartChar: lefthalfblock
Encoding: 9612 9612 682
Width: 409
Flags: W
LayerCount: 2
Fore
SplineSet
0 -410 m 1,0,-1
 0 1024 l 1,1,-1
 205 1024 l 1,2,-1
 205 -410 l 1,3,-1
 0 -410 l 1,0,-1
EndSplineSet
Validated: 1
EndChar

StartChar: leftfiveeighthsblock
Encoding: 9611 9611 683
Width: 409
Flags: W
LayerCount: 2
Fore
SplineSet
0 -410 m 1,0,-1
 0 1024 l 1,1,-1
 256 1024 l 1,2,-1
 256 -410 l 1,3,-1
 0 -410 l 1,0,-1
EndSplineSet
Validated: 1
EndChar

StartChar: leftthreequartersblock
Encoding: 9610 9610 684
Width: 409
Flags: W
LayerCount: 2
Fore
SplineSet
0 -410 m 1,0,-1
 0 1024 l 1,1,-1
 307 1024 l 1,2,-1
 307 -410 l 1,3,-1
 0 -410 l 1,0,-1
EndSplineSet
Validated: 1
EndChar

StartChar: leftseveneighthsblock
Encoding: 9609 9609 685
Width: 409
Flags: W
LayerCount: 2
Fore
SplineSet
0 -410 m 1,0,-1
 0 1024 l 1,1,-1
 358 1024 l 1,2,-1
 358 -410 l 1,3,-1
 0 -410 l 1,0,-1
EndSplineSet
Validated: 1
EndChar

StartChar: righthalfblock
Encoding: 9616 9616 686
Width: 409
Flags: W
LayerCount: 2
Fore
SplineSet
205 -410 m 1,0,-1
 205 1024 l 1,1,-1
 410 1024 l 1,2,-1
 410 -410 l 1,3,-1
 205 -410 l 1,0,-1
EndSplineSet
Validated: 1
EndChar

StartChar: righteighthblock
Encoding: 9621 9621 687
Width: 409
Flags: W
LayerCount: 2
Fore
SplineSet
358 -410 m 1,0,-1
 358 1024 l 1,1,-1
 410 1024 l 1,2,-1
 410 -410 l 1,3,-1
 358 -410 l 1,0,-1
EndSplineSet
Validated: 1
EndChar

StartChar: dnleftquadrant
Encoding: 9622 9622 688
Width: 409
Flags: W
LayerCount: 2
Fore
SplineSet
0 -410 m 1,0,-1
 0 307 l 1,1,-1
 205 307 l 1,2,-1
 205 -410 l 1,3,-1
 0 -410 l 1,0,-1
EndSplineSet
Validated: 1
EndChar

StartChar: dnrightquadrant
Encoding: 9623 9623 689
Width: 409
Flags: W
LayerCount: 2
Fore
SplineSet
205 -410 m 1,0,-1
 205 307 l 1,1,-1
 410 307 l 1,2,-1
 410 -410 l 1,3,-1
 205 -410 l 1,0,-1
EndSplineSet
Validated: 1
EndChar

StartChar: upleftquadrant
Encoding: 9624 9624 690
Width: 409
Flags: W
LayerCount: 2
Fore
SplineSet
0 307 m 1,0,-1
 0 1024 l 1,1,-1
 205 1024 l 1,2,-1
 205 307 l 1,3,-1
 0 307 l 1,0,-1
EndSplineSet
Validated: 1
EndChar

StartChar: upleftdnleftdnrightquadrant
Encoding: 9625 9625 691
Width: 409
Flags: W
LayerCount: 2
Fore
SplineSet
0 -410 m 1,0,-1
 0 1024 l 1,1,-1
 205 1024 l 1,2,-1
 205 307 l 1,3,-1
 410 307 l 1,4,-1
 410 -410 l 1,5,-1
 0 -410 l 1,0,-1
EndSplineSet
Validated: 1
EndChar

StartChar: upleftdnrightquadrant
Encoding: 9626 9626 692
Width: 409
Flags: W
LayerCount: 2
Fore
SplineSet
205 -410 m 1,0,-1
 205 307 l 1,1,-1
 0 307 l 1,2,-1
 0 1024 l 1,3,-1
 205 1024 l 1,4,-1
 205 307 l 1,5,-1
 410 307 l 1,6,-1
 410 -410 l 1,7,-1
 205 -410 l 1,0,-1
EndSplineSet
Validated: 5
EndChar

StartChar: upleftuprightdnleftquadrant
Encoding: 9627 9627 693
Width: 409
Flags: W
LayerCount: 2
Fore
SplineSet
0 -410 m 1,0,-1
 0 1024 l 1,1,-1
 410 1024 l 1,2,-1
 410 307 l 1,3,-1
 205 307 l 1,4,-1
 205 -410 l 1,5,-1
 0 -410 l 1,0,-1
EndSplineSet
Validated: 1
EndChar

StartChar: upleftuprightdnrightquadrant
Encoding: 9628 9628 694
Width: 409
Flags: W
LayerCount: 2
Fore
SplineSet
205 -410 m 1,0,-1
 205 307 l 1,1,-1
 0 307 l 1,2,-1
 0 1024 l 1,3,-1
 410 1024 l 1,4,-1
 410 -410 l 1,5,-1
 205 -410 l 1,0,-1
EndSplineSet
Validated: 1
EndChar

StartChar: uprightquadrant
Encoding: 9629 9629 695
Width: 409
Flags: W
LayerCount: 2
Fore
SplineSet
205 307 m 1,0,-1
 205 1024 l 1,1,-1
 410 1024 l 1,2,-1
 410 307 l 1,3,-1
 205 307 l 1,0,-1
EndSplineSet
Validated: 1
EndChar

StartChar: uprightdnleftquadrant
Encoding: 9630 9630 696
Width: 409
Flags: W
LayerCount: 2
Fore
SplineSet
205 307 m 1,0,-1
 205 1024 l 1,1,-1
 410 1024 l 1,2,-1
 410 307 l 1,3,-1
 205 307 l 1,0,-1
0 -410 m 1,4,-1
 0 307 l 1,5,-1
 205 307 l 1,6,-1
 205 -410 l 1,7,-1
 0 -410 l 1,4,-1
EndSplineSet
Validated: 5
EndChar

StartChar: uprightdnleftdnrightquadrant
Encoding: 9631 9631 697
Width: 409
Flags: W
LayerCount: 2
Fore
SplineSet
0 -410 m 1,0,-1
 0 307 l 1,1,-1
 205 307 l 1,2,-1
 205 1024 l 1,3,-1
 410 1024 l 1,4,-1
 410 -410 l 1,5,-1
 0 -410 l 1,0,-1
EndSplineSet
Validated: 1
EndChar

StartChar: lightshade
Encoding: 9617 9617 698
Width: 409
Flags: W
LayerCount: 2
Fore
SplineSet
357 950 m 1,0,-1
 357 996 l 1,1,-1
 394 996 l 1,2,-1
 394 950 l 1,3,-1
 357 950 l 1,0,-1
221 950 m 1,4,-1
 221 996 l 1,5,-1
 258 996 l 1,6,-1
 258 950 l 1,7,-1
 221 950 l 1,4,-1
84 950 m 1,8,-1
 84 996 l 1,9,-1
 121 996 l 1,10,-1
 121 950 l 1,11,-1
 84 950 l 1,8,-1
289 848 m 1,12,-1
 289 894 l 1,13,-1
 326 894 l 1,14,-1
 326 848 l 1,15,-1
 289 848 l 1,12,-1
153 848 m 1,16,-1
 153 894 l 1,17,-1
 189 894 l 1,18,-1
 189 848 l 1,19,-1
 153 848 l 1,16,-1
16 848 m 1,20,-1
 16 894 l 1,21,-1
 53 894 l 1,22,-1
 53 848 l 1,23,-1
 16 848 l 1,20,-1
357 745 m 1,24,-1
 357 792 l 1,25,-1
 394 792 l 1,26,-1
 394 745 l 1,27,-1
 357 745 l 1,24,-1
221 745 m 1,28,-1
 221 792 l 1,29,-1
 258 792 l 1,30,-1
 258 745 l 1,31,-1
 221 745 l 1,28,-1
84 745 m 1,32,-1
 84 792 l 1,33,-1
 121 792 l 1,34,-1
 121 745 l 1,35,-1
 84 745 l 1,32,-1
16 643 m 1,36,-1
 16 689 l 1,37,-1
 53 689 l 1,38,-1
 53 643 l 1,39,-1
 16 643 l 1,36,-1
153 643 m 1,40,-1
 153 689 l 1,41,-1
 189 689 l 1,42,-1
 189 643 l 1,43,-1
 153 643 l 1,40,-1
289 643 m 1,44,-1
 289 689 l 1,45,-1
 326 689 l 1,46,-1
 326 643 l 1,47,-1
 289 643 l 1,44,-1
357 541 m 1,48,-1
 357 587 l 1,49,-1
 394 587 l 1,50,-1
 394 541 l 1,51,-1
 357 541 l 1,48,-1
221 541 m 1,52,-1
 221 587 l 1,53,-1
 258 587 l 1,54,-1
 258 541 l 1,55,-1
 221 541 l 1,52,-1
84 541 m 1,56,-1
 84 587 l 1,57,-1
 121 587 l 1,58,-1
 121 541 l 1,59,-1
 84 541 l 1,56,-1
289 438 m 1,60,-1
 289 484 l 1,61,-1
 326 484 l 1,62,-1
 326 438 l 1,63,-1
 289 438 l 1,60,-1
153 438 m 1,64,-1
 153 484 l 1,65,-1
 189 484 l 1,66,-1
 189 438 l 1,67,-1
 153 438 l 1,64,-1
16 438 m 1,68,-1
 16 484 l 1,69,-1
 53 484 l 1,70,-1
 53 438 l 1,71,-1
 16 438 l 1,68,-1
357 336 m 1,72,-1
 357 382 l 1,73,-1
 394 382 l 1,74,-1
 394 336 l 1,75,-1
 357 336 l 1,72,-1
221 336 m 1,76,-1
 221 382 l 1,77,-1
 258 382 l 1,78,-1
 258 336 l 1,79,-1
 221 336 l 1,76,-1
84 336 m 1,80,-1
 84 382 l 1,81,-1
 121 382 l 1,82,-1
 121 336 l 1,83,-1
 84 336 l 1,80,-1
289 233 m 1,84,-1
 289 280 l 1,85,-1
 326 280 l 1,86,-1
 326 233 l 1,87,-1
 289 233 l 1,84,-1
153 233 m 1,88,-1
 153 280 l 1,89,-1
 189 280 l 1,90,-1
 189 233 l 1,91,-1
 153 233 l 1,88,-1
16 233 m 1,92,-1
 16 280 l 1,93,-1
 53 280 l 1,94,-1
 53 233 l 1,95,-1
 16 233 l 1,92,-1
357 131 m 1,96,-1
 357 177 l 1,97,-1
 394 177 l 1,98,-1
 394 131 l 1,99,-1
 357 131 l 1,96,-1
221 131 m 1,100,-1
 221 177 l 1,101,-1
 258 177 l 1,102,-1
 258 131 l 1,103,-1
 221 131 l 1,100,-1
84 131 m 1,104,-1
 84 177 l 1,105,-1
 121 177 l 1,106,-1
 121 131 l 1,107,-1
 84 131 l 1,104,-1
289 29 m 1,108,-1
 289 75 l 1,109,-1
 326 75 l 1,110,-1
 326 29 l 1,111,-1
 289 29 l 1,108,-1
153 29 m 1,112,-1
 153 75 l 1,113,-1
 189 75 l 1,114,-1
 189 29 l 1,115,-1
 153 29 l 1,112,-1
16 29 m 1,116,-1
 16 75 l 1,117,-1
 53 75 l 1,118,-1
 53 29 l 1,119,-1
 16 29 l 1,116,-1
84 -74 m 1,120,-1
 84 -28 l 1,121,-1
 121 -28 l 1,122,-1
 121 -74 l 1,123,-1
 84 -74 l 1,120,-1
221 -74 m 1,124,-1
 221 -28 l 1,125,-1
 258 -28 l 1,126,-1
 258 -74 l 1,127,-1
 221 -74 l 1,124,-1
357 -74 m 1,128,-1
 357 -28 l 1,129,-1
 394 -28 l 1,130,-1
 394 -74 l 1,131,-1
 357 -74 l 1,128,-1
289 -176 m 1,132,-1
 289 -130 l 1,133,-1
 326 -130 l 1,134,-1
 326 -176 l 1,135,-1
 289 -176 l 1,132,-1
153 -176 m 1,136,-1
 153 -130 l 1,137,-1
 189 -130 l 1,138,-1
 189 -176 l 1,139,-1
 153 -176 l 1,136,-1
16 -176 m 1,140,-1
 16 -130 l 1,141,-1
 53 -130 l 1,142,-1
 53 -176 l 1,143,-1
 16 -176 l 1,140,-1
357 -279 m 1,144,-1
 357 -232 l 1,145,-1
 394 -232 l 1,146,-1
 394 -279 l 1,147,-1
 357 -279 l 1,144,-1
221 -279 m 1,148,-1
 221 -232 l 1,149,-1
 258 -232 l 1,150,-1
 258 -279 l 1,151,-1
 221 -279 l 1,148,-1
84 -279 m 1,152,-1
 84 -232 l 1,153,-1
 121 -232 l 1,154,-1
 121 -279 l 1,155,-1
 84 -279 l 1,152,-1
289 -381 m 1,156,-1
 289 -335 l 1,157,-1
 326 -335 l 1,158,-1
 326 -381 l 1,159,-1
 289 -381 l 1,156,-1
153 -381 m 1,160,-1
 153 -335 l 1,161,-1
 189 -335 l 1,162,-1
 189 -381 l 1,163,-1
 153 -381 l 1,160,-1
16 -381 m 1,164,-1
 16 -335 l 1,165,-1
 53 -335 l 1,166,-1
 53 -381 l 1,167,-1
 16 -381 l 1,164,-1
EndSplineSet
Validated: 1
EndChar

StartChar: mediumshade
Encoding: 9618 9618 699
Width: 409
Flags: W
LayerCount: 2
Fore
SplineSet
349 940 m 1,0,-1
 349 1007 l 1,1,-1
 402 1007 l 1,2,-1
 402 940 l 1,3,-1
 349 940 l 1,0,-1
213 940 m 1,4,-1
 213 1007 l 1,5,-1
 266 1007 l 1,6,-1
 266 940 l 1,7,-1
 213 940 l 1,4,-1
76 940 m 1,8,-1
 76 1007 l 1,9,-1
 129 1007 l 1,10,-1
 129 940 l 1,11,-1
 76 940 l 1,8,-1
281 838 m 1,12,-1
 281 904 l 1,13,-1
 334 904 l 1,14,-1
 334 838 l 1,15,-1
 281 838 l 1,12,-1
144 838 m 1,16,-1
 144 904 l 1,17,-1
 198 904 l 1,18,-1
 198 838 l 1,19,-1
 144 838 l 1,16,-1
8 838 m 1,20,-1
 8 904 l 1,21,-1
 60 904 l 1,22,-1
 60 838 l 1,23,-1
 8 838 l 1,20,-1
349 735 m 1,24,-1
 349 802 l 1,25,-1
 402 802 l 1,26,-1
 402 735 l 1,27,-1
 349 735 l 1,24,-1
213 735 m 1,28,-1
 213 802 l 1,29,-1
 266 802 l 1,30,-1
 266 735 l 1,31,-1
 213 735 l 1,28,-1
76 735 m 1,32,-1
 76 802 l 1,33,-1
 129 802 l 1,34,-1
 129 735 l 1,35,-1
 76 735 l 1,32,-1
8 633 m 1,36,-1
 8 699 l 1,37,-1
 60 699 l 1,38,-1
 60 633 l 1,39,-1
 8 633 l 1,36,-1
144 633 m 1,40,-1
 144 699 l 1,41,-1
 198 699 l 1,42,-1
 198 633 l 1,43,-1
 144 633 l 1,40,-1
281 633 m 1,44,-1
 281 699 l 1,45,-1
 334 699 l 1,46,-1
 334 633 l 1,47,-1
 281 633 l 1,44,-1
349 530 m 1,48,-1
 349 597 l 1,49,-1
 402 597 l 1,50,-1
 402 530 l 1,51,-1
 349 530 l 1,48,-1
213 530 m 1,52,-1
 213 597 l 1,53,-1
 266 597 l 1,54,-1
 266 530 l 1,55,-1
 213 530 l 1,52,-1
76 530 m 1,56,-1
 76 597 l 1,57,-1
 129 597 l 1,58,-1
 129 530 l 1,59,-1
 76 530 l 1,56,-1
281 428 m 1,60,-1
 281 495 l 1,61,-1
 334 495 l 1,62,-1
 334 428 l 1,63,-1
 281 428 l 1,60,-1
144 428 m 1,64,-1
 144 495 l 1,65,-1
 198 495 l 1,66,-1
 198 428 l 1,67,-1
 144 428 l 1,64,-1
8 428 m 1,68,-1
 8 495 l 1,69,-1
 60 495 l 1,70,-1
 60 428 l 1,71,-1
 8 428 l 1,68,-1
349 326 m 1,72,-1
 349 392 l 1,73,-1
 402 392 l 1,74,-1
 402 326 l 1,75,-1
 349 326 l 1,72,-1
213 326 m 1,76,-1
 213 392 l 1,77,-1
 266 392 l 1,78,-1
 266 326 l 1,79,-1
 213 326 l 1,76,-1
76 326 m 1,80,-1
 76 392 l 1,81,-1
 129 392 l 1,82,-1
 129 326 l 1,83,-1
 76 326 l 1,80,-1
281 223 m 1,84,-1
 281 290 l 1,85,-1
 334 290 l 1,86,-1
 334 223 l 1,87,-1
 281 223 l 1,84,-1
144 223 m 1,88,-1
 144 290 l 1,89,-1
 198 290 l 1,90,-1
 198 223 l 1,91,-1
 144 223 l 1,88,-1
8 223 m 1,92,-1
 8 290 l 1,93,-1
 60 290 l 1,94,-1
 60 223 l 1,95,-1
 8 223 l 1,92,-1
349 121 m 1,96,-1
 349 187 l 1,97,-1
 402 187 l 1,98,-1
 402 121 l 1,99,-1
 349 121 l 1,96,-1
213 121 m 1,100,-1
 213 187 l 1,101,-1
 266 187 l 1,102,-1
 266 121 l 1,103,-1
 213 121 l 1,100,-1
76 121 m 1,104,-1
 76 187 l 1,105,-1
 129 187 l 1,106,-1
 129 121 l 1,107,-1
 76 121 l 1,104,-1
281 18 m 1,108,-1
 281 85 l 1,109,-1
 334 85 l 1,110,-1
 334 18 l 1,111,-1
 281 18 l 1,108,-1
144 18 m 1,112,-1
 144 85 l 1,113,-1
 198 85 l 1,114,-1
 198 18 l 1,115,-1
 144 18 l 1,112,-1
8 18 m 1,116,-1
 8 85 l 1,117,-1
 60 85 l 1,118,-1
 60 18 l 1,119,-1
 8 18 l 1,116,-1
76 -84 m 1,120,-1
 76 -17 l 1,121,-1
 129 -17 l 1,122,-1
 129 -84 l 1,123,-1
 76 -84 l 1,120,-1
213 -84 m 1,124,-1
 213 -17 l 1,125,-1
 266 -17 l 1,126,-1
 266 -84 l 1,127,-1
 213 -84 l 1,124,-1
349 -84 m 1,128,-1
 349 -17 l 1,129,-1
 402 -17 l 1,130,-1
 402 -84 l 1,131,-1
 349 -84 l 1,128,-1
281 -186 m 1,132,-1
 281 -120 l 1,133,-1
 334 -120 l 1,134,-1
 334 -186 l 1,135,-1
 281 -186 l 1,132,-1
144 -186 m 1,136,-1
 144 -120 l 1,137,-1
 198 -120 l 1,138,-1
 198 -186 l 1,139,-1
 144 -186 l 1,136,-1
8 -186 m 1,140,-1
 8 -120 l 1,141,-1
 60 -120 l 1,142,-1
 60 -186 l 1,143,-1
 8 -186 l 1,140,-1
349 -289 m 1,144,-1
 349 -222 l 1,145,-1
 402 -222 l 1,146,-1
 402 -289 l 1,147,-1
 349 -289 l 1,144,-1
213 -289 m 1,148,-1
 213 -222 l 1,149,-1
 266 -222 l 1,150,-1
 266 -289 l 1,151,-1
 213 -289 l 1,148,-1
76 -289 m 1,152,-1
 76 -222 l 1,153,-1
 129 -222 l 1,154,-1
 129 -289 l 1,155,-1
 76 -289 l 1,152,-1
281 -391 m 1,156,-1
 281 -325 l 1,157,-1
 334 -325 l 1,158,-1
 334 -391 l 1,159,-1
 281 -391 l 1,156,-1
144 -391 m 1,160,-1
 144 -325 l 1,161,-1
 198 -325 l 1,162,-1
 198 -391 l 1,163,-1
 144 -391 l 1,160,-1
8 -391 m 1,164,-1
 8 -325 l 1,165,-1
 60 -325 l 1,166,-1
 60 -391 l 1,167,-1
 8 -391 l 1,164,-1
EndSplineSet
Validated: 1
EndChar

StartChar: darkshade
Encoding: 9619 9619 700
Width: 409
Flags: W
LayerCount: 2
Fore
SplineSet
0 -410 m 1,0,-1
 0 -299 l 1,1,-1
 55 -299 l 1,2,-1
 55 -212 l 1,3,-1
 0 -212 l 1,4,-1
 0 -94 l 1,5,-1
 55 -94 l 1,6,-1
 55 -7 l 1,7,-1
 0 -7 l 1,8,-1
 0 111 l 1,9,-1
 55 111 l 1,10,-1
 55 198 l 1,11,-1
 0 198 l 1,12,-1
 0 315 l 1,13,-1
 55 315 l 1,14,-1
 55 402 l 1,15,-1
 0 402 l 1,16,-1
 0 520 l 1,17,-1
 55 520 l 1,18,-1
 55 607 l 1,19,-1
 0 607 l 1,20,-1
 0 725 l 1,21,-1
 55 725 l 1,22,-1
 55 812 l 1,23,-1
 0 812 l 1,24,-1
 0 930 l 1,25,-1
 55 930 l 1,26,-1
 55 1024 l 1,27,-1
 150 1024 l 1,28,-1
 150 930 l 1,29,-1
 193 930 l 1,30,-1
 193 1024 l 1,31,-1
 287 1024 l 1,32,-1
 287 930 l 1,33,-1
 329 930 l 1,34,-1
 329 1024 l 1,35,-1
 410 1024 l 1,36,-1
 410 914 l 1,37,-1
 354 914 l 1,38,-1
 354 827 l 1,39,-1
 410 827 l 1,40,-1
 410 710 l 1,41,-1
 354 710 l 1,42,-1
 354 623 l 1,43,-1
 410 623 l 1,44,-1
 410 505 l 1,45,-1
 354 505 l 1,46,-1
 354 418 l 1,47,-1
 410 418 l 1,48,-1
 410 300 l 1,49,-1
 354 300 l 1,50,-1
 354 213 l 1,51,-1
 410 213 l 1,52,-1
 410 95 l 1,53,-1
 354 95 l 1,54,-1
 354 8 l 1,55,-1
 410 8 l 1,56,-1
 410 -110 l 1,57,-1
 354 -110 l 1,58,-1
 354 -197 l 1,59,-1
 410 -197 l 1,60,-1
 410 -314 l 1,61,-1
 354 -314 l 1,62,-1
 354 -410 l 1,63,-1
 260 -410 l 1,64,-1
 260 -314 l 1,65,-1
 218 -314 l 1,66,-1
 218 -410 l 1,67,-1
 124 -410 l 1,68,-1
 124 -314 l 1,69,-1
 82 -314 l 1,70,-1
 82 -410 l 1,71,-1
 0 -410 l 1,0,-1
260 827 m 1,72,-1
 260 914 l 1,73,-1
 218 914 l 1,74,-1
 218 827 l 1,75,-1
 260 827 l 1,72,-1
124 827 m 1,76,-1
 124 914 l 1,77,-1
 82 914 l 1,78,-1
 82 827 l 1,79,-1
 124 827 l 1,76,-1
329 725 m 1,80,-1
 329 812 l 1,81,-1
 287 812 l 1,82,-1
 287 725 l 1,83,-1
 329 725 l 1,80,-1
193 725 m 1,84,-1
 193 812 l 1,85,-1
 150 812 l 1,86,-1
 150 725 l 1,87,-1
 193 725 l 1,84,-1
124 623 m 1,88,-1
 124 710 l 1,89,-1
 82 710 l 1,90,-1
 82 623 l 1,91,-1
 124 623 l 1,88,-1
260 623 m 1,92,-1
 260 710 l 1,93,-1
 218 710 l 1,94,-1
 218 623 l 1,95,-1
 260 623 l 1,92,-1
329 520 m 1,96,-1
 329 607 l 1,97,-1
 287 607 l 1,98,-1
 287 520 l 1,99,-1
 329 520 l 1,96,-1
193 520 m 1,100,-1
 193 607 l 1,101,-1
 150 607 l 1,102,-1
 150 520 l 1,103,-1
 193 520 l 1,100,-1
260 418 m 1,104,-1
 260 505 l 1,105,-1
 218 505 l 1,106,-1
 218 418 l 1,107,-1
 260 418 l 1,104,-1
124 418 m 1,108,-1
 124 505 l 1,109,-1
 82 505 l 1,110,-1
 82 418 l 1,111,-1
 124 418 l 1,108,-1
329 315 m 1,112,-1
 329 402 l 1,113,-1
 287 402 l 1,114,-1
 287 315 l 1,115,-1
 329 315 l 1,112,-1
193 315 m 1,116,-1
 193 402 l 1,117,-1
 150 402 l 1,118,-1
 150 315 l 1,119,-1
 193 315 l 1,116,-1
124 213 m 1,120,-1
 124 300 l 1,121,-1
 82 300 l 1,122,-1
 82 213 l 1,123,-1
 124 213 l 1,120,-1
260 213 m 1,124,-1
 260 300 l 1,125,-1
 218 300 l 1,126,-1
 218 213 l 1,127,-1
 260 213 l 1,124,-1
329 111 m 1,128,-1
 329 198 l 1,129,-1
 287 198 l 1,130,-1
 287 111 l 1,131,-1
 329 111 l 1,128,-1
193 111 m 1,132,-1
 193 198 l 1,133,-1
 150 198 l 1,134,-1
 150 111 l 1,135,-1
 193 111 l 1,132,-1
260 8 m 1,136,-1
 260 95 l 1,137,-1
 218 95 l 1,138,-1
 218 8 l 1,139,-1
 260 8 l 1,136,-1
124 8 m 1,140,-1
 124 95 l 1,141,-1
 82 95 l 1,142,-1
 82 8 l 1,143,-1
 124 8 l 1,140,-1
329 -94 m 1,144,-1
 329 -7 l 1,145,-1
 287 -7 l 1,146,-1
 287 -94 l 1,147,-1
 329 -94 l 1,144,-1
193 -94 m 1,148,-1
 193 -7 l 1,149,-1
 150 -7 l 1,150,-1
 150 -94 l 1,151,-1
 193 -94 l 1,148,-1
260 -197 m 1,152,-1
 260 -110 l 1,153,-1
 218 -110 l 1,154,-1
 218 -197 l 1,155,-1
 260 -197 l 1,152,-1
124 -197 m 1,156,-1
 124 -110 l 1,157,-1
 82 -110 l 1,158,-1
 82 -197 l 1,159,-1
 124 -197 l 1,156,-1
329 -299 m 1,160,-1
 329 -212 l 1,161,-1
 287 -212 l 1,162,-1
 287 -299 l 1,163,-1
 329 -299 l 1,160,-1
193 -299 m 1,164,-1
 193 -212 l 1,165,-1
 150 -212 l 1,166,-1
 150 -299 l 1,167,-1
 193 -299 l 1,164,-1
EndSplineSet
Validated: 1
EndChar

StartChar: uni25CF
Encoding: 9679 9679 701
Width: 409
Flags: W
LayerCount: 2
Fore
SplineSet
204 101 m 256,0,1
 157 101 157 101 118.5 130.5 c 128,-1,2
 80 160 80 160 57 208.5 c 128,-1,3
 34 257 34 257 34 315 c 0,4,5
 34 374 34 374 57 422.5 c 128,-1,6
 80 471 80 471 118.5 500 c 128,-1,7
 157 529 157 529 204 529 c 256,8,9
 251 529 251 529 290 500 c 128,-1,10
 329 471 329 471 352 423 c 128,-1,11
 375 375 375 375 375 315 c 0,12,13
 375 257 375 257 352 208.5 c 128,-1,14
 329 160 329 160 290 130.5 c 128,-1,15
 251 101 251 101 204 101 c 256,0,1
EndSplineSet
Validated: 1
EndChar

